M48
;DRILL file {Pcbnew (2013-jul-14)-product} date Пн. 24 февр. 2014 16:36:29
;FORMAT={-:-/ absolute / metric / decimal}
FMAT,2
METRIC,TZ
T1C0.400
T2C0.600
T3C0.800
T4C1.000
T5C1.300
T6C1.600
T7C1.700
T8C3.500
%
G90
G05
M71
T1
X69.8Y-55.7
X95.1Y-76.
X95.1Y-79.
X122.5Y-97.7
X122.75Y-91.3
X123.85Y-91.3
X126.5Y-90.9
X126.7Y-83.9
X126.7Y-93.2
X127.4Y-71.4
X127.8Y-93.2
X127.8Y-97.65
X129.9Y-101.5
X130.8Y-93.4
X132.Y-100.4
X132.3Y-88.4
X132.5Y-97.4
X133.1Y-100.4
X133.4Y-88.4
X135.1Y-93.2
X136.3Y-88.4
X136.3Y-90.8
X137.3Y-108.2
X137.4Y-98.8
X137.5Y-93.2
X137.5Y-97.
X138.6Y-96.5
X138.6Y-98.8
X139.7Y-96.
X139.8Y-98.8
X143.Y-89.5
X143.Y-90.6
X144.7Y-111.4
X144.7Y-114.2
X144.7Y-118.7
X144.7Y-124.9
X148.9Y-111.4
X148.9Y-114.2
X148.9Y-118.7
X148.9Y-124.9
X156.Y-88.
X156.Y-92.3
X158.3Y-87.2
X158.3Y-92.3
X170.5Y-71.9
X173.1Y-71.9
X177.4Y-96.1
X177.4Y-97.4
X178.7Y-96.1
X178.7Y-97.4
X182.Y-67.9
X182.Y-69.9
X189.3Y-109.8
X189.3Y-115.1
X193.167Y-96.741
X193.675Y-90.391
X193.675Y-91.915
X193.675Y-101.567
X193.675Y-103.091
X193.929Y-95.725
X193.929Y-97.757
X194.691Y-96.741
X200.025Y-92.296
X200.025Y-94.836
X200.025Y-98.646
X200.025Y-101.186
X200.279Y-93.566
X200.279Y-99.916
T2
X62.1Y-42.2
X62.1Y-45.
X62.1Y-122.2
X62.1Y-125.
X64.5Y-40.8
X64.5Y-46.4
X64.5Y-120.8
X64.5Y-126.4
X66.9Y-42.2
X66.9Y-45.
X66.9Y-122.2
X66.9Y-125.
X74.8Y-54.1
X74.8Y-63.9
X86.3Y-53.9
X90.1Y-111.2
X96.9Y-111.2
X101.5Y-53.9
X107.368Y-107.663
X107.368Y-109.695
X107.368Y-111.727
X107.368Y-113.759
X107.368Y-115.791
X109.4Y-107.663
X111.432Y-107.663
X113.7Y-98.8
X113.7Y-100.55
X113.7Y-102.3
X113.718Y-107.663
X115.75Y-107.663
X117.782Y-107.663
X117.782Y-109.695
X117.782Y-111.727
X117.782Y-113.759
X117.782Y-115.791
X119.9Y-122.
X121.Y-109.5
X121.5Y-113.6
X123.282Y-51.653
X123.3Y-58.8
X124.298Y-44.033
X124.9Y-58.8
X125.8Y-68.5
X125.8Y-70.1
X126.648Y-60.797
X126.7Y-58.8
X128.3Y-58.8
X134.2Y-109.6
X135.1Y-116.8
X135.5Y-121.8
X141.7Y-109.6
X143.8Y-108.4
X156.7Y-102.2
X157.282Y-63.676
X158.Y-123.6
X158.Y-129.8
X161.093Y-53.389
X164.2Y-90.9
X166.2Y-89.
X168.332Y-55.992
X168.966Y-54.278
X170.6Y-88.5
X171.506Y-63.676
X172.5Y-49.9
X172.5Y-86.8
X174.7Y-92.9
X174.8Y-96.8
X175.316Y-53.389
X175.5Y-49.9
X177.1Y-49.9
X180.2Y-49.9
X182.2Y-89.3
X182.2Y-103.8
X182.555Y-55.992
X183.19Y-54.278
X183.8Y-89.3
X185.73Y-63.676
X185.8Y-89.3
X186.937Y-51.865
X189.159Y-53.389
X191.3Y-120.
X192.659Y-87.334
X194.31Y-87.334
X197.097Y-56.31
X197.415Y-54.278
X207.1Y-42.2
X207.1Y-45.
X207.1Y-122.2
X207.1Y-125.
X209.5Y-40.8
X209.5Y-46.4
X209.5Y-120.8
X209.5Y-126.4
X211.9Y-42.2
X211.9Y-45.
X211.9Y-122.2
X211.9Y-125.
T3
X66.5Y-75.28
X66.5Y-90.52
X68.72Y-96.6
X68.72Y-99.6
X75.1Y-112.2
X75.1Y-122.9
X76.7Y-81.5
X78.88Y-96.6
X78.88Y-99.6
X79.Y-43.595
X79.Y-47.405
X79.1Y-69.75
X79.1Y-72.25
X80.1Y-112.2
X80.1Y-122.9
X81.7Y-81.5
X85.45Y-90.4
X86.7Y-96.15
X86.7Y-98.65
X86.7Y-110.26
X86.7Y-115.34
X87.95Y-90.4
X92.28Y-94.2
X92.28Y-98.6
X93.5Y-110.26
X93.5Y-115.34
X100.3Y-110.26
X100.3Y-115.34
X103.38Y-70.7
X106.9Y-122.
X107.4Y-41.9
X107.52Y-94.2
X107.52Y-98.6
X108.8Y-122.
X109.6Y-41.9
X111.8Y-41.9
X114.Y-41.9
X118.62Y-70.7
X120.55Y-106.7
X123.05Y-106.7
X123.3Y-82.3
X148.Y-41.18
X148.Y-56.42
X161.Y-93.1
X161.Y-99.5
X162.9Y-94.4
X162.9Y-99.5
X163.19Y-120.23
X163.19Y-122.77
X163.19Y-126.43
X163.19Y-128.97
X170.81Y-120.23
X170.81Y-122.77
X170.81Y-126.43
X170.81Y-128.97
X175.006Y-84.422
X180.086Y-84.422
X184.78Y-84.4
X200.02Y-84.4
X210.566Y-92.287
X210.566Y-94.827
X210.566Y-97.367
X210.566Y-99.907
X213.106Y-93.557
X213.106Y-96.097
X213.106Y-98.637
X213.106Y-101.177
X216.535Y-82.254
X216.535Y-84.794
X217.805Y-108.543
X219.075Y-82.254
X219.075Y-84.794
X222.885Y-108.543
T4
X65.6Y-96.52
X65.6Y-106.68
X68.7Y-102.72
X68.7Y-112.88
X76.609Y-90.4
X76.609Y-103.6
X78.9Y-90.4
X78.9Y-103.6
X81.191Y-90.4
X81.191Y-103.6
X86.29Y-122.076
X88.2Y-69.26
X88.2Y-71.8
X88.2Y-74.34
X88.82Y-45.53
X88.82Y-48.07
X88.83Y-122.076
X91.36Y-45.53
X91.36Y-48.07
X91.37Y-122.076
X93.9Y-45.53
X93.9Y-48.07
X93.91Y-122.076
X96.44Y-45.53
X96.44Y-48.07
X98.98Y-45.53
X98.98Y-48.07
X99.03Y-122.076
X101.57Y-122.076
X109.73Y-47.28
X109.73Y-49.82
X109.73Y-52.36
X109.73Y-54.9
X109.73Y-57.44
X109.73Y-59.98
X109.73Y-62.52
X112.27Y-47.28
X112.27Y-49.82
X112.27Y-52.36
X112.27Y-54.9
X112.27Y-57.44
X112.27Y-59.98
X112.27Y-62.52
X122.83Y-124.576
X125.37Y-124.576
X127.23Y-81.2
X128.73Y-124.576
X129.77Y-81.2
X131.27Y-124.576
X137.23Y-47.28
X137.23Y-49.82
X137.23Y-52.36
X137.23Y-54.9
X137.23Y-57.44
X137.23Y-59.98
X137.23Y-62.52
X139.77Y-47.28
X139.77Y-49.82
X139.77Y-52.36
X139.77Y-54.9
X139.77Y-57.44
X139.77Y-59.98
X139.77Y-62.52
X143.1Y-76.93
X143.1Y-79.47
X151.12Y-76.93
X151.12Y-79.47
X153.66Y-76.93
X153.66Y-79.47
X156.2Y-76.93
X156.2Y-79.47
X158.044Y-45.515
X158.044Y-48.055
X158.74Y-76.93
X158.74Y-79.47
X160.584Y-45.515
X160.584Y-48.055
X161.28Y-76.93
X161.28Y-79.47
X163.124Y-45.515
X163.124Y-48.055
X165.665Y-45.515
X165.665Y-48.055
X168.204Y-45.515
X168.204Y-48.055
X169.24Y-74.905
X171.78Y-74.905
X174.32Y-74.905
X176.86Y-72.365
X176.86Y-74.905
X179.4Y-72.365
X179.4Y-74.905
X179.53Y-128.976
X181.94Y-74.905
X182.07Y-128.976
X184.588Y-45.515
X184.588Y-48.055
X185.43Y-128.976
X187.127Y-45.515
X187.127Y-48.055
X187.97Y-128.976
X189.667Y-45.515
X189.667Y-48.055
X191.33Y-128.976
X192.207Y-45.515
X192.207Y-48.055
X193.87Y-128.976
X194.748Y-45.515
X194.748Y-48.055
X197.23Y-128.976
X199.77Y-128.976
T5
X112.8Y-84.8
X116.6Y-79.8
X116.6Y-89.8
T6
X222.504Y-89.112
X222.504Y-104.352
T7
X93.6Y-84.9
X93.6Y-89.1
X97.8Y-84.9
X97.8Y-89.1
X102.Y-84.9
X102.Y-89.1
X106.2Y-84.9
X106.2Y-89.1
T8
X64.5Y-43.6
X64.5Y-123.6
X209.5Y-43.6
X209.5Y-123.6
X219.456Y-90.793
X219.456Y-102.663
T0
M30
