%FSLAX34Y34*%
G04 Gerber Fmt 3.4, Leading zero omitted, Abs format*
G04 (created by PCBNEW (2014-02-24 BZR 4719)-product) date Ср. 26 февр. 2014 21:52:08*
%MOIN*%
G01*
G70*
G90*
G04 APERTURE LIST*
%ADD10C,0.005906*%
%ADD11C,0.009843*%
%ADD12C,0.092520*%
%ADD13C,0.137795*%
%ADD14R,0.059055X0.059055*%
%ADD15C,0.059055*%
%ADD16R,0.051200X0.011800*%
%ADD17R,0.011800X0.051200*%
%ADD18R,0.144000X0.080000*%
%ADD19R,0.040000X0.080000*%
%ADD20R,0.070866X0.070866*%
%ADD21C,0.070866*%
%ADD22R,0.062992X0.062992*%
%ADD23C,0.062992*%
%ADD24R,0.076800X0.059100*%
%ADD25R,0.071000X0.063000*%
%ADD26R,0.063000X0.071000*%
%ADD27R,0.098400X0.076800*%
%ADD28R,0.076800X0.098400*%
%ADD29C,0.078740*%
%ADD30R,0.078700X0.039400*%
%ADD31R,0.039400X0.078700*%
%ADD32O,0.086400X0.058900*%
%ADD33R,0.078740X0.078740*%
%ADD34O,0.078740X0.078740*%
%ADD35R,0.059055X0.078740*%
%ADD36O,0.059055X0.078740*%
%ADD37R,0.068000X0.080000*%
%ADD38O,0.068000X0.080000*%
%ADD39R,0.078740X0.059055*%
%ADD40O,0.078740X0.059055*%
%ADD41R,0.060000X0.086500*%
%ADD42O,0.060000X0.086500*%
%ADD43R,0.009055X0.018898*%
%ADD44R,0.018898X0.009055*%
%ADD45R,0.051181X0.051181*%
%ADD46R,0.078700X0.023600*%
%ADD47C,0.118110*%
%ADD48R,0.066929X0.029921*%
%ADD49C,0.078700*%
%ADD50C,0.031496*%
%ADD51R,0.118110X0.118110*%
%ADD52R,0.051200X0.059000*%
%ADD53R,0.059000X0.051200*%
%ADD54C,0.303150*%
%ADD55R,0.039400X0.031500*%
%ADD56O,0.098425X0.059055*%
%ADD57C,0.086614*%
%ADD58O,0.066929X0.137795*%
%ADD59C,0.047244*%
%ADD60C,0.039370*%
%ADD61C,0.011811*%
%ADD62C,0.039370*%
%ADD63C,0.019685*%
%ADD64C,0.031496*%
%ADD65C,0.102362*%
%ADD66C,0.059055*%
%ADD67C,0.078740*%
%ADD68C,0.023622*%
%ADD69C,0.015748*%
G04 APERTURE END LIST*
G54D10*
G54D11*
X86423Y-20112D02*
X86423Y-19868D01*
X86935Y-19868D01*
X86692Y-20453D02*
X86692Y-20283D01*
X86423Y-20283D02*
X86935Y-20283D01*
X86935Y-20526D01*
X86935Y-21038D02*
X86935Y-21331D01*
X86423Y-21184D02*
X86935Y-21184D01*
X86423Y-21501D02*
X86935Y-21501D01*
X86423Y-21745D02*
X86935Y-21745D01*
X86570Y-21916D01*
X86935Y-22086D01*
X86423Y-22086D01*
X86423Y-22330D02*
X86935Y-22330D01*
X86423Y-22574D02*
X86935Y-22574D01*
X86423Y-22866D01*
X86935Y-22866D01*
X86911Y-23378D02*
X86935Y-23329D01*
X86935Y-23256D01*
X86911Y-23183D01*
X86862Y-23134D01*
X86813Y-23110D01*
X86716Y-23085D01*
X86643Y-23085D01*
X86545Y-23110D01*
X86497Y-23134D01*
X86448Y-23183D01*
X86423Y-23256D01*
X86423Y-23305D01*
X86448Y-23378D01*
X86472Y-23402D01*
X86643Y-23402D01*
X86643Y-23305D01*
X86423Y-24304D02*
X86667Y-24133D01*
X86423Y-24011D02*
X86935Y-24011D01*
X86935Y-24206D01*
X86911Y-24255D01*
X86887Y-24280D01*
X86838Y-24304D01*
X86765Y-24304D01*
X86716Y-24280D01*
X86692Y-24255D01*
X86667Y-24206D01*
X86667Y-24011D01*
X86692Y-24523D02*
X86692Y-24694D01*
X86423Y-24767D02*
X86423Y-24523D01*
X86935Y-24523D01*
X86935Y-24767D01*
X86472Y-25279D02*
X86448Y-25254D01*
X86423Y-25181D01*
X86423Y-25133D01*
X86448Y-25059D01*
X86497Y-25011D01*
X86545Y-24986D01*
X86643Y-24962D01*
X86716Y-24962D01*
X86813Y-24986D01*
X86862Y-25011D01*
X86911Y-25059D01*
X86935Y-25133D01*
X86935Y-25181D01*
X86911Y-25254D01*
X86887Y-25279D01*
X86692Y-25498D02*
X86692Y-25669D01*
X86423Y-25742D02*
X86423Y-25498D01*
X86935Y-25498D01*
X86935Y-25742D01*
X86423Y-25961D02*
X86935Y-25961D01*
X86935Y-26132D02*
X86423Y-26302D01*
X86935Y-26473D01*
X86692Y-26644D02*
X86692Y-26814D01*
X86423Y-26887D02*
X86423Y-26644D01*
X86935Y-26644D01*
X86935Y-26887D01*
X86423Y-27399D02*
X86667Y-27229D01*
X86423Y-27107D02*
X86935Y-27107D01*
X86935Y-27302D01*
X86911Y-27350D01*
X86887Y-27375D01*
X86838Y-27399D01*
X86765Y-27399D01*
X86716Y-27375D01*
X86692Y-27350D01*
X86667Y-27302D01*
X86667Y-27107D01*
X85609Y-18308D02*
X86120Y-18308D01*
X86120Y-18503D01*
X86096Y-18552D01*
X86072Y-18577D01*
X86023Y-18601D01*
X85950Y-18601D01*
X85901Y-18577D01*
X85877Y-18552D01*
X85852Y-18503D01*
X85852Y-18308D01*
X85609Y-19113D02*
X85852Y-18942D01*
X85609Y-18820D02*
X86120Y-18820D01*
X86120Y-19015D01*
X86096Y-19064D01*
X86072Y-19088D01*
X86023Y-19113D01*
X85950Y-19113D01*
X85901Y-19088D01*
X85877Y-19064D01*
X85852Y-19015D01*
X85852Y-18820D01*
X86120Y-19430D02*
X86120Y-19527D01*
X86096Y-19576D01*
X86047Y-19625D01*
X85950Y-19649D01*
X85779Y-19649D01*
X85682Y-19625D01*
X85633Y-19576D01*
X85609Y-19527D01*
X85609Y-19430D01*
X85633Y-19381D01*
X85682Y-19332D01*
X85779Y-19308D01*
X85950Y-19308D01*
X86047Y-19332D01*
X86096Y-19381D01*
X86120Y-19430D01*
X85657Y-20161D02*
X85633Y-20136D01*
X85609Y-20063D01*
X85609Y-20014D01*
X85633Y-19941D01*
X85682Y-19893D01*
X85730Y-19868D01*
X85828Y-19844D01*
X85901Y-19844D01*
X85998Y-19868D01*
X86047Y-19893D01*
X86096Y-19941D01*
X86120Y-20014D01*
X86120Y-20063D01*
X86096Y-20136D01*
X86072Y-20161D01*
X85877Y-20380D02*
X85877Y-20551D01*
X85609Y-20624D02*
X85609Y-20380D01*
X86120Y-20380D01*
X86120Y-20624D01*
X85633Y-20819D02*
X85609Y-20892D01*
X85609Y-21014D01*
X85633Y-21062D01*
X85657Y-21087D01*
X85706Y-21111D01*
X85755Y-21111D01*
X85803Y-21087D01*
X85828Y-21062D01*
X85852Y-21014D01*
X85877Y-20916D01*
X85901Y-20868D01*
X85925Y-20843D01*
X85974Y-20819D01*
X86023Y-20819D01*
X86072Y-20843D01*
X86096Y-20868D01*
X86120Y-20916D01*
X86120Y-21038D01*
X86096Y-21111D01*
X85633Y-21306D02*
X85609Y-21379D01*
X85609Y-21501D01*
X85633Y-21550D01*
X85657Y-21574D01*
X85706Y-21599D01*
X85755Y-21599D01*
X85803Y-21574D01*
X85828Y-21550D01*
X85852Y-21501D01*
X85877Y-21404D01*
X85901Y-21355D01*
X85925Y-21331D01*
X85974Y-21306D01*
X86023Y-21306D01*
X86072Y-21331D01*
X86096Y-21355D01*
X86120Y-21404D01*
X86120Y-21526D01*
X86096Y-21599D01*
X86120Y-21916D02*
X86120Y-22013D01*
X86096Y-22062D01*
X86047Y-22110D01*
X85950Y-22135D01*
X85779Y-22135D01*
X85682Y-22110D01*
X85633Y-22062D01*
X85609Y-22013D01*
X85609Y-21916D01*
X85633Y-21867D01*
X85682Y-21818D01*
X85779Y-21794D01*
X85950Y-21794D01*
X86047Y-21818D01*
X86096Y-21867D01*
X86120Y-21916D01*
X85609Y-22647D02*
X85852Y-22476D01*
X85609Y-22354D02*
X86120Y-22354D01*
X86120Y-22549D01*
X86096Y-22598D01*
X86072Y-22622D01*
X86023Y-22647D01*
X85950Y-22647D01*
X85901Y-22622D01*
X85877Y-22598D01*
X85852Y-22549D01*
X85852Y-22354D01*
X85877Y-23427D02*
X85852Y-23500D01*
X85828Y-23524D01*
X85779Y-23548D01*
X85706Y-23548D01*
X85657Y-23524D01*
X85633Y-23500D01*
X85609Y-23451D01*
X85609Y-23256D01*
X86120Y-23256D01*
X86120Y-23427D01*
X86096Y-23475D01*
X86072Y-23500D01*
X86023Y-23524D01*
X85974Y-23524D01*
X85925Y-23500D01*
X85901Y-23475D01*
X85877Y-23427D01*
X85877Y-23256D01*
X86120Y-23865D02*
X86120Y-23963D01*
X86096Y-24011D01*
X86047Y-24060D01*
X85950Y-24085D01*
X85779Y-24085D01*
X85682Y-24060D01*
X85633Y-24011D01*
X85609Y-23963D01*
X85609Y-23865D01*
X85633Y-23817D01*
X85682Y-23768D01*
X85779Y-23743D01*
X85950Y-23743D01*
X86047Y-23768D01*
X86096Y-23817D01*
X86120Y-23865D01*
X85755Y-24280D02*
X85755Y-24523D01*
X85609Y-24231D02*
X86120Y-24401D01*
X85609Y-24572D01*
X85609Y-25035D02*
X85852Y-24865D01*
X85609Y-24743D02*
X86120Y-24743D01*
X86120Y-24938D01*
X86096Y-24986D01*
X86072Y-25011D01*
X86023Y-25035D01*
X85950Y-25035D01*
X85901Y-25011D01*
X85877Y-24986D01*
X85852Y-24938D01*
X85852Y-24743D01*
X85609Y-25254D02*
X86120Y-25254D01*
X86120Y-25376D01*
X86096Y-25449D01*
X86047Y-25498D01*
X85998Y-25523D01*
X85901Y-25547D01*
X85828Y-25547D01*
X85730Y-25523D01*
X85682Y-25498D01*
X85633Y-25449D01*
X85609Y-25376D01*
X85609Y-25254D01*
X86120Y-26083D02*
X85609Y-26254D01*
X86120Y-26424D01*
X85877Y-26595D02*
X85877Y-26766D01*
X85609Y-26839D02*
X85609Y-26595D01*
X86120Y-26595D01*
X86120Y-26839D01*
X85609Y-27350D02*
X85852Y-27180D01*
X85609Y-27058D02*
X86120Y-27058D01*
X86120Y-27253D01*
X86096Y-27302D01*
X86072Y-27326D01*
X86023Y-27350D01*
X85950Y-27350D01*
X85901Y-27326D01*
X85877Y-27302D01*
X85852Y-27253D01*
X85852Y-27058D01*
X85609Y-28228D02*
X85609Y-27935D01*
X85609Y-28082D02*
X86120Y-28082D01*
X86047Y-28033D01*
X85998Y-27984D01*
X85974Y-27935D01*
X85657Y-28447D02*
X85633Y-28472D01*
X85609Y-28447D01*
X85633Y-28423D01*
X85657Y-28447D01*
X85609Y-28447D01*
X86120Y-28788D02*
X86120Y-28837D01*
X86096Y-28886D01*
X86072Y-28910D01*
X86023Y-28935D01*
X85925Y-28959D01*
X85803Y-28959D01*
X85706Y-28935D01*
X85657Y-28910D01*
X85633Y-28886D01*
X85609Y-28837D01*
X85609Y-28788D01*
X85633Y-28740D01*
X85657Y-28715D01*
X85706Y-28691D01*
X85803Y-28667D01*
X85925Y-28667D01*
X86023Y-28691D01*
X86072Y-28715D01*
X86096Y-28740D01*
X86120Y-28788D01*
X84794Y-19271D02*
X85305Y-19271D01*
X85305Y-19393D01*
X85281Y-19466D01*
X85232Y-19515D01*
X85184Y-19539D01*
X85086Y-19564D01*
X85013Y-19564D01*
X84915Y-19539D01*
X84867Y-19515D01*
X84818Y-19466D01*
X84794Y-19393D01*
X84794Y-19271D01*
X85062Y-19783D02*
X85062Y-19954D01*
X84794Y-20027D02*
X84794Y-19783D01*
X85305Y-19783D01*
X85305Y-20027D01*
X84818Y-20222D02*
X84794Y-20295D01*
X84794Y-20417D01*
X84818Y-20465D01*
X84842Y-20490D01*
X84891Y-20514D01*
X84940Y-20514D01*
X84989Y-20490D01*
X85013Y-20465D01*
X85037Y-20417D01*
X85062Y-20319D01*
X85086Y-20270D01*
X85110Y-20246D01*
X85159Y-20222D01*
X85208Y-20222D01*
X85257Y-20246D01*
X85281Y-20270D01*
X85305Y-20319D01*
X85305Y-20441D01*
X85281Y-20514D01*
X84794Y-20733D02*
X85305Y-20733D01*
X85281Y-21245D02*
X85305Y-21197D01*
X85305Y-21123D01*
X85281Y-21050D01*
X85232Y-21002D01*
X85184Y-20977D01*
X85086Y-20953D01*
X85013Y-20953D01*
X84915Y-20977D01*
X84867Y-21002D01*
X84818Y-21050D01*
X84794Y-21123D01*
X84794Y-21172D01*
X84818Y-21245D01*
X84842Y-21270D01*
X85013Y-21270D01*
X85013Y-21172D01*
X84794Y-21489D02*
X85305Y-21489D01*
X84794Y-21781D01*
X85305Y-21781D01*
X85062Y-22025D02*
X85062Y-22196D01*
X84794Y-22269D02*
X84794Y-22025D01*
X85305Y-22025D01*
X85305Y-22269D01*
X84794Y-22488D02*
X85305Y-22488D01*
X85305Y-22610D01*
X85281Y-22683D01*
X85232Y-22732D01*
X85184Y-22756D01*
X85086Y-22781D01*
X85013Y-22781D01*
X84915Y-22756D01*
X84867Y-22732D01*
X84818Y-22683D01*
X84794Y-22610D01*
X84794Y-22488D01*
X85062Y-23561D02*
X85037Y-23634D01*
X85013Y-23658D01*
X84964Y-23682D01*
X84891Y-23682D01*
X84842Y-23658D01*
X84818Y-23634D01*
X84794Y-23585D01*
X84794Y-23390D01*
X85305Y-23390D01*
X85305Y-23561D01*
X85281Y-23609D01*
X85257Y-23634D01*
X85208Y-23658D01*
X85159Y-23658D01*
X85110Y-23634D01*
X85086Y-23609D01*
X85062Y-23561D01*
X85062Y-23390D01*
X85037Y-23999D02*
X84794Y-23999D01*
X85305Y-23829D02*
X85037Y-23999D01*
X85305Y-24170D01*
X84842Y-24341D02*
X84818Y-24365D01*
X84794Y-24341D01*
X84818Y-24316D01*
X84842Y-24341D01*
X84794Y-24341D01*
X85110Y-24341D02*
X85086Y-24365D01*
X85062Y-24341D01*
X85086Y-24316D01*
X85110Y-24341D01*
X85062Y-24341D01*
X84794Y-25267D02*
X85037Y-25096D01*
X84794Y-24974D02*
X85305Y-24974D01*
X85305Y-25169D01*
X85281Y-25218D01*
X85257Y-25242D01*
X85208Y-25267D01*
X85135Y-25267D01*
X85086Y-25242D01*
X85062Y-25218D01*
X85037Y-25169D01*
X85037Y-24974D01*
X85305Y-25583D02*
X85305Y-25681D01*
X85281Y-25730D01*
X85232Y-25778D01*
X85135Y-25803D01*
X84964Y-25803D01*
X84867Y-25778D01*
X84818Y-25730D01*
X84794Y-25681D01*
X84794Y-25583D01*
X84818Y-25535D01*
X84867Y-25486D01*
X84964Y-25462D01*
X85135Y-25462D01*
X85232Y-25486D01*
X85281Y-25535D01*
X85305Y-25583D01*
X84794Y-26022D02*
X85305Y-26022D01*
X84940Y-26193D01*
X85305Y-26363D01*
X84794Y-26363D01*
X84940Y-26583D02*
X84940Y-26826D01*
X84794Y-26534D02*
X85305Y-26705D01*
X84794Y-26875D01*
X85305Y-26973D02*
X84794Y-27143D01*
X85305Y-27314D01*
X84794Y-27485D02*
X85305Y-27485D01*
X84818Y-27704D02*
X84794Y-27777D01*
X84794Y-27899D01*
X84818Y-27948D01*
X84842Y-27972D01*
X84891Y-27996D01*
X84940Y-27996D01*
X84989Y-27972D01*
X85013Y-27948D01*
X85037Y-27899D01*
X85062Y-27801D01*
X85086Y-27753D01*
X85110Y-27728D01*
X85159Y-27704D01*
X85208Y-27704D01*
X85257Y-27728D01*
X85281Y-27753D01*
X85305Y-27801D01*
X85305Y-27923D01*
X85281Y-27996D01*
X84369Y-22549D02*
X84393Y-22500D01*
X84393Y-22403D01*
X84369Y-22354D01*
X84320Y-22305D01*
X84271Y-22281D01*
X84174Y-22281D01*
X84125Y-22305D01*
X84076Y-22354D01*
X84052Y-22403D01*
X84052Y-22500D01*
X84076Y-22549D01*
X84564Y-22452D02*
X84539Y-22330D01*
X84466Y-22208D01*
X84344Y-22135D01*
X84222Y-22110D01*
X84100Y-22135D01*
X83979Y-22208D01*
X83905Y-22330D01*
X83881Y-22452D01*
X83905Y-22574D01*
X83979Y-22695D01*
X84100Y-22769D01*
X84222Y-22793D01*
X84344Y-22769D01*
X84466Y-22695D01*
X84539Y-22574D01*
X84564Y-22452D01*
X84442Y-23378D02*
X84466Y-23402D01*
X84490Y-23451D01*
X84490Y-23573D01*
X84466Y-23622D01*
X84442Y-23646D01*
X84393Y-23670D01*
X84344Y-23670D01*
X84271Y-23646D01*
X83979Y-23353D01*
X83979Y-23670D01*
X84490Y-23987D02*
X84490Y-24036D01*
X84466Y-24085D01*
X84442Y-24109D01*
X84393Y-24133D01*
X84295Y-24158D01*
X84174Y-24158D01*
X84076Y-24133D01*
X84027Y-24109D01*
X84003Y-24085D01*
X83979Y-24036D01*
X83979Y-23987D01*
X84003Y-23938D01*
X84027Y-23914D01*
X84076Y-23890D01*
X84174Y-23865D01*
X84295Y-23865D01*
X84393Y-23890D01*
X84442Y-23914D01*
X84466Y-23938D01*
X84490Y-23987D01*
X83979Y-24645D02*
X83979Y-24353D01*
X83979Y-24499D02*
X84490Y-24499D01*
X84417Y-24450D01*
X84369Y-24401D01*
X84344Y-24353D01*
X84320Y-25084D02*
X83979Y-25084D01*
X84515Y-24962D02*
X84149Y-24840D01*
X84149Y-25157D01*
G54D10*
X88779Y-13228D02*
X21850Y-13228D01*
X88779Y-52598D02*
X21850Y-52598D01*
X21850Y-52598D02*
X21850Y-13228D01*
X88779Y-13228D02*
X88779Y-52598D01*
G54D12*
X87600Y-41083D03*
G54D13*
X86400Y-35745D03*
X86400Y-40418D03*
G54D14*
X83900Y-39833D03*
G54D15*
X82900Y-39333D03*
X83900Y-38833D03*
X82900Y-38333D03*
X83900Y-37833D03*
X82900Y-37333D03*
X83900Y-36833D03*
X82900Y-36333D03*
G54D12*
X87600Y-35083D03*
G54D16*
X50915Y-35393D03*
X50915Y-35590D03*
X50915Y-35787D03*
X50915Y-35984D03*
X50915Y-36181D03*
X50915Y-34803D03*
X50915Y-35000D03*
X50915Y-35196D03*
X50915Y-37952D03*
X50915Y-38149D03*
X50915Y-38346D03*
X50915Y-38543D03*
X50915Y-38740D03*
X50915Y-38937D03*
X50915Y-39330D03*
G54D17*
X52953Y-40187D03*
X53150Y-40187D03*
X53346Y-40187D03*
X53543Y-40187D03*
X53740Y-40187D03*
X53937Y-40187D03*
X54134Y-40187D03*
X54331Y-40187D03*
X56102Y-40187D03*
X56299Y-40187D03*
G54D16*
X56959Y-39527D03*
X56959Y-39330D03*
X50915Y-36378D03*
X50915Y-36574D03*
X50915Y-36771D03*
X50915Y-39527D03*
G54D17*
X51575Y-40187D03*
X51772Y-40187D03*
X54528Y-40187D03*
X54724Y-40187D03*
X54921Y-40187D03*
G54D16*
X50915Y-36968D03*
X50915Y-37165D03*
X50915Y-37362D03*
X50915Y-37559D03*
X50915Y-37756D03*
G54D17*
X51968Y-40187D03*
X52165Y-40187D03*
X52362Y-40187D03*
X52559Y-40187D03*
X52756Y-40187D03*
X55118Y-40187D03*
X55315Y-40187D03*
X55512Y-40187D03*
X55709Y-40187D03*
X55906Y-40187D03*
G54D16*
X56959Y-37756D03*
X56959Y-37559D03*
X56959Y-37362D03*
X56959Y-36771D03*
X56959Y-36574D03*
X56959Y-36378D03*
X56959Y-36181D03*
X56959Y-35984D03*
X56959Y-35787D03*
X56959Y-35590D03*
X56959Y-35393D03*
X56959Y-35196D03*
X56959Y-35000D03*
X56959Y-34803D03*
G54D17*
X56299Y-34143D03*
X56102Y-34143D03*
X55906Y-34143D03*
X55709Y-34143D03*
X55512Y-34143D03*
X55315Y-34143D03*
X55118Y-34143D03*
X54921Y-34143D03*
X54724Y-34143D03*
X54528Y-34143D03*
X54331Y-34143D03*
X54134Y-34143D03*
X53937Y-34143D03*
X53740Y-34143D03*
X53543Y-34143D03*
X53346Y-34143D03*
X53150Y-34143D03*
X52953Y-34143D03*
X52756Y-34143D03*
X52559Y-34143D03*
X52362Y-34143D03*
X52165Y-34143D03*
X51968Y-34143D03*
X51772Y-34143D03*
X51575Y-34143D03*
G54D18*
X44330Y-44290D03*
G54D19*
X44330Y-46890D03*
X45230Y-46890D03*
X43430Y-46890D03*
G54D20*
X30196Y-32086D03*
G54D21*
X32165Y-32086D03*
G54D22*
X31141Y-28444D03*
G54D23*
X31141Y-27460D03*
G54D24*
X66525Y-35787D03*
X65443Y-35787D03*
X69005Y-34842D03*
X67923Y-34842D03*
G54D15*
X85732Y-42716D03*
X87732Y-42716D03*
G54D25*
X61922Y-21369D03*
X61922Y-22469D03*
X60922Y-22869D03*
X60922Y-23969D03*
X73122Y-21369D03*
X73122Y-22469D03*
X72122Y-22869D03*
X72122Y-23969D03*
X67522Y-21369D03*
X67522Y-22469D03*
X66522Y-22869D03*
X66522Y-23969D03*
G54D26*
X48738Y-43937D03*
X47638Y-43937D03*
X52833Y-43937D03*
X51733Y-43937D03*
G54D22*
X34133Y-38838D03*
G54D23*
X34133Y-37854D03*
G54D22*
X34625Y-35590D03*
G54D23*
X33641Y-35590D03*
G54D25*
X47834Y-46612D03*
X47834Y-45512D03*
G54D26*
X53187Y-45157D03*
X52087Y-45157D03*
G54D27*
X46259Y-49222D03*
X46259Y-48022D03*
G54D28*
X53355Y-46968D03*
X52155Y-46968D03*
G54D20*
X29566Y-44173D03*
G54D21*
X31535Y-44173D03*
G54D20*
X31535Y-48385D03*
G54D21*
X29566Y-48385D03*
G54D26*
X44880Y-48070D03*
X43780Y-48070D03*
G54D22*
X47460Y-42007D03*
G54D23*
X48444Y-42007D03*
G54D29*
X36811Y-45409D03*
X36811Y-43409D03*
X34133Y-45409D03*
X34133Y-43409D03*
G54D28*
X46820Y-40275D03*
X45620Y-40275D03*
X46820Y-38897D03*
X45620Y-38897D03*
G54D25*
X55787Y-41300D03*
X55787Y-42400D03*
X58897Y-34920D03*
X58897Y-33820D03*
G54D30*
X68748Y-51007D03*
X68748Y-49551D03*
X68748Y-48566D03*
X68748Y-47110D03*
G54D29*
X27047Y-44440D03*
X27047Y-40440D03*
X25826Y-38000D03*
X25826Y-42000D03*
G54D31*
X37539Y-42322D03*
X36083Y-42322D03*
X34861Y-42322D03*
X33405Y-42322D03*
G54D29*
X26181Y-29637D03*
X26181Y-35637D03*
X72748Y-33228D03*
X78748Y-33228D03*
X58267Y-22212D03*
X58267Y-16212D03*
X40700Y-27834D03*
X46700Y-27834D03*
G54D32*
X64248Y-49775D03*
X64248Y-50775D03*
X67248Y-50775D03*
X67248Y-49775D03*
X64248Y-47334D03*
X64248Y-48334D03*
X67248Y-48334D03*
X67248Y-47334D03*
G54D33*
X50090Y-31968D03*
G54D34*
X51090Y-31968D03*
G54D33*
X56338Y-30287D03*
G54D34*
X56338Y-31287D03*
G54D35*
X63496Y-30190D03*
G54D36*
X63496Y-31384D03*
X62496Y-30190D03*
X62496Y-31384D03*
X61496Y-30190D03*
X61496Y-31384D03*
X60496Y-30190D03*
X60496Y-31384D03*
X59496Y-30190D03*
X59496Y-31384D03*
G54D35*
X34968Y-19022D03*
G54D36*
X34968Y-17828D03*
X35968Y-19022D03*
X35968Y-17828D03*
X36968Y-19022D03*
X36968Y-17828D03*
X37968Y-19022D03*
X37968Y-17828D03*
X38968Y-19022D03*
X38968Y-17828D03*
G54D37*
X71630Y-29490D03*
G54D38*
X70630Y-29490D03*
X69630Y-29490D03*
X68630Y-29490D03*
X67630Y-29490D03*
X66630Y-29490D03*
G54D35*
X66222Y-17822D03*
G54D36*
X66222Y-19016D03*
X65222Y-17822D03*
X65222Y-19016D03*
X64222Y-17822D03*
X64222Y-19016D03*
X63222Y-17822D03*
X63222Y-19016D03*
X62222Y-17822D03*
X62222Y-19016D03*
G54D35*
X76672Y-17822D03*
G54D36*
X76672Y-19016D03*
X75672Y-17822D03*
X75672Y-19016D03*
X74672Y-17822D03*
X74672Y-19016D03*
X73672Y-17822D03*
X73672Y-19016D03*
X72672Y-17822D03*
X72672Y-19016D03*
G54D39*
X44297Y-24614D03*
G54D40*
X43103Y-24614D03*
X44297Y-23614D03*
X43103Y-23614D03*
X44297Y-22614D03*
X43103Y-22614D03*
X44297Y-21614D03*
X43103Y-21614D03*
X44297Y-20614D03*
X43103Y-20614D03*
X44297Y-19614D03*
X43103Y-19614D03*
X44297Y-18614D03*
X43103Y-18614D03*
G54D39*
X53930Y-18614D03*
G54D40*
X55124Y-18614D03*
X53930Y-19614D03*
X55124Y-19614D03*
X53930Y-20614D03*
X55124Y-20614D03*
X53930Y-21614D03*
X55124Y-21614D03*
X53930Y-22614D03*
X55124Y-22614D03*
X53930Y-23614D03*
X55124Y-23614D03*
X53930Y-24614D03*
X55124Y-24614D03*
G54D41*
X71681Y-50778D03*
G54D42*
X70681Y-50778D03*
G54D41*
X74003Y-50778D03*
G54D42*
X73003Y-50778D03*
G54D41*
X76326Y-50778D03*
G54D42*
X75326Y-50778D03*
G54D41*
X78649Y-50778D03*
G54D42*
X77649Y-50778D03*
G54D41*
X49358Y-49045D03*
G54D42*
X48358Y-49045D03*
G54D41*
X51681Y-49045D03*
G54D42*
X50681Y-49045D03*
G54D41*
X39988Y-48061D03*
G54D42*
X38988Y-48061D03*
G54D25*
X26181Y-22794D03*
X26181Y-21694D03*
G54D26*
X31694Y-23228D03*
X32794Y-23228D03*
X35983Y-21220D03*
X34883Y-21220D03*
X37953Y-21220D03*
X39053Y-21220D03*
X75500Y-39987D03*
X74400Y-39987D03*
G54D25*
X80100Y-32833D03*
X80100Y-33933D03*
G54D26*
X75500Y-38687D03*
X74400Y-38687D03*
X82600Y-33283D03*
X83700Y-33283D03*
X75500Y-37487D03*
X74400Y-37487D03*
X75500Y-36187D03*
X74400Y-36187D03*
X82600Y-32383D03*
X83700Y-32383D03*
G54D25*
X80750Y-42083D03*
X80750Y-43183D03*
X83600Y-42083D03*
X83600Y-43183D03*
X81700Y-42083D03*
X81700Y-43183D03*
X82650Y-42083D03*
X82650Y-43183D03*
X59448Y-50001D03*
X59448Y-51101D03*
G54D26*
X60398Y-51079D03*
X61498Y-51079D03*
G54D25*
X59448Y-47560D03*
X59448Y-48660D03*
G54D26*
X60398Y-48638D03*
X61498Y-48638D03*
X75198Y-46456D03*
X76298Y-46456D03*
G54D25*
X73818Y-46416D03*
X73818Y-45316D03*
G54D26*
X74213Y-48031D03*
X75313Y-48031D03*
G54D25*
X70118Y-46061D03*
X70118Y-44961D03*
X62948Y-50829D03*
X62948Y-49729D03*
X62948Y-48388D03*
X62948Y-47288D03*
X71220Y-44959D03*
X71220Y-43859D03*
G54D26*
X76298Y-45472D03*
X75198Y-45472D03*
G54D25*
X49685Y-42835D03*
X49685Y-43935D03*
X50787Y-42835D03*
X50787Y-43935D03*
G54D26*
X36261Y-41299D03*
X37361Y-41299D03*
X33583Y-41299D03*
X34683Y-41299D03*
G54D10*
G36*
X60291Y-39954D02*
X60793Y-40456D01*
X60348Y-40902D01*
X59845Y-40399D01*
X60291Y-39954D01*
X60291Y-39954D01*
G37*
G36*
X61069Y-39176D02*
X61571Y-39678D01*
X61125Y-40124D01*
X60623Y-39622D01*
X61069Y-39176D01*
X61069Y-39176D01*
G37*
G54D25*
X50039Y-29880D03*
X50039Y-28780D03*
G54D43*
X70590Y-37358D03*
X70393Y-37358D03*
X70196Y-37358D03*
X70000Y-37358D03*
X69606Y-37358D03*
G54D44*
X69366Y-37598D03*
X69366Y-37795D03*
X69366Y-37992D03*
X69366Y-38188D03*
G54D45*
X69842Y-37834D03*
X70354Y-37834D03*
X70354Y-38346D03*
X69842Y-38346D03*
G54D44*
X69366Y-38385D03*
X69366Y-38582D03*
G54D43*
X69606Y-38822D03*
X69803Y-38822D03*
X70000Y-38822D03*
X70196Y-38822D03*
X70393Y-38822D03*
X70590Y-38822D03*
G54D44*
X70830Y-38582D03*
X70830Y-38385D03*
G54D43*
X69803Y-37358D03*
G54D44*
X70830Y-38188D03*
X70830Y-37992D03*
X70830Y-37795D03*
X70830Y-37598D03*
G54D46*
X63122Y-21669D03*
X63122Y-22169D03*
X63122Y-22669D03*
X63122Y-23169D03*
X63122Y-23669D03*
X63122Y-24169D03*
X63122Y-24669D03*
X63122Y-25169D03*
X65322Y-25169D03*
X65322Y-24669D03*
X65322Y-24169D03*
X65322Y-23669D03*
X65322Y-23169D03*
X65322Y-22669D03*
X65322Y-22169D03*
X65322Y-21669D03*
X68722Y-21669D03*
X68722Y-22169D03*
X68722Y-22669D03*
X68722Y-23169D03*
X68722Y-23669D03*
X68722Y-24169D03*
X68722Y-24669D03*
X68722Y-25169D03*
X70922Y-25169D03*
X70922Y-24669D03*
X70922Y-24169D03*
X70922Y-23669D03*
X70922Y-23169D03*
X70922Y-22669D03*
X70922Y-22169D03*
X70922Y-21669D03*
X74322Y-21669D03*
X74322Y-22169D03*
X74322Y-22669D03*
X74322Y-23169D03*
X74322Y-23669D03*
X74322Y-24169D03*
X74322Y-24669D03*
X74322Y-25169D03*
X76522Y-25169D03*
X76522Y-24669D03*
X76522Y-24169D03*
X76522Y-23669D03*
X76522Y-23169D03*
X76522Y-22669D03*
X76522Y-22169D03*
X76522Y-21669D03*
X28348Y-21728D03*
X28348Y-22228D03*
X28348Y-22728D03*
X28348Y-23228D03*
X28348Y-23728D03*
X28348Y-24228D03*
X28348Y-24728D03*
X30548Y-24728D03*
X30548Y-24228D03*
X30548Y-23728D03*
X30548Y-23228D03*
X30548Y-22728D03*
X30548Y-22228D03*
X30548Y-21728D03*
X50786Y-26935D03*
X50786Y-26435D03*
X50786Y-25935D03*
X50786Y-25435D03*
X50786Y-24935D03*
X50786Y-24435D03*
X50786Y-23935D03*
X48586Y-23935D03*
X48586Y-24435D03*
X48586Y-24935D03*
X48586Y-25435D03*
X48586Y-25935D03*
X48586Y-26435D03*
X48586Y-26935D03*
X49836Y-20335D03*
X49836Y-19835D03*
X49836Y-19335D03*
X49836Y-18835D03*
X49836Y-18335D03*
X49836Y-17835D03*
X49836Y-17335D03*
X47636Y-17335D03*
X47636Y-17835D03*
X47636Y-18335D03*
X47636Y-18835D03*
X47636Y-19335D03*
X47636Y-19835D03*
X47636Y-20335D03*
G54D47*
X41811Y-33425D03*
X41811Y-35078D03*
X40157Y-35078D03*
X40157Y-33425D03*
X38503Y-33425D03*
X38503Y-35078D03*
X36850Y-33425D03*
X36850Y-35078D03*
G54D48*
X77950Y-36337D03*
X77950Y-36837D03*
X77950Y-37337D03*
X77950Y-39837D03*
X77950Y-39337D03*
X77950Y-38837D03*
X77950Y-38337D03*
X77950Y-37837D03*
X81250Y-37837D03*
X81250Y-38337D03*
X81250Y-38837D03*
X81250Y-39337D03*
X81250Y-39837D03*
X81250Y-37337D03*
X81250Y-36837D03*
X81250Y-36337D03*
G54D49*
X68900Y-33237D03*
X70900Y-33237D03*
G54D50*
X48759Y-35944D03*
X48326Y-35944D03*
G54D51*
X48543Y-32401D03*
G54D25*
X50511Y-22242D03*
X50511Y-21142D03*
G54D26*
X46418Y-26181D03*
X47518Y-26181D03*
X46418Y-24921D03*
X47518Y-24921D03*
X46418Y-23700D03*
X47518Y-23700D03*
X51986Y-17835D03*
X50886Y-17835D03*
X51986Y-18835D03*
X50886Y-18835D03*
X48536Y-21110D03*
X49636Y-21110D03*
G54D25*
X51496Y-19843D03*
X51496Y-20943D03*
G54D26*
X48544Y-22283D03*
X49644Y-22283D03*
G54D25*
X71732Y-39056D03*
X71732Y-40156D03*
X71003Y-36691D03*
X71003Y-35591D03*
X72250Y-37137D03*
X72250Y-36037D03*
G54D52*
X67459Y-38622D03*
X68209Y-38622D03*
X67459Y-39370D03*
X68209Y-39370D03*
X67459Y-40393D03*
X68209Y-40393D03*
X69125Y-35833D03*
X68375Y-35833D03*
G54D53*
X60078Y-33404D03*
X60078Y-34154D03*
G54D52*
X51752Y-41102D03*
X51002Y-41102D03*
G54D53*
X56614Y-41239D03*
X56614Y-41989D03*
G54D52*
X57223Y-33818D03*
X57973Y-33818D03*
G54D53*
X50590Y-33878D03*
X50590Y-33128D03*
G54D26*
X66930Y-37519D03*
X68030Y-37519D03*
X66930Y-36653D03*
X68030Y-36653D03*
G54D23*
X86250Y-33383D03*
X86250Y-32383D03*
X85250Y-32383D03*
X85250Y-33383D03*
G54D25*
X81250Y-32283D03*
X81250Y-33383D03*
G54D54*
X25393Y-17165D03*
G54D15*
X25393Y-16062D03*
X26338Y-16614D03*
X26338Y-17716D03*
X25393Y-18267D03*
X24448Y-17716D03*
X24448Y-16614D03*
G54D54*
X25393Y-48661D03*
G54D15*
X25393Y-47559D03*
X26338Y-48110D03*
X26338Y-49212D03*
X25393Y-49763D03*
X24448Y-49212D03*
X24448Y-48110D03*
G54D54*
X82480Y-48661D03*
G54D15*
X82480Y-47559D03*
X83425Y-48110D03*
X83425Y-49212D03*
X82480Y-49763D03*
X81535Y-49212D03*
X81535Y-48110D03*
G54D54*
X82480Y-17165D03*
G54D15*
X82480Y-16062D03*
X83425Y-16614D03*
X83425Y-17716D03*
X82480Y-18267D03*
X81535Y-17716D03*
X81535Y-16614D03*
G54D25*
X51574Y-27835D03*
X51574Y-28935D03*
G54D26*
X52402Y-28937D03*
X53502Y-28937D03*
X51024Y-29842D03*
X52124Y-29842D03*
X55749Y-32598D03*
X56849Y-32598D03*
G54D29*
X39488Y-45409D03*
X39488Y-43409D03*
G54D31*
X40216Y-42322D03*
X38760Y-42322D03*
G54D42*
X33972Y-48061D03*
X34972Y-48061D03*
G54D41*
X36972Y-48061D03*
G54D42*
X35972Y-48061D03*
G54D26*
X38938Y-41299D03*
X40038Y-41299D03*
G54D53*
X49803Y-34546D03*
X49803Y-35296D03*
G54D52*
X58918Y-39251D03*
X58168Y-39251D03*
X58918Y-40039D03*
X58168Y-40039D03*
X58918Y-40826D03*
X58168Y-40826D03*
G54D55*
X61771Y-49881D03*
X60905Y-50256D03*
X60905Y-49506D03*
G54D26*
X76298Y-43188D03*
X75198Y-43188D03*
X75198Y-44173D03*
X76298Y-44173D03*
G54D25*
X73818Y-44329D03*
X73818Y-43229D03*
G54D26*
X32794Y-24960D03*
X31694Y-24960D03*
G54D55*
X61771Y-47440D03*
X60905Y-47815D03*
X60905Y-47065D03*
X72047Y-45866D03*
X72913Y-45491D03*
X72913Y-46241D03*
X72047Y-43779D03*
X72913Y-43404D03*
X72913Y-44154D03*
G54D25*
X66062Y-39172D03*
X66062Y-38072D03*
G54D53*
X54055Y-41239D03*
X54055Y-41989D03*
G54D46*
X51100Y-46419D03*
X51100Y-45919D03*
X51100Y-45419D03*
X51100Y-44919D03*
X48900Y-44919D03*
X48900Y-45419D03*
X48900Y-45919D03*
X48900Y-46419D03*
G54D52*
X49587Y-47165D03*
X48837Y-47165D03*
X50412Y-47165D03*
X51162Y-47165D03*
G54D56*
X34724Y-28267D03*
X34724Y-27267D03*
X34724Y-29267D03*
G54D57*
X45905Y-35354D03*
X45905Y-31417D03*
X44409Y-33385D03*
G54D29*
X31102Y-18663D03*
X31102Y-17163D03*
G54D58*
X31062Y-40787D03*
X31964Y-40787D03*
X30160Y-40787D03*
X31062Y-35590D03*
X30160Y-35590D03*
X31964Y-35590D03*
G54D33*
X70630Y-28490D03*
G54D34*
X69630Y-28490D03*
G54D29*
X31055Y-39212D03*
X27055Y-39212D03*
X27055Y-38031D03*
X31055Y-38031D03*
X42330Y-38818D03*
X36330Y-38818D03*
X42330Y-37086D03*
X36330Y-37086D03*
G54D25*
X49448Y-39723D03*
X49448Y-38623D03*
X48543Y-39723D03*
X48543Y-38623D03*
G54D53*
X47696Y-39211D03*
X47696Y-39961D03*
G54D59*
X35472Y-43779D03*
X38149Y-43779D03*
X46370Y-43987D03*
X46370Y-45587D03*
X46370Y-44787D03*
X46370Y-43187D03*
X43070Y-42387D03*
X43870Y-42387D03*
X44770Y-42387D03*
X45570Y-42387D03*
X46370Y-42387D03*
X42270Y-43987D03*
X42270Y-43187D03*
X42270Y-42387D03*
X42270Y-45587D03*
X42270Y-44787D03*
G54D15*
X44015Y-16496D03*
X43149Y-16496D03*
X42283Y-16496D03*
X44881Y-16496D03*
G54D59*
X29448Y-21299D03*
X33976Y-21220D03*
X39960Y-21220D03*
G54D50*
X78750Y-36337D03*
X78850Y-36837D03*
X78850Y-39337D03*
X76350Y-38487D03*
X76350Y-37687D03*
X78750Y-38837D03*
X78750Y-39837D03*
X78750Y-37337D03*
X76250Y-35587D03*
X76250Y-36187D03*
X76250Y-40587D03*
X76250Y-39987D03*
X76050Y-38087D03*
X76650Y-38087D03*
X54133Y-38188D03*
X54094Y-38897D03*
X54133Y-36692D03*
X53188Y-36692D03*
G54D15*
X63385Y-39173D03*
X63385Y-36653D03*
X64133Y-37165D03*
X64133Y-39173D03*
G54D50*
X54566Y-38897D03*
X54566Y-37992D03*
X55039Y-38897D03*
X55000Y-37795D03*
G54D59*
X70944Y-19645D03*
X69724Y-19645D03*
X69094Y-19645D03*
X67913Y-19645D03*
X73597Y-20419D03*
X66522Y-21369D03*
X72122Y-21369D03*
X77722Y-21369D03*
G54D50*
X71653Y-26732D03*
X71653Y-27519D03*
G54D59*
X49527Y-27598D03*
X49527Y-26968D03*
X48543Y-23149D03*
X49173Y-23149D03*
X48536Y-20335D03*
G54D50*
X37440Y-31102D03*
X37440Y-29921D03*
X62322Y-36338D03*
X62322Y-34330D03*
X61417Y-34645D03*
X61417Y-36338D03*
X68149Y-28307D03*
X67125Y-28307D03*
X58622Y-49173D03*
X56968Y-49173D03*
X58622Y-46732D03*
X56968Y-46732D03*
X58622Y-44960D03*
X56968Y-44960D03*
X58622Y-43858D03*
X56968Y-43858D03*
G54D59*
X47696Y-38543D03*
G54D50*
X50275Y-38444D03*
G54D59*
X47637Y-43110D03*
G54D15*
X42834Y-48031D03*
X42086Y-48031D03*
G54D59*
X44763Y-40275D03*
X44763Y-39586D03*
X44763Y-38897D03*
X47204Y-48031D03*
X53346Y-47952D03*
X47834Y-44724D03*
X53188Y-45984D03*
X52834Y-43149D03*
X73149Y-35157D03*
G54D50*
X52086Y-34803D03*
X52519Y-34803D03*
X51968Y-39527D03*
X52401Y-39527D03*
G54D59*
X56614Y-42677D03*
X55787Y-43149D03*
G54D50*
X27480Y-21929D03*
G54D59*
X65433Y-35039D03*
X64645Y-35787D03*
G54D50*
X50157Y-28110D03*
G54D59*
X29448Y-25157D03*
G54D50*
X49881Y-36692D03*
X50314Y-36692D03*
X49803Y-35787D03*
X54055Y-42598D03*
G54D59*
X61692Y-40236D03*
G54D60*
X62204Y-51102D03*
X62204Y-48661D03*
G54D50*
X74527Y-43228D03*
X74527Y-45314D03*
X56299Y-35236D03*
X56299Y-35669D03*
G54D59*
X67165Y-34842D03*
X67913Y-34173D03*
X50511Y-23149D03*
X49881Y-23149D03*
X68779Y-36574D03*
X75850Y-34383D03*
X76500Y-34383D03*
G54D50*
X70354Y-38346D03*
X70354Y-37834D03*
G54D59*
X71732Y-40866D03*
X71732Y-35157D03*
X72362Y-35157D03*
G54D50*
X69842Y-38346D03*
X69842Y-37834D03*
G54D59*
X66272Y-22044D03*
X71872Y-22044D03*
X77597Y-22169D03*
X48936Y-17335D03*
X49861Y-23935D03*
X63422Y-21019D03*
X61922Y-25069D03*
X69022Y-21019D03*
X67522Y-25069D03*
X74472Y-21019D03*
X73122Y-25069D03*
X75314Y-47244D03*
G54D50*
X53661Y-34803D03*
X53661Y-35748D03*
G54D59*
X51062Y-40039D03*
G54D50*
X49881Y-33031D03*
X51496Y-36771D03*
X52165Y-38346D03*
G54D59*
X68818Y-38110D03*
G54D61*
X49448Y-39723D02*
X49646Y-39723D01*
X50432Y-38937D02*
X50915Y-38937D01*
X49646Y-39723D02*
X50432Y-38937D01*
G54D62*
X47460Y-40915D02*
X48926Y-40915D01*
X49448Y-40393D02*
X49448Y-39723D01*
X48926Y-40915D02*
X49448Y-40393D01*
X47460Y-42007D02*
X47460Y-40915D01*
X47460Y-40915D02*
X46820Y-40275D01*
G54D63*
X47696Y-39961D02*
X47134Y-39961D01*
X47134Y-39961D02*
X46820Y-40275D01*
G54D64*
X33405Y-42322D02*
X33405Y-41477D01*
X33405Y-41477D02*
X33583Y-41299D01*
X38760Y-42322D02*
X38149Y-42933D01*
X38149Y-42933D02*
X38149Y-43779D01*
X38149Y-43779D02*
X38149Y-44409D01*
X36083Y-42322D02*
X35472Y-42933D01*
X35472Y-42933D02*
X35472Y-43779D01*
X35472Y-43779D02*
X35472Y-44409D01*
X36261Y-41299D02*
X36083Y-41477D01*
X36083Y-41477D02*
X36083Y-42322D01*
X38938Y-41299D02*
X38760Y-41477D01*
X38760Y-41477D02*
X38760Y-42322D01*
X33405Y-42322D02*
X32952Y-42775D01*
X32952Y-42775D02*
X32952Y-43937D01*
X32952Y-43937D02*
X33425Y-44409D01*
X33425Y-44409D02*
X35472Y-44409D01*
X35472Y-44409D02*
X38149Y-44409D01*
X38149Y-44409D02*
X42270Y-44409D01*
X46370Y-43987D02*
X46370Y-44787D01*
X46370Y-45587D02*
X44320Y-45587D01*
G54D62*
X46370Y-42401D02*
X47066Y-42401D01*
X47066Y-42401D02*
X47460Y-42007D01*
G54D64*
X46370Y-42387D02*
X46370Y-42401D01*
X43070Y-42387D02*
X43870Y-42387D01*
X44770Y-42387D02*
X45570Y-42387D01*
X42270Y-44409D02*
X42270Y-43987D01*
X42270Y-43187D02*
X42270Y-42387D01*
X46370Y-42401D02*
X46370Y-43187D01*
X44320Y-45587D02*
X42270Y-45587D01*
X42270Y-44787D02*
X42270Y-44409D01*
X44320Y-46887D02*
X44320Y-45587D01*
X44320Y-45587D02*
X44320Y-44287D01*
G54D65*
X30196Y-32086D02*
X30196Y-29637D01*
X30196Y-29637D02*
X33551Y-29637D01*
X26181Y-29637D02*
X30196Y-29637D01*
G54D66*
X44881Y-16496D02*
X45236Y-16141D01*
X54027Y-16901D02*
X53267Y-16141D01*
X53267Y-16141D02*
X45236Y-16141D01*
X54027Y-16901D02*
X54027Y-18614D01*
X42283Y-16496D02*
X41889Y-16889D01*
X41889Y-25433D02*
X41889Y-16889D01*
X42322Y-25866D02*
X41889Y-25433D01*
X43779Y-25866D02*
X42322Y-25866D01*
X44200Y-25444D02*
X43779Y-25866D01*
X44200Y-25444D02*
X44200Y-24614D01*
G54D67*
X42283Y-16496D02*
X43149Y-16496D01*
X43149Y-16496D02*
X44015Y-16496D01*
X44015Y-16496D02*
X44881Y-16496D01*
G54D66*
X44200Y-23614D02*
X44200Y-24614D01*
X54027Y-18614D02*
X54027Y-19614D01*
X34724Y-29267D02*
X33921Y-29267D01*
X33921Y-29267D02*
X33551Y-29637D01*
G54D62*
X31964Y-40787D02*
X31964Y-41775D01*
X31964Y-41775D02*
X29566Y-44173D01*
G54D64*
X44880Y-48070D02*
X44881Y-48072D01*
X44881Y-48072D02*
X44881Y-49212D01*
X31023Y-49409D02*
X44685Y-49409D01*
X44685Y-49409D02*
X44881Y-49212D01*
X31023Y-49409D02*
X30551Y-48937D01*
X30551Y-48937D02*
X30551Y-45157D01*
X29566Y-44173D02*
X30551Y-45157D01*
X46250Y-49212D02*
X46259Y-49222D01*
X44881Y-49212D02*
X46250Y-49212D01*
X47834Y-46612D02*
X47834Y-48346D01*
X46959Y-49222D02*
X46259Y-49222D01*
X47834Y-48346D02*
X46959Y-49222D01*
X45230Y-46890D02*
X45230Y-47720D01*
X45230Y-47720D02*
X44880Y-48070D01*
G54D63*
X48900Y-46419D02*
X48028Y-46419D01*
G54D68*
X48028Y-46419D02*
X47834Y-46612D01*
G54D62*
X30160Y-35590D02*
X28110Y-37641D01*
X29566Y-46574D02*
X29566Y-48385D01*
X28110Y-45118D02*
X29566Y-46574D01*
X28110Y-37641D02*
X28110Y-45118D01*
G54D64*
X52283Y-50000D02*
X30314Y-50000D01*
X52637Y-48425D02*
X52155Y-47943D01*
X52637Y-48425D02*
X52637Y-49645D01*
X52637Y-49645D02*
X52283Y-50000D01*
X52155Y-46968D02*
X52155Y-47943D01*
X29566Y-49251D02*
X29566Y-48267D01*
X30314Y-50000D02*
X29566Y-49251D01*
X52087Y-45157D02*
X52087Y-46900D01*
G54D68*
X52087Y-46900D02*
X52155Y-46968D01*
G54D63*
X51100Y-44919D02*
X51849Y-44919D01*
X51849Y-44919D02*
X52087Y-45157D01*
G54D65*
X36850Y-33425D02*
X28393Y-33425D01*
X28393Y-33425D02*
X26181Y-35637D01*
X36850Y-35078D02*
X36850Y-33425D01*
G54D62*
X43267Y-37881D02*
X43267Y-34212D01*
X42330Y-38818D02*
X43267Y-37881D01*
X42480Y-33425D02*
X41811Y-33425D01*
X43267Y-34212D02*
X42480Y-33425D01*
X34133Y-38838D02*
X34114Y-38818D01*
X32480Y-39212D02*
X31055Y-39212D01*
X32874Y-38818D02*
X32480Y-39212D01*
X34114Y-38818D02*
X32874Y-38818D01*
X36330Y-38818D02*
X34153Y-38818D01*
X34153Y-38818D02*
X34133Y-38838D01*
X31055Y-39212D02*
X31062Y-39220D01*
X31062Y-40787D02*
X31062Y-39220D01*
X41811Y-35078D02*
X41811Y-36566D01*
X41811Y-36566D02*
X42330Y-37086D01*
X31062Y-37086D02*
X32795Y-37086D01*
X32795Y-37086D02*
X33641Y-36240D01*
X36330Y-37086D02*
X34488Y-37086D01*
X34488Y-37086D02*
X33641Y-36240D01*
X33641Y-36240D02*
X33641Y-35590D01*
X31055Y-38031D02*
X31062Y-38023D01*
X31062Y-38023D02*
X31062Y-37086D01*
X31062Y-37086D02*
X31062Y-35590D01*
G54D11*
X51889Y-42244D02*
X50276Y-42244D01*
X52165Y-41968D02*
X51889Y-42244D01*
X52165Y-40187D02*
X52165Y-41968D01*
X50276Y-42244D02*
X49685Y-42835D01*
X52362Y-40187D02*
X52362Y-42362D01*
X51888Y-42835D02*
X50787Y-42835D01*
X52362Y-42362D02*
X51888Y-42835D01*
G54D62*
X31102Y-18663D02*
X33976Y-18663D01*
G54D68*
X30548Y-21728D02*
X31066Y-21728D01*
G54D62*
X31102Y-21338D02*
X31102Y-18663D01*
G54D68*
X31102Y-21692D02*
X31102Y-21338D01*
X31066Y-21728D02*
X31102Y-21692D01*
X30548Y-21728D02*
X29877Y-21728D01*
G54D62*
X29763Y-21614D02*
X29448Y-21299D01*
G54D68*
X29877Y-21728D02*
X29763Y-21614D01*
G54D62*
X39053Y-21220D02*
X39960Y-21220D01*
X34883Y-21220D02*
X33976Y-21220D01*
X33976Y-17047D02*
X34251Y-16771D01*
X39960Y-17047D02*
X39960Y-21220D01*
X39685Y-16771D02*
X39960Y-17047D01*
X34251Y-16771D02*
X39685Y-16771D01*
X33976Y-18663D02*
X33976Y-17047D01*
X33976Y-21220D02*
X33976Y-18663D01*
G54D61*
X30548Y-22228D02*
X35566Y-22228D01*
X35566Y-22228D02*
X35983Y-21812D01*
X35983Y-21812D02*
X35983Y-21220D01*
G54D63*
X35968Y-18925D02*
X35968Y-21205D01*
X35968Y-21205D02*
X35983Y-21220D01*
G54D61*
X30548Y-24228D02*
X37110Y-24228D01*
X37110Y-24228D02*
X37953Y-23384D01*
X37953Y-23384D02*
X37953Y-21220D01*
G54D63*
X37968Y-18925D02*
X37968Y-21205D01*
X37968Y-21205D02*
X37953Y-21220D01*
X32834Y-23228D02*
X36141Y-23228D01*
X36968Y-22401D02*
X36968Y-18925D01*
X36141Y-23228D02*
X36968Y-22401D01*
G54D61*
X81250Y-32283D02*
X82500Y-32283D01*
X82500Y-32283D02*
X82600Y-32383D01*
X76498Y-32285D02*
X81248Y-32285D01*
X81248Y-32285D02*
X81250Y-32283D01*
X74300Y-34483D02*
X76498Y-32285D01*
X70650Y-34483D02*
X74300Y-34483D01*
G54D11*
X70196Y-34936D02*
X70196Y-37358D01*
X70650Y-34483D02*
X70196Y-34936D01*
G54D61*
X79591Y-32833D02*
X80100Y-32833D01*
X79291Y-32533D02*
X79591Y-32833D01*
X79291Y-32533D02*
X76650Y-32533D01*
X80100Y-32833D02*
X81700Y-32833D01*
X81700Y-32833D02*
X82150Y-33283D01*
X82150Y-33283D02*
X82600Y-33283D01*
X74446Y-34737D02*
X70750Y-34737D01*
X76650Y-32533D02*
X74446Y-34737D01*
G54D11*
X70393Y-37358D02*
X70393Y-35093D01*
X70393Y-35093D02*
X70750Y-34737D01*
G54D63*
X73700Y-40587D02*
X72169Y-39056D01*
X72169Y-39056D02*
X71732Y-39056D01*
X76250Y-40587D02*
X73700Y-40587D01*
X75500Y-38687D02*
X76150Y-38687D01*
X76150Y-38687D02*
X76350Y-38487D01*
X76350Y-38487D02*
X76350Y-38087D01*
X75500Y-37487D02*
X76150Y-37487D01*
X76150Y-37487D02*
X76350Y-37687D01*
X76350Y-37687D02*
X76350Y-38087D01*
G54D61*
X70830Y-38582D02*
X71199Y-38582D01*
X71199Y-38582D02*
X71653Y-39036D01*
X70590Y-37358D02*
X70590Y-37105D01*
X70590Y-37105D02*
X71003Y-36691D01*
G54D63*
X73700Y-35587D02*
X76250Y-35587D01*
X73350Y-35937D02*
X73700Y-35587D01*
X73350Y-36237D02*
X73350Y-35937D01*
X73000Y-36587D02*
X73350Y-36237D01*
X71100Y-36587D02*
X73000Y-36587D01*
X71000Y-36687D02*
X71100Y-36587D01*
X76250Y-40587D02*
X78350Y-40587D01*
X78350Y-40587D02*
X78750Y-40187D01*
X78750Y-40187D02*
X78750Y-39837D01*
X78850Y-39337D02*
X78750Y-38837D01*
X78750Y-39837D02*
X78850Y-39337D01*
G54D11*
X78850Y-39337D02*
X77950Y-39337D01*
G54D63*
X76250Y-35587D02*
X78350Y-35587D01*
X78750Y-36337D02*
X78850Y-36837D01*
X78750Y-35987D02*
X78750Y-36337D01*
X78350Y-35587D02*
X78750Y-35987D01*
X78850Y-36837D02*
X78750Y-37337D01*
G54D11*
X78850Y-36837D02*
X77950Y-36837D01*
G54D63*
X75500Y-36187D02*
X76250Y-36187D01*
X76250Y-35587D02*
X76250Y-36187D01*
X76250Y-39987D02*
X75500Y-39987D01*
X76250Y-39987D02*
X76250Y-40587D01*
X76350Y-38087D02*
X76050Y-38087D01*
X76650Y-38087D02*
X76350Y-38087D01*
G54D11*
X54094Y-39212D02*
X54094Y-38897D01*
X54291Y-38346D02*
X64960Y-38346D01*
X54133Y-38188D02*
X54291Y-38346D01*
X52756Y-39645D02*
X53070Y-39330D01*
X52756Y-40187D02*
X52756Y-39645D01*
X65236Y-38622D02*
X67459Y-38622D01*
X64960Y-38346D02*
X65236Y-38622D01*
X53976Y-39330D02*
X54094Y-39212D01*
X53070Y-39330D02*
X53976Y-39330D01*
X67380Y-38543D02*
X67459Y-38622D01*
X54409Y-36968D02*
X54133Y-36692D01*
X53188Y-36692D02*
X52125Y-37756D01*
X50915Y-37756D02*
X52125Y-37756D01*
X64094Y-39881D02*
X63385Y-39173D01*
X69606Y-39055D02*
X69606Y-38822D01*
X69606Y-39055D02*
X68779Y-39881D01*
X68779Y-39881D02*
X64094Y-39881D01*
X63385Y-36653D02*
X63070Y-36968D01*
X63070Y-36968D02*
X54409Y-36968D01*
X51732Y-38779D02*
X51377Y-39133D01*
X52795Y-38779D02*
X51732Y-38779D01*
X51377Y-39133D02*
X50551Y-39133D01*
X50511Y-39173D02*
X50511Y-39488D01*
X50551Y-39133D02*
X50511Y-39173D01*
X66062Y-39172D02*
X65864Y-39370D01*
X64133Y-37165D02*
X54409Y-37165D01*
X64330Y-39370D02*
X64133Y-39173D01*
X65864Y-39370D02*
X64330Y-39370D01*
X50550Y-39527D02*
X50915Y-39527D01*
X50511Y-39488D02*
X50550Y-39527D01*
X54409Y-37165D02*
X52795Y-38779D01*
X67459Y-39370D02*
X66261Y-39370D01*
X66261Y-39370D02*
X66062Y-39172D01*
X68346Y-41181D02*
X61850Y-41181D01*
X70000Y-38822D02*
X70000Y-39527D01*
X68346Y-41181D02*
X70000Y-39527D01*
X61850Y-41181D02*
X59409Y-38740D01*
X56299Y-38740D02*
X59409Y-38740D01*
X55709Y-39330D02*
X56299Y-38740D01*
X55709Y-40187D02*
X55709Y-39330D01*
X53464Y-38543D02*
X52913Y-39094D01*
X51614Y-39330D02*
X50915Y-39330D01*
X51850Y-39094D02*
X51614Y-39330D01*
X52913Y-39094D02*
X51850Y-39094D01*
X67459Y-40393D02*
X62952Y-40393D01*
X61102Y-38543D02*
X53464Y-38543D01*
X62952Y-40393D02*
X61102Y-38543D01*
X54251Y-39527D02*
X54566Y-39212D01*
X64960Y-38149D02*
X65590Y-37519D01*
X66930Y-37519D02*
X65590Y-37519D01*
X53149Y-39527D02*
X54251Y-39527D01*
X52953Y-39724D02*
X53149Y-39527D01*
X52953Y-39724D02*
X52953Y-40187D01*
X54566Y-37992D02*
X54724Y-38149D01*
X54724Y-38149D02*
X64960Y-38149D01*
X54566Y-39212D02*
X54566Y-38897D01*
X54527Y-39724D02*
X55039Y-39212D01*
X65984Y-36653D02*
X64685Y-37952D01*
X55000Y-37795D02*
X55157Y-37952D01*
X53228Y-39724D02*
X54527Y-39724D01*
X53150Y-39802D02*
X53228Y-39724D01*
X53150Y-40187D02*
X53150Y-39802D01*
X65984Y-36653D02*
X66930Y-36653D01*
X55157Y-37952D02*
X64685Y-37952D01*
X55039Y-39212D02*
X55039Y-38897D01*
X70393Y-38822D02*
X70393Y-39842D01*
X59133Y-40039D02*
X58918Y-40039D01*
X60826Y-41732D02*
X59133Y-40039D01*
X68503Y-41732D02*
X60826Y-41732D01*
X70393Y-39842D02*
X68503Y-41732D01*
X70590Y-38822D02*
X70590Y-40000D01*
X59251Y-40826D02*
X58918Y-40826D01*
X60433Y-42007D02*
X59251Y-40826D01*
X68582Y-42007D02*
X60433Y-42007D01*
X70590Y-40000D02*
X68582Y-42007D01*
X68425Y-41456D02*
X61348Y-41456D01*
X70196Y-39685D02*
X68425Y-41456D01*
X70196Y-38822D02*
X70196Y-39685D01*
X61348Y-41456D02*
X60319Y-40428D01*
X58918Y-39251D02*
X59143Y-39251D01*
X59143Y-39251D02*
X60319Y-40428D01*
G54D61*
X81250Y-36337D02*
X81853Y-36337D01*
X81853Y-36337D02*
X82350Y-36833D01*
X82350Y-36833D02*
X83150Y-36833D01*
X83150Y-36833D02*
X83400Y-37083D01*
X83400Y-37083D02*
X83400Y-38333D01*
X83400Y-38333D02*
X83900Y-38833D01*
X81250Y-37337D02*
X82896Y-37337D01*
G54D11*
X74400Y-37487D02*
X74409Y-37477D01*
X74409Y-37477D02*
X74409Y-36937D01*
X70830Y-37992D02*
X72794Y-37992D01*
X73850Y-36937D02*
X74409Y-36937D01*
X73850Y-36937D02*
X72794Y-37992D01*
X77300Y-37037D02*
X77200Y-36937D01*
X77950Y-37337D02*
X77400Y-37337D01*
X77400Y-37337D02*
X77300Y-37237D01*
X77300Y-37237D02*
X77300Y-37037D01*
X74409Y-36937D02*
X77200Y-36937D01*
X74400Y-36187D02*
X74409Y-36196D01*
X74409Y-36196D02*
X74409Y-36737D01*
X70830Y-37795D02*
X72741Y-37795D01*
X73800Y-36737D02*
X74409Y-36737D01*
X72741Y-37795D02*
X73800Y-36737D01*
X77400Y-36337D02*
X77300Y-36437D01*
X77300Y-36437D02*
X77300Y-36637D01*
X77300Y-36637D02*
X77200Y-36737D01*
X77950Y-36337D02*
X77400Y-36337D01*
X74409Y-36737D02*
X77200Y-36737D01*
G54D61*
X81250Y-38837D02*
X83153Y-38837D01*
X83153Y-38837D02*
X83900Y-39583D01*
X83900Y-39583D02*
X83900Y-39833D01*
X81250Y-39837D02*
X82396Y-39837D01*
X82396Y-39837D02*
X82900Y-39333D01*
G54D11*
X74400Y-39987D02*
X74409Y-39977D01*
X74409Y-39977D02*
X74409Y-39437D01*
X72748Y-38385D02*
X73800Y-39437D01*
X74409Y-39437D02*
X73800Y-39437D01*
X72748Y-38385D02*
X70830Y-38385D01*
X77950Y-39837D02*
X77400Y-39837D01*
X77400Y-39837D02*
X77300Y-39737D01*
X77300Y-39737D02*
X77300Y-39537D01*
X77300Y-39537D02*
X77200Y-39437D01*
X74409Y-39437D02*
X77200Y-39437D01*
X74400Y-38687D02*
X74409Y-38696D01*
X74409Y-38696D02*
X74409Y-39237D01*
X72801Y-38188D02*
X73850Y-39237D01*
X74409Y-39237D02*
X73850Y-39237D01*
X72801Y-38188D02*
X70830Y-38188D01*
X77300Y-38937D02*
X77300Y-39137D01*
X77400Y-38837D02*
X77300Y-38937D01*
X77950Y-38837D02*
X77400Y-38837D01*
X77300Y-39137D02*
X77200Y-39237D01*
X74409Y-39237D02*
X77200Y-39237D01*
G54D61*
X69606Y-37358D02*
X69606Y-37156D01*
G54D63*
X69488Y-37038D02*
X69300Y-36850D01*
G54D61*
X69606Y-37156D02*
X69488Y-37038D01*
G54D63*
X69125Y-35837D02*
X69125Y-34971D01*
X69125Y-34971D02*
X68991Y-34837D01*
X69300Y-36850D02*
X69300Y-36012D01*
X69300Y-36012D02*
X69125Y-35837D01*
G54D11*
X69803Y-37358D02*
X69803Y-34140D01*
X69803Y-34140D02*
X68900Y-33237D01*
X70000Y-37358D02*
X70000Y-34137D01*
X70000Y-34137D02*
X70900Y-33237D01*
G54D61*
X75422Y-21219D02*
X73730Y-19527D01*
G54D63*
X73661Y-18930D02*
X73661Y-19527D01*
G54D61*
X74972Y-24669D02*
X75422Y-24219D01*
X75422Y-24219D02*
X75422Y-21219D01*
X74322Y-24669D02*
X74972Y-24669D01*
G54D63*
X73661Y-18930D02*
X73672Y-18919D01*
G54D61*
X73730Y-19527D02*
X73661Y-19527D01*
X76672Y-17302D02*
X76456Y-17086D01*
G54D63*
X76672Y-17919D02*
X76672Y-17302D01*
G54D61*
X76456Y-17086D02*
X72004Y-17086D01*
X70172Y-22569D02*
X70172Y-20629D01*
X70272Y-22669D02*
X70172Y-22569D01*
X70922Y-22669D02*
X70272Y-22669D01*
X70314Y-20487D02*
X70314Y-18776D01*
X70172Y-20629D02*
X70314Y-20487D01*
X70314Y-18776D02*
X72004Y-17086D01*
G54D63*
X73672Y-17919D02*
X74172Y-18419D01*
G54D61*
X75072Y-25169D02*
X74322Y-25169D01*
X75772Y-24469D02*
X75072Y-25169D01*
X75772Y-21019D02*
X75772Y-24469D01*
X74172Y-19419D02*
X75772Y-21019D01*
X74172Y-18419D02*
X74172Y-19419D01*
X76672Y-19527D02*
X78272Y-21127D01*
X77822Y-22669D02*
X78272Y-22219D01*
X78272Y-22219D02*
X78272Y-21127D01*
G54D63*
X76672Y-18919D02*
X76672Y-19527D01*
G54D61*
X77822Y-22669D02*
X76522Y-22669D01*
X77272Y-19619D02*
X77272Y-18669D01*
X78622Y-20969D02*
X77272Y-19619D01*
X76522Y-23169D02*
X78072Y-23169D01*
X78622Y-22619D02*
X78622Y-20969D01*
X78072Y-23169D02*
X78622Y-22619D01*
G54D63*
X76172Y-18419D02*
X75672Y-17919D01*
G54D61*
X77022Y-18419D02*
X76172Y-18419D01*
X77272Y-18669D02*
X77022Y-18419D01*
X62519Y-20619D02*
X63228Y-19910D01*
G54D63*
X63228Y-19527D02*
X63222Y-18919D01*
G54D61*
X63228Y-19910D02*
X63228Y-19527D01*
X63122Y-24669D02*
X62572Y-24669D01*
X60872Y-20619D02*
X62519Y-20619D01*
X60290Y-21201D02*
X60872Y-20619D01*
X60290Y-24621D02*
X60290Y-21201D01*
X61238Y-25569D02*
X60290Y-24621D01*
X62222Y-25569D02*
X61238Y-25569D01*
X62422Y-25369D02*
X62222Y-25569D01*
X62422Y-24819D02*
X62422Y-25369D01*
X62572Y-24669D02*
X62422Y-24819D01*
X68722Y-24669D02*
X69267Y-24669D01*
X67643Y-17919D02*
X66222Y-17919D01*
X68503Y-18779D02*
X67643Y-17919D01*
X68503Y-20118D02*
X68503Y-18779D01*
X68740Y-20354D02*
X68503Y-20118D01*
X69566Y-20354D02*
X68740Y-20354D01*
X69842Y-20629D02*
X69566Y-20354D01*
X69842Y-24094D02*
X69842Y-20629D01*
X69267Y-24669D02*
X69842Y-24094D01*
X63122Y-25169D02*
X63122Y-25469D01*
G54D63*
X62722Y-18419D02*
X63222Y-17919D01*
G54D61*
X62722Y-19819D02*
X62722Y-18419D01*
X62222Y-20319D02*
X62722Y-19819D01*
X60622Y-20319D02*
X62222Y-20319D01*
X59990Y-20951D02*
X60622Y-20319D01*
X59990Y-24742D02*
X59990Y-20951D01*
X61117Y-25869D02*
X59990Y-24742D01*
X62722Y-25869D02*
X61117Y-25869D01*
X63122Y-25469D02*
X62722Y-25869D01*
X64572Y-21169D02*
X66222Y-19519D01*
X65322Y-22669D02*
X64722Y-22669D01*
G54D63*
X66222Y-19519D02*
X66222Y-18919D01*
G54D61*
X64572Y-22519D02*
X64572Y-21169D01*
X64722Y-22669D02*
X64572Y-22519D01*
X65322Y-23169D02*
X64672Y-23169D01*
G54D63*
X65722Y-18419D02*
X65222Y-17919D01*
G54D61*
X65722Y-19469D02*
X65722Y-18419D01*
X64222Y-20969D02*
X65722Y-19469D01*
X64222Y-22719D02*
X64222Y-20969D01*
X64672Y-23169D02*
X64222Y-22719D01*
G54D68*
X70944Y-19666D02*
X71697Y-20419D01*
X70944Y-19645D02*
X70944Y-19666D01*
G54D66*
X60905Y-16535D02*
X58267Y-19173D01*
X69409Y-19330D02*
X69409Y-18385D01*
X67559Y-16535D02*
X60905Y-16535D01*
X69409Y-18385D02*
X67559Y-16535D01*
X58267Y-19173D02*
X58267Y-22212D01*
G54D62*
X69724Y-19645D02*
X69409Y-19330D01*
X69094Y-19645D02*
X69409Y-19330D01*
G54D68*
X66522Y-21036D02*
X67913Y-19645D01*
X66522Y-21036D02*
X66522Y-21369D01*
X71697Y-20419D02*
X73597Y-20419D01*
X71697Y-21369D02*
X71697Y-20419D01*
X65322Y-21669D02*
X65772Y-21669D01*
G54D64*
X66072Y-21369D02*
X66522Y-21369D01*
X65772Y-21669D02*
X66072Y-21369D01*
X71697Y-21369D02*
X72122Y-21369D01*
G54D68*
X71672Y-21369D02*
X71697Y-21369D01*
X70922Y-21669D02*
X71372Y-21669D01*
G54D64*
X71372Y-21669D02*
X71672Y-21369D01*
G54D68*
X76972Y-21669D02*
X76522Y-21669D01*
G54D64*
X77272Y-21369D02*
X77722Y-21369D01*
X76972Y-21669D02*
X77272Y-21369D01*
G54D11*
X56959Y-35787D02*
X60196Y-35787D01*
X60708Y-35275D02*
X62637Y-35275D01*
X60196Y-35787D02*
X60708Y-35275D01*
G54D61*
X67874Y-30787D02*
X66968Y-31692D01*
X69633Y-29488D02*
X69633Y-30405D01*
X69251Y-30787D02*
X69633Y-30405D01*
X67874Y-30787D02*
X69251Y-30787D01*
X66220Y-31692D02*
X62637Y-35275D01*
X66968Y-31692D02*
X66220Y-31692D01*
G54D11*
X56959Y-35590D02*
X60078Y-35590D01*
X60629Y-35039D02*
X62322Y-35039D01*
X60078Y-35590D02*
X60629Y-35039D01*
G54D61*
X67755Y-30393D02*
X66850Y-31299D01*
X68633Y-29488D02*
X68633Y-29988D01*
X68228Y-30393D02*
X68633Y-29988D01*
X67755Y-30393D02*
X68228Y-30393D01*
X66062Y-31299D02*
X62322Y-35039D01*
X66850Y-31299D02*
X66062Y-31299D01*
X76023Y-24669D02*
X74748Y-25944D01*
X68633Y-28413D02*
X68633Y-29488D01*
X71102Y-25944D02*
X68633Y-28413D01*
X74748Y-25944D02*
X71102Y-25944D01*
X76522Y-24669D02*
X76023Y-24669D01*
G54D11*
X56959Y-35984D02*
X60314Y-35984D01*
X60787Y-35511D02*
X62952Y-35511D01*
X60314Y-35984D02*
X60787Y-35511D01*
G54D61*
X67992Y-31181D02*
X67086Y-32086D01*
X70633Y-29488D02*
X70633Y-30783D01*
X70236Y-31181D02*
X70633Y-30783D01*
X67992Y-31181D02*
X70236Y-31181D01*
X66377Y-32086D02*
X62952Y-35511D01*
X67086Y-32086D02*
X66377Y-32086D01*
G54D11*
X56959Y-36181D02*
X60432Y-36181D01*
X60866Y-35748D02*
X63267Y-35748D01*
X60432Y-36181D02*
X60866Y-35748D01*
G54D61*
X68149Y-31574D02*
X67244Y-32480D01*
X68149Y-31574D02*
X70629Y-31574D01*
X70629Y-31574D02*
X71633Y-30570D01*
X71633Y-29488D02*
X71633Y-30570D01*
X66535Y-32480D02*
X63267Y-35748D01*
X67244Y-32480D02*
X66535Y-32480D01*
X77322Y-25551D02*
X76141Y-26732D01*
X77082Y-24169D02*
X77322Y-24409D01*
X77322Y-24409D02*
X77322Y-25551D01*
X76522Y-24169D02*
X77082Y-24169D01*
X76141Y-26732D02*
X71653Y-26732D01*
X71633Y-27539D02*
X71633Y-29488D01*
X71653Y-27519D02*
X71633Y-27539D01*
X54724Y-29606D02*
X56929Y-27401D01*
G54D11*
X54724Y-34143D02*
X54724Y-29606D01*
G54D61*
X65322Y-25511D02*
X65322Y-25169D01*
X63432Y-27401D02*
X65322Y-25511D01*
X56929Y-27401D02*
X63432Y-27401D01*
G54D11*
X54528Y-34143D02*
X54528Y-29251D01*
G54D61*
X64897Y-24669D02*
X65322Y-24669D01*
X64606Y-24960D02*
X64897Y-24669D01*
X64606Y-25708D02*
X64606Y-24960D01*
X63307Y-27007D02*
X64606Y-25708D01*
X56771Y-27007D02*
X63307Y-27007D01*
X54528Y-29251D02*
X56771Y-27007D01*
G54D11*
X54134Y-34143D02*
X54134Y-28543D01*
G54D61*
X64795Y-23669D02*
X65322Y-23669D01*
X63858Y-24606D02*
X64795Y-23669D01*
X63858Y-25433D02*
X63858Y-24606D01*
X63070Y-26220D02*
X63858Y-25433D01*
X56456Y-26220D02*
X63070Y-26220D01*
X54134Y-28543D02*
X56456Y-26220D01*
G54D11*
X54331Y-34143D02*
X54331Y-28897D01*
G54D61*
X64846Y-24169D02*
X65322Y-24169D01*
X64212Y-24803D02*
X64846Y-24169D01*
X64212Y-25590D02*
X64212Y-24803D01*
X63188Y-26614D02*
X64212Y-25590D01*
X56614Y-26614D02*
X63188Y-26614D01*
X54331Y-28897D02*
X56614Y-26614D01*
G54D63*
X44200Y-18614D02*
X44220Y-18614D01*
X53385Y-21614D02*
X54027Y-21614D01*
G54D61*
X45984Y-16850D02*
X52322Y-16850D01*
X53228Y-17755D02*
X52322Y-16850D01*
X53228Y-21456D02*
X53228Y-17755D01*
X53385Y-21614D02*
X53228Y-21456D01*
X44763Y-18070D02*
X45984Y-16850D01*
G54D63*
X44220Y-18614D02*
X44763Y-18070D01*
X44200Y-21614D02*
X44921Y-21614D01*
G54D61*
X45157Y-24920D02*
X46418Y-26181D01*
X45157Y-21850D02*
X45157Y-24920D01*
X44921Y-21614D02*
X45157Y-21850D01*
G54D63*
X44200Y-19614D02*
X44929Y-19614D01*
G54D61*
X45866Y-23148D02*
X46418Y-23700D01*
X45866Y-20551D02*
X45866Y-23148D01*
X44929Y-19614D02*
X45866Y-20551D01*
G54D63*
X44200Y-20614D02*
X44905Y-20614D01*
G54D61*
X45511Y-24014D02*
X46418Y-24921D01*
X45511Y-21220D02*
X45511Y-24014D01*
X44905Y-20614D02*
X45511Y-21220D01*
X50511Y-21142D02*
X50511Y-20748D01*
G54D63*
X53354Y-24614D02*
X54027Y-24614D01*
G54D61*
X52165Y-23425D02*
X53354Y-24614D01*
X52165Y-20669D02*
X52165Y-23425D01*
X51889Y-20393D02*
X52165Y-20669D01*
X50866Y-20393D02*
X51889Y-20393D01*
X50511Y-20748D02*
X50866Y-20393D01*
X49836Y-20335D02*
X49836Y-20910D01*
X49836Y-20910D02*
X49636Y-21110D01*
X50511Y-21142D02*
X49668Y-21142D01*
X49668Y-21142D02*
X49636Y-21110D01*
X51986Y-18835D02*
X52339Y-18835D01*
G54D63*
X53338Y-23614D02*
X54027Y-23614D01*
G54D61*
X52519Y-22795D02*
X53338Y-23614D01*
X52519Y-19015D02*
X52519Y-22795D01*
X52339Y-18835D02*
X52519Y-19015D01*
X52874Y-18070D02*
X52874Y-22125D01*
X52638Y-17835D02*
X52874Y-18070D01*
X51986Y-17835D02*
X52638Y-17835D01*
G54D63*
X53362Y-22614D02*
X54027Y-22614D01*
G54D61*
X52874Y-22125D02*
X53362Y-22614D01*
X51836Y-24610D02*
X52952Y-25727D01*
X51511Y-20935D02*
X51836Y-21260D01*
X51836Y-21260D02*
X51836Y-24610D01*
G54D11*
X52952Y-30236D02*
X53543Y-30826D01*
X53543Y-30826D02*
X53543Y-34143D01*
G54D61*
X52952Y-25727D02*
X52952Y-30236D01*
X50157Y-29880D02*
X50986Y-29880D01*
X50986Y-29880D02*
X51024Y-29842D01*
X50786Y-26935D02*
X50786Y-29604D01*
X50786Y-29604D02*
X51024Y-29842D01*
X50786Y-26935D02*
X50161Y-26935D01*
X49661Y-26435D02*
X48586Y-26435D01*
X50161Y-26935D02*
X49661Y-26435D01*
X51486Y-24935D02*
X52402Y-25852D01*
X52402Y-25852D02*
X52402Y-28937D01*
X51486Y-24935D02*
X51486Y-22076D01*
X49086Y-21606D02*
X49086Y-19335D01*
X49173Y-21692D02*
X49086Y-21606D01*
X51102Y-21692D02*
X49173Y-21692D01*
X51486Y-22076D02*
X51102Y-21692D01*
X50811Y-24935D02*
X51486Y-24935D01*
X47636Y-18835D02*
X48211Y-18835D01*
X48211Y-18835D02*
X48711Y-19335D01*
X48711Y-19335D02*
X49086Y-19335D01*
X49086Y-19335D02*
X49836Y-19335D01*
X48586Y-24435D02*
X49211Y-24435D01*
X49711Y-24935D02*
X50786Y-24935D01*
X49211Y-24435D02*
X49711Y-24935D01*
X50786Y-25935D02*
X51329Y-25935D01*
X51574Y-26181D02*
X51574Y-27835D01*
X51329Y-25935D02*
X51574Y-26181D01*
X47636Y-17835D02*
X47163Y-17835D01*
X47056Y-25560D02*
X46968Y-25472D01*
X46968Y-25472D02*
X46967Y-18032D01*
X48511Y-25435D02*
X48111Y-25435D01*
X48111Y-25435D02*
X47986Y-25560D01*
X48511Y-25435D02*
X48586Y-25435D01*
X47986Y-25560D02*
X47056Y-25560D01*
X47163Y-17835D02*
X46967Y-18032D01*
X47636Y-17835D02*
X48211Y-17835D01*
X48711Y-18335D02*
X49836Y-18335D01*
X48211Y-17835D02*
X48711Y-18335D01*
X48586Y-25435D02*
X49411Y-25435D01*
X49911Y-25935D02*
X50786Y-25935D01*
X49411Y-25435D02*
X49911Y-25935D01*
G54D68*
X48586Y-26935D02*
X49494Y-26935D01*
X49494Y-26935D02*
X49527Y-26968D01*
G54D62*
X46700Y-27834D02*
X49291Y-27834D01*
X49291Y-27834D02*
X49527Y-27598D01*
X49527Y-26968D02*
X49527Y-27598D01*
G54D64*
X48536Y-22275D02*
X48536Y-21110D01*
G54D68*
X48543Y-23149D02*
X48544Y-23148D01*
G54D64*
X48544Y-23148D02*
X48544Y-22283D01*
X49173Y-23149D02*
X48543Y-23149D01*
X48536Y-21110D02*
X48536Y-20335D01*
G54D61*
X47636Y-20335D02*
X47636Y-19835D01*
G54D64*
X47636Y-20335D02*
X48536Y-20335D01*
X34861Y-42322D02*
X34861Y-42681D01*
X34861Y-42681D02*
X34133Y-43409D01*
X34861Y-42322D02*
X34861Y-41477D01*
X34861Y-41477D02*
X34683Y-41299D01*
G54D11*
X50915Y-37559D02*
X50235Y-37559D01*
X50039Y-37755D02*
X44330Y-37755D01*
X50235Y-37559D02*
X50039Y-37755D01*
X43464Y-40118D02*
X35864Y-40118D01*
X44330Y-37755D02*
X43622Y-38464D01*
X43622Y-38464D02*
X43622Y-39960D01*
X43622Y-39960D02*
X43464Y-40118D01*
X35864Y-40118D02*
X34683Y-41299D01*
X50915Y-37952D02*
X44567Y-37952D01*
X44567Y-37952D02*
X43937Y-38582D01*
X43582Y-40433D02*
X38227Y-40433D01*
X43937Y-38582D02*
X43937Y-40078D01*
X43937Y-40078D02*
X43582Y-40433D01*
X38227Y-40433D02*
X37361Y-41299D01*
G54D64*
X37361Y-41299D02*
X37539Y-41477D01*
X37539Y-41477D02*
X37539Y-42322D01*
X36811Y-43409D02*
X37539Y-42681D01*
X37539Y-42681D02*
X37539Y-42322D01*
G54D11*
X44803Y-38149D02*
X44251Y-38700D01*
X50915Y-38149D02*
X44803Y-38149D01*
X43582Y-41299D02*
X40038Y-41299D01*
G54D64*
X40038Y-41299D02*
X40216Y-41477D01*
X40216Y-41477D02*
X40216Y-42322D01*
X39488Y-43409D02*
X40216Y-42681D01*
X40216Y-42681D02*
X40216Y-42322D01*
G54D11*
X44251Y-40629D02*
X43582Y-41299D01*
X44251Y-38700D02*
X44251Y-40629D01*
X52756Y-34143D02*
X52756Y-33307D01*
X51417Y-31968D02*
X51090Y-31968D01*
X52756Y-33307D02*
X51417Y-31968D01*
X53740Y-40187D02*
X53740Y-40924D01*
X53740Y-40924D02*
X54055Y-41239D01*
X50915Y-36181D02*
X48996Y-36181D01*
X48996Y-36181D02*
X48759Y-35944D01*
X50915Y-36378D02*
X48504Y-36378D01*
X48326Y-36200D02*
X48326Y-35944D01*
X48504Y-36378D02*
X48326Y-36200D01*
G54D61*
X26181Y-22794D02*
X26181Y-25787D01*
X46062Y-37007D02*
X45157Y-36102D01*
X45157Y-36102D02*
X45157Y-32283D01*
X45157Y-32283D02*
X44133Y-31259D01*
X44133Y-31259D02*
X37598Y-31259D01*
X37598Y-31259D02*
X37440Y-31102D01*
X36692Y-26614D02*
X37440Y-27362D01*
X27125Y-26732D02*
X33818Y-26732D01*
X33818Y-26732D02*
X33937Y-26614D01*
X33937Y-26614D02*
X36692Y-26614D01*
X37440Y-27362D02*
X37440Y-29921D01*
G54D11*
X50511Y-36968D02*
X50472Y-37007D01*
X50511Y-36968D02*
X50915Y-36968D01*
G54D61*
X50472Y-37007D02*
X46062Y-37007D01*
X26181Y-25787D02*
X27125Y-26732D01*
X65905Y-30905D02*
X62480Y-34330D01*
X67633Y-29964D02*
X66692Y-30905D01*
X67633Y-29488D02*
X67633Y-29964D01*
X66692Y-30905D02*
X65905Y-30905D01*
G54D11*
X60512Y-36574D02*
X61141Y-35944D01*
X61141Y-35944D02*
X61929Y-35944D01*
X61929Y-35944D02*
X62322Y-36338D01*
X60512Y-36574D02*
X56959Y-36574D01*
G54D61*
X62480Y-34330D02*
X62322Y-34330D01*
X70922Y-24169D02*
X70358Y-24169D01*
X67633Y-28114D02*
X67633Y-29488D01*
X69606Y-26141D02*
X67633Y-28114D01*
X69606Y-24921D02*
X69606Y-26141D01*
X70358Y-24169D02*
X69606Y-24921D01*
X62598Y-33661D02*
X62047Y-33661D01*
G54D11*
X56968Y-36771D02*
X60984Y-36771D01*
X60984Y-36771D02*
X61417Y-36338D01*
G54D61*
X65826Y-28582D02*
X65826Y-30433D01*
X70448Y-24669D02*
X70000Y-25118D01*
X70000Y-25118D02*
X70000Y-26456D01*
X70000Y-26456D02*
X68149Y-28307D01*
X70448Y-24669D02*
X70922Y-24669D01*
X66102Y-28307D02*
X65826Y-28582D01*
X67125Y-28307D02*
X66102Y-28307D01*
X65826Y-30433D02*
X62598Y-33661D01*
X61417Y-34291D02*
X61417Y-34645D01*
X62047Y-33661D02*
X61417Y-34291D01*
X33582Y-25551D02*
X38149Y-25551D01*
X33425Y-25708D02*
X33582Y-25551D01*
X27480Y-25708D02*
X33425Y-25708D01*
X27468Y-22728D02*
X27204Y-22992D01*
X27204Y-22992D02*
X27204Y-25433D01*
X27204Y-25433D02*
X27480Y-25708D01*
X27468Y-22728D02*
X28348Y-22728D01*
X47362Y-29566D02*
X49409Y-31614D01*
G54D11*
X52559Y-34143D02*
X52559Y-33622D01*
X49409Y-32401D02*
X49409Y-31614D01*
X49606Y-32598D02*
X49409Y-32401D01*
X51535Y-32598D02*
X49606Y-32598D01*
X52559Y-33622D02*
X51535Y-32598D01*
G54D61*
X38149Y-25551D02*
X38582Y-25984D01*
X38582Y-25984D02*
X38582Y-28700D01*
X38582Y-28700D02*
X39448Y-29566D01*
X39448Y-29566D02*
X47362Y-29566D01*
X28337Y-22716D02*
X28348Y-22728D01*
X30548Y-23228D02*
X29763Y-23228D01*
X29263Y-22728D02*
X28348Y-22728D01*
X29763Y-23228D02*
X29263Y-22728D01*
X32794Y-24960D02*
X38543Y-24960D01*
X40000Y-28897D02*
X39291Y-28188D01*
X39291Y-28188D02*
X39291Y-25708D01*
X39291Y-25708D02*
X38543Y-24960D01*
X52953Y-32716D02*
X51515Y-31279D01*
G54D11*
X52953Y-32716D02*
X52953Y-34143D01*
G54D61*
X51515Y-31279D02*
X50295Y-31279D01*
X50295Y-31279D02*
X47913Y-28897D01*
X47913Y-28897D02*
X40000Y-28897D01*
X54528Y-45118D02*
X54528Y-46732D01*
X59448Y-50000D02*
X58622Y-49173D01*
X59448Y-50000D02*
X59448Y-50001D01*
X54528Y-46732D02*
X56968Y-49173D01*
G54D11*
X54528Y-40187D02*
X54528Y-45118D01*
G54D61*
X59410Y-50001D02*
X59448Y-50001D01*
G54D11*
X54724Y-40187D02*
X54724Y-44487D01*
G54D61*
X59448Y-47559D02*
X58622Y-46732D01*
X59448Y-47559D02*
X59448Y-47560D01*
X54724Y-44487D02*
X56968Y-46732D01*
G54D11*
X54921Y-40187D02*
X54921Y-43897D01*
G54D61*
X70116Y-44960D02*
X58622Y-44960D01*
X70116Y-44960D02*
X70118Y-44961D01*
X55984Y-44960D02*
X56968Y-44960D01*
X54921Y-43897D02*
X55984Y-44960D01*
X72047Y-45866D02*
X71022Y-45866D01*
X71022Y-45866D02*
X70118Y-44961D01*
X55118Y-43267D02*
X55708Y-43858D01*
X71219Y-43858D02*
X58622Y-43858D01*
X71219Y-43858D02*
X71220Y-43859D01*
X55708Y-43858D02*
X56968Y-43858D01*
X72047Y-43779D02*
X71300Y-43779D01*
X71300Y-43779D02*
X71220Y-43859D01*
G54D11*
X55118Y-40187D02*
X55118Y-43267D01*
G54D61*
X56062Y-33425D02*
X55393Y-33425D01*
G54D11*
X56299Y-33661D02*
X56062Y-33425D01*
X56299Y-34143D02*
X56299Y-33661D01*
G54D63*
X62007Y-30799D02*
X62496Y-31287D01*
G54D61*
X62007Y-29685D02*
X62007Y-30799D01*
X61692Y-29370D02*
X62007Y-29685D01*
X55748Y-29370D02*
X61692Y-29370D01*
X55118Y-30000D02*
X55748Y-29370D01*
X55118Y-33149D02*
X55118Y-30000D01*
X55393Y-33425D02*
X55118Y-33149D01*
X60078Y-33404D02*
X60609Y-32874D01*
G54D63*
X63496Y-31858D02*
X63496Y-31287D01*
G54D61*
X62480Y-32874D02*
X63496Y-31858D01*
X60609Y-32874D02*
X62480Y-32874D01*
G54D68*
X49803Y-34546D02*
X46713Y-34546D01*
X46713Y-34546D02*
X45905Y-35354D01*
G54D63*
X49803Y-34546D02*
X50058Y-34546D01*
G54D11*
X50511Y-35787D02*
X50393Y-35669D01*
X50511Y-35787D02*
X50915Y-35787D01*
G54D63*
X50393Y-34881D02*
X50393Y-35669D01*
X50058Y-34546D02*
X50393Y-34881D01*
G54D64*
X48543Y-38623D02*
X48463Y-38543D01*
X48463Y-38543D02*
X47696Y-38543D01*
X49448Y-38623D02*
X48543Y-38623D01*
X50275Y-38444D02*
X49627Y-38444D01*
G54D61*
X50374Y-38543D02*
X50275Y-38444D01*
X50915Y-38543D02*
X50374Y-38543D01*
G54D64*
X49627Y-38444D02*
X49448Y-38623D01*
X47638Y-43937D02*
X47637Y-43935D01*
X47637Y-43935D02*
X47637Y-43110D01*
X42086Y-48031D02*
X42834Y-48031D01*
X43076Y-48031D02*
X42834Y-48031D01*
X43076Y-48031D02*
X43430Y-47677D01*
G54D62*
X44763Y-40275D02*
X44763Y-39586D01*
X44763Y-39586D02*
X44763Y-38897D01*
G54D64*
X46259Y-48022D02*
X46269Y-48031D01*
X46269Y-48031D02*
X47204Y-48031D01*
X43430Y-46890D02*
X43430Y-47677D01*
X43430Y-47677D02*
X43430Y-47720D01*
X43430Y-47720D02*
X43780Y-48070D01*
X53355Y-46968D02*
X53346Y-46977D01*
X53346Y-46977D02*
X53346Y-47952D01*
X47834Y-45512D02*
X47834Y-44724D01*
X53187Y-45157D02*
X53188Y-45158D01*
X53188Y-45158D02*
X53188Y-45984D01*
G54D63*
X52834Y-43149D02*
X52834Y-43935D01*
X52834Y-43935D02*
X52833Y-43937D01*
G54D62*
X45620Y-40275D02*
X44763Y-40275D01*
X44763Y-38897D02*
X45620Y-38897D01*
G54D61*
X56959Y-35000D02*
X57479Y-35000D01*
G54D63*
X57973Y-34506D02*
X57519Y-34960D01*
X57973Y-34506D02*
X57973Y-33818D01*
G54D61*
X57479Y-35000D02*
X57519Y-34960D01*
G54D63*
X72270Y-36037D02*
X73149Y-35157D01*
X72250Y-36037D02*
X72270Y-36037D01*
G54D61*
X51772Y-34143D02*
X51772Y-33661D01*
G54D63*
X51396Y-33128D02*
X51771Y-33503D01*
X51771Y-33503D02*
X51771Y-33661D01*
X51396Y-33128D02*
X50590Y-33128D01*
G54D61*
X51772Y-33661D02*
X51771Y-33661D01*
G54D63*
X52519Y-34803D02*
X52086Y-34803D01*
G54D61*
X51772Y-34488D02*
X52086Y-34803D01*
X51772Y-34488D02*
X51772Y-34143D01*
G54D63*
X52401Y-39527D02*
X51968Y-39527D01*
G54D61*
X51772Y-39724D02*
X51968Y-39527D01*
X51772Y-39724D02*
X51772Y-40187D01*
G54D64*
X56614Y-41989D02*
X56614Y-42677D01*
X55787Y-42400D02*
X55787Y-43149D01*
G54D61*
X28348Y-21728D02*
X27681Y-21728D01*
X27681Y-21728D02*
X27480Y-21929D01*
G54D62*
X65443Y-35787D02*
X65433Y-35777D01*
X65433Y-35777D02*
X65433Y-35039D01*
X65443Y-35787D02*
X64645Y-35787D01*
G54D61*
X50157Y-28780D02*
X50157Y-28110D01*
G54D68*
X29019Y-24728D02*
X28348Y-24728D01*
G54D61*
X29019Y-23822D02*
X29019Y-24728D01*
G54D62*
X29019Y-24728D02*
X29448Y-25157D01*
G54D61*
X28925Y-23728D02*
X29019Y-23822D01*
G54D11*
X50896Y-36575D02*
X50471Y-36575D01*
X50471Y-36575D02*
X50314Y-36692D01*
G54D63*
X49881Y-36692D02*
X50314Y-36692D01*
X49803Y-35433D02*
X49803Y-35787D01*
X49803Y-35433D02*
X49803Y-35296D01*
X54055Y-41989D02*
X54055Y-42598D01*
X61097Y-39650D02*
X61107Y-39650D01*
X61107Y-39650D02*
X61692Y-40236D01*
X61498Y-51079D02*
X61520Y-51102D01*
X61520Y-51102D02*
X62204Y-51102D01*
X61498Y-48638D02*
X61521Y-48661D01*
X61521Y-48661D02*
X62204Y-48661D01*
X72913Y-43404D02*
X73643Y-43404D01*
X73643Y-43404D02*
X73818Y-43229D01*
X73818Y-43229D02*
X74526Y-43229D01*
X74526Y-43229D02*
X74527Y-43228D01*
X73818Y-45316D02*
X74526Y-45316D01*
X74526Y-45316D02*
X74527Y-45314D01*
X72913Y-45491D02*
X73643Y-45491D01*
X73643Y-45491D02*
X73818Y-45316D01*
G54D61*
X28348Y-23728D02*
X28925Y-23728D01*
G54D63*
X57973Y-33818D02*
X58896Y-33818D01*
X56299Y-35669D02*
X56299Y-35236D01*
G54D61*
X56535Y-35000D02*
X56299Y-35236D01*
X56535Y-35000D02*
X56959Y-35000D01*
G54D63*
X67923Y-34842D02*
X68149Y-35068D01*
X68149Y-35608D02*
X68375Y-35833D01*
X68149Y-35068D02*
X68149Y-35608D01*
G54D11*
X51002Y-41102D02*
X51002Y-40847D01*
G54D63*
X51002Y-40847D02*
X51220Y-40629D01*
X51692Y-40629D02*
X51220Y-40629D01*
G54D62*
X67165Y-34842D02*
X67923Y-34842D01*
X67923Y-34842D02*
X67923Y-34183D01*
G54D68*
X67923Y-34183D02*
X67913Y-34173D01*
X49644Y-22283D02*
X49644Y-22912D01*
X49881Y-23149D02*
X50511Y-23149D01*
X50511Y-23149D02*
X50511Y-22242D01*
X49644Y-22912D02*
X49881Y-23149D01*
X49644Y-22283D02*
X49685Y-22242D01*
G54D63*
X68375Y-35833D02*
X68375Y-35973D01*
X68375Y-35973D02*
X68779Y-36377D01*
X68779Y-36377D02*
X68779Y-36574D01*
G54D64*
X75850Y-34383D02*
X76500Y-34383D01*
X80000Y-34033D02*
X76850Y-34033D01*
X76850Y-34033D02*
X76500Y-34383D01*
X80000Y-34033D02*
X80100Y-33933D01*
X81250Y-33383D02*
X81250Y-34033D01*
X85250Y-33383D02*
X84600Y-34033D01*
X84600Y-34033D02*
X81250Y-34033D01*
X80200Y-34033D02*
X80100Y-33933D01*
X81250Y-34033D02*
X80200Y-34033D01*
X86250Y-33383D02*
X85250Y-33383D01*
G54D62*
X71732Y-40156D02*
X71732Y-40866D01*
X72362Y-35157D02*
X71732Y-35157D01*
X71438Y-35157D02*
X71732Y-35157D01*
X71438Y-35157D02*
X71003Y-35591D01*
G54D11*
X69836Y-37828D02*
X69842Y-37834D01*
G54D64*
X65322Y-22169D02*
X66147Y-22169D01*
X66147Y-22169D02*
X66272Y-22044D01*
X70922Y-22169D02*
X71747Y-22169D01*
X71747Y-22169D02*
X71872Y-22044D01*
X76522Y-22169D02*
X77597Y-22169D01*
X49836Y-17335D02*
X48936Y-17335D01*
X50786Y-23935D02*
X49861Y-23935D01*
G54D68*
X60915Y-50254D02*
X61323Y-50254D01*
X61498Y-50429D02*
X61498Y-51079D01*
X61323Y-50254D02*
X61498Y-50429D01*
X60915Y-47813D02*
X61323Y-47813D01*
X61498Y-47988D02*
X61498Y-48638D01*
X61323Y-47813D02*
X61498Y-47988D01*
G54D61*
X51772Y-40187D02*
X51772Y-40550D01*
X51772Y-40550D02*
X51692Y-40629D01*
G54D64*
X83600Y-43183D02*
X85265Y-43183D01*
X85265Y-43183D02*
X85732Y-42716D01*
X80750Y-43183D02*
X81700Y-43183D01*
X81700Y-43183D02*
X82650Y-43183D01*
X83600Y-43183D02*
X82650Y-43183D01*
G54D61*
X63122Y-21669D02*
X62822Y-21369D01*
X62822Y-21369D02*
X61922Y-21369D01*
X61922Y-22469D02*
X62122Y-22669D01*
X62122Y-22669D02*
X63122Y-22669D01*
X63122Y-23169D02*
X61222Y-23169D01*
X61222Y-23169D02*
X60922Y-22869D01*
X63122Y-23669D02*
X61222Y-23669D01*
X61222Y-23669D02*
X60922Y-23969D01*
X74022Y-21369D02*
X73122Y-21369D01*
X74322Y-21669D02*
X74022Y-21369D01*
X73322Y-22669D02*
X74322Y-22669D01*
X73122Y-22469D02*
X73322Y-22669D01*
X72422Y-23169D02*
X72122Y-22869D01*
X74322Y-23169D02*
X72422Y-23169D01*
X72422Y-23669D02*
X72122Y-23969D01*
X74322Y-23669D02*
X72422Y-23669D01*
X68722Y-21669D02*
X68422Y-21369D01*
X68422Y-21369D02*
X67522Y-21369D01*
X67522Y-22469D02*
X67722Y-22669D01*
X67722Y-22669D02*
X68722Y-22669D01*
X68722Y-23169D02*
X66822Y-23169D01*
X66822Y-23169D02*
X66522Y-22869D01*
X68722Y-23669D02*
X66822Y-23669D01*
X66822Y-23669D02*
X66522Y-23969D01*
X63122Y-22169D02*
X63772Y-22169D01*
X63872Y-21469D02*
X63422Y-21019D01*
X63872Y-22069D02*
X63872Y-21469D01*
X63772Y-22169D02*
X63872Y-22069D01*
X63122Y-24169D02*
X62322Y-24169D01*
X61922Y-24569D02*
X61922Y-25069D01*
X62322Y-24169D02*
X61922Y-24569D01*
X68722Y-22169D02*
X69372Y-22169D01*
X69472Y-21469D02*
X69022Y-21019D01*
X69472Y-22069D02*
X69472Y-21469D01*
X69372Y-22169D02*
X69472Y-22069D01*
X67522Y-24569D02*
X67522Y-25069D01*
X68722Y-24169D02*
X67922Y-24169D01*
X67922Y-24169D02*
X67522Y-24569D01*
X74322Y-22169D02*
X74972Y-22169D01*
X75072Y-21469D02*
X74622Y-21019D01*
X75072Y-22069D02*
X75072Y-21469D01*
X74972Y-22169D02*
X75072Y-22069D01*
X74622Y-21019D02*
X74472Y-21019D01*
X73522Y-24169D02*
X73122Y-24569D01*
X73122Y-24569D02*
X73122Y-25069D01*
X74322Y-24169D02*
X73522Y-24169D01*
X75314Y-47244D02*
X75551Y-47244D01*
X75748Y-47047D02*
X75748Y-45472D01*
X75551Y-47244D02*
X75748Y-47047D01*
G54D63*
X75314Y-48030D02*
X75314Y-47244D01*
X75313Y-48031D02*
X75314Y-48030D01*
G54D61*
X75198Y-43188D02*
X75551Y-43188D01*
X75748Y-43385D02*
X75748Y-45472D01*
X75551Y-43188D02*
X75748Y-43385D01*
X75748Y-45472D02*
X75198Y-45472D01*
G54D63*
X48738Y-43937D02*
X49683Y-43937D01*
X49683Y-43937D02*
X49685Y-43935D01*
X49685Y-43935D02*
X49685Y-44803D01*
X49568Y-44919D02*
X48900Y-44919D01*
X49685Y-44803D02*
X49568Y-44919D01*
X51733Y-43937D02*
X50788Y-43937D01*
X50788Y-43937D02*
X50787Y-43935D01*
X50787Y-43935D02*
X50314Y-44408D01*
X50379Y-45419D02*
X51100Y-45419D01*
X50314Y-45354D02*
X50379Y-45419D01*
X50314Y-44408D02*
X50314Y-45354D01*
X27055Y-39212D02*
X27055Y-40433D01*
X27055Y-40433D02*
X27047Y-40440D01*
X25826Y-38000D02*
X27023Y-38000D01*
X27023Y-38000D02*
X27055Y-38031D01*
G54D64*
X36972Y-48061D02*
X36972Y-45570D01*
X36972Y-45570D02*
X36811Y-45409D01*
X33972Y-48061D02*
X33972Y-45570D01*
X33972Y-45570D02*
X34133Y-45409D01*
X39988Y-48061D02*
X39988Y-45909D01*
X39988Y-45909D02*
X39488Y-45409D01*
G54D11*
X50915Y-37362D02*
X51692Y-37362D01*
G54D61*
X53858Y-34606D02*
X53661Y-34803D01*
X56614Y-33463D02*
X55749Y-32598D01*
X56614Y-34448D02*
X56456Y-34606D01*
X56614Y-33463D02*
X56614Y-34448D01*
X56456Y-34606D02*
X53858Y-34606D01*
G54D11*
X53307Y-35748D02*
X53661Y-35748D01*
X51692Y-37362D02*
X53307Y-35748D01*
G54D63*
X56338Y-31287D02*
X55749Y-31876D01*
X55749Y-31876D02*
X55749Y-32598D01*
G54D11*
X50915Y-38740D02*
X50314Y-38740D01*
G54D63*
X49803Y-39173D02*
X48543Y-39173D01*
G54D11*
X49881Y-39173D02*
X49803Y-39173D01*
X50314Y-38740D02*
X49881Y-39173D01*
G54D63*
X48543Y-39723D02*
X48543Y-39173D01*
X47696Y-39211D02*
X47735Y-39173D01*
X47735Y-39173D02*
X48543Y-39173D01*
X47696Y-39211D02*
X47134Y-39211D01*
X47134Y-39211D02*
X46820Y-38897D01*
X55787Y-41300D02*
X55787Y-40944D01*
G54D61*
X56102Y-40630D02*
X56023Y-40708D01*
X56102Y-40630D02*
X56102Y-40187D01*
G54D63*
X55787Y-40944D02*
X56023Y-40708D01*
G54D61*
X56959Y-35196D02*
X57835Y-35196D01*
G54D63*
X58111Y-34920D02*
X57874Y-35157D01*
X58111Y-34920D02*
X58897Y-34920D01*
G54D61*
X57835Y-35196D02*
X57874Y-35157D01*
X83700Y-32383D02*
X85250Y-32383D01*
X84600Y-32883D02*
X84200Y-33283D01*
X84600Y-32883D02*
X85750Y-32883D01*
X86250Y-32383D02*
X85750Y-32883D01*
X84200Y-33283D02*
X83700Y-33283D01*
G54D63*
X68748Y-51007D02*
X68748Y-50775D01*
X67248Y-50775D02*
X68748Y-50775D01*
X68748Y-50775D02*
X70678Y-50775D01*
X68748Y-49551D02*
X68748Y-49775D01*
X67248Y-49775D02*
X68748Y-49775D01*
X68748Y-49775D02*
X71232Y-49775D01*
X71681Y-50224D02*
X71681Y-50778D01*
X71232Y-49775D02*
X71681Y-50224D01*
X68748Y-48566D02*
X68748Y-48334D01*
X67248Y-48334D02*
X68748Y-48334D01*
X68748Y-48334D02*
X71208Y-48334D01*
X73003Y-50129D02*
X73003Y-50778D01*
X71208Y-48334D02*
X73003Y-50129D01*
X68748Y-47110D02*
X68748Y-47334D01*
X67248Y-47334D02*
X68748Y-47334D01*
X68748Y-47334D02*
X71625Y-47334D01*
X71625Y-47334D02*
X74003Y-49712D01*
X74003Y-49712D02*
X74003Y-50778D01*
G54D68*
X64248Y-50779D02*
X62998Y-50779D01*
X62998Y-50779D02*
X62948Y-50829D01*
X64248Y-48338D02*
X62998Y-48338D01*
X62998Y-48338D02*
X62948Y-48388D01*
G54D69*
X83900Y-37833D02*
X84500Y-38433D01*
X81700Y-40933D02*
X81700Y-42083D01*
X82200Y-40433D02*
X81700Y-40933D01*
X84300Y-40433D02*
X82200Y-40433D01*
X84500Y-40233D02*
X84300Y-40433D01*
X84500Y-38433D02*
X84500Y-40233D01*
X83900Y-36833D02*
X84850Y-37783D01*
X82650Y-41133D02*
X82650Y-42083D01*
X83000Y-40783D02*
X82650Y-41133D01*
X84450Y-40783D02*
X83000Y-40783D01*
X84850Y-40383D02*
X84450Y-40783D01*
X84850Y-37783D02*
X84850Y-40383D01*
X83000Y-36233D02*
X82900Y-36333D01*
G54D61*
X71102Y-27125D02*
X70630Y-27598D01*
X77173Y-23669D02*
X77716Y-24212D01*
X76522Y-23669D02*
X77173Y-23669D01*
X77716Y-24212D02*
X77716Y-25748D01*
X77716Y-25748D02*
X76338Y-27125D01*
X76338Y-27125D02*
X71102Y-27125D01*
X70630Y-27598D02*
X70630Y-28490D01*
X71299Y-26338D02*
X69630Y-28007D01*
X76090Y-25169D02*
X74921Y-26338D01*
X76522Y-25169D02*
X76090Y-25169D01*
X74921Y-26338D02*
X71299Y-26338D01*
X69630Y-28007D02*
X69630Y-28490D01*
G54D63*
X76298Y-46456D02*
X76298Y-50749D01*
X76298Y-50749D02*
X76326Y-50778D01*
X76298Y-45472D02*
X76298Y-46456D01*
X76298Y-44173D02*
X77204Y-44173D01*
X78649Y-45618D02*
X78649Y-50778D01*
X77204Y-44173D02*
X78649Y-45618D01*
X76298Y-43188D02*
X76298Y-44173D01*
X48837Y-47165D02*
X48837Y-47932D01*
X49358Y-48452D02*
X49358Y-49045D01*
X48837Y-47932D02*
X49358Y-48452D01*
X51162Y-47165D02*
X51162Y-47934D01*
X51681Y-48452D02*
X51681Y-49045D01*
X51162Y-47934D02*
X51681Y-48452D01*
G54D68*
X60398Y-49629D02*
X60398Y-51079D01*
X60523Y-49504D02*
X60398Y-49629D01*
X59548Y-51079D02*
X60398Y-51079D01*
X60915Y-49504D02*
X60523Y-49504D01*
X61781Y-49879D02*
X62798Y-49879D01*
X62798Y-49879D02*
X62948Y-49729D01*
X59548Y-48638D02*
X60398Y-48638D01*
X60915Y-47063D02*
X60523Y-47063D01*
X60398Y-47188D02*
X60398Y-48638D01*
X60523Y-47063D02*
X60398Y-47188D01*
X61781Y-47438D02*
X62798Y-47438D01*
X62798Y-47438D02*
X62948Y-47288D01*
G54D63*
X75198Y-46456D02*
X73859Y-46456D01*
X73859Y-46456D02*
X73818Y-46416D01*
X72913Y-46241D02*
X73643Y-46241D01*
X73643Y-46241D02*
X73818Y-46416D01*
X73818Y-44329D02*
X75041Y-44329D01*
X75041Y-44329D02*
X75198Y-44173D01*
X72913Y-44154D02*
X73643Y-44154D01*
X73643Y-44154D02*
X73818Y-44329D01*
G54D61*
X28976Y-21379D02*
X28778Y-21181D01*
X29893Y-22728D02*
X28976Y-21811D01*
X30548Y-22728D02*
X29893Y-22728D01*
X28976Y-21811D02*
X28976Y-21379D01*
X26181Y-21377D02*
X26181Y-21694D01*
X26377Y-21181D02*
X26181Y-21377D01*
X28778Y-21181D02*
X26377Y-21181D01*
X30548Y-23728D02*
X31194Y-23728D01*
X31194Y-23728D02*
X31694Y-23228D01*
X29251Y-23228D02*
X28348Y-23228D01*
X29751Y-23728D02*
X29251Y-23228D01*
X30548Y-23728D02*
X29751Y-23728D01*
X30548Y-24728D02*
X31461Y-24728D01*
X31461Y-24728D02*
X31694Y-24960D01*
G54D11*
X68030Y-37519D02*
X68818Y-37519D01*
X69094Y-37795D02*
X68818Y-37519D01*
X69094Y-37795D02*
X69366Y-37795D01*
X69366Y-37598D02*
X69212Y-37598D01*
X68267Y-36653D02*
X68030Y-36653D01*
X69212Y-37598D02*
X68267Y-36653D01*
X69366Y-38385D02*
X69094Y-38385D01*
X68858Y-38622D02*
X68209Y-38622D01*
X69094Y-38385D02*
X68858Y-38622D01*
X69366Y-38582D02*
X69212Y-38582D01*
X68425Y-39370D02*
X68209Y-39370D01*
X69212Y-38582D02*
X68425Y-39370D01*
X68209Y-40393D02*
X68779Y-40393D01*
X69803Y-39370D02*
X69803Y-38822D01*
X68779Y-40393D02*
X69803Y-39370D01*
X70830Y-37598D02*
X71138Y-37598D01*
X71138Y-37598D02*
X71600Y-37137D01*
X71600Y-37137D02*
X72250Y-37137D01*
G54D69*
X81250Y-39337D02*
X80746Y-39337D01*
X80600Y-41933D02*
X80750Y-42083D01*
X80600Y-39483D02*
X80600Y-41933D01*
X80746Y-39337D02*
X80600Y-39483D01*
X80850Y-35683D02*
X83650Y-35683D01*
X80753Y-36837D02*
X80600Y-36683D01*
X80600Y-36683D02*
X80600Y-35933D01*
X80600Y-35933D02*
X80850Y-35683D01*
X81250Y-36837D02*
X80753Y-36837D01*
X83600Y-41283D02*
X83600Y-42083D01*
X83750Y-41133D02*
X83600Y-41283D01*
X84600Y-41133D02*
X83750Y-41133D01*
X85200Y-40533D02*
X84600Y-41133D01*
X85200Y-37233D02*
X85200Y-40533D01*
X83650Y-35683D02*
X85200Y-37233D01*
G54D61*
X48586Y-25935D02*
X47761Y-25935D01*
X47761Y-25935D02*
X47511Y-26185D01*
X48586Y-25935D02*
X49536Y-25935D01*
X50036Y-26435D02*
X50786Y-26435D01*
X49536Y-25935D02*
X50036Y-26435D01*
X48586Y-24935D02*
X47511Y-24935D01*
X50786Y-25435D02*
X49786Y-25435D01*
X49286Y-24935D02*
X48586Y-24935D01*
X49786Y-25435D02*
X49286Y-24935D01*
X48586Y-23935D02*
X47736Y-23935D01*
X47736Y-23935D02*
X47511Y-23710D01*
X48586Y-23935D02*
X49161Y-23935D01*
X49661Y-24435D02*
X50786Y-24435D01*
X49161Y-23935D02*
X49661Y-24435D01*
X49836Y-17835D02*
X50886Y-17835D01*
X47636Y-17335D02*
X48211Y-17335D01*
X48711Y-17835D02*
X49836Y-17835D01*
X48211Y-17335D02*
X48711Y-17835D01*
X49836Y-18835D02*
X50886Y-18835D01*
X47636Y-18335D02*
X48211Y-18335D01*
X48711Y-18835D02*
X49836Y-18835D01*
X48211Y-18335D02*
X48711Y-18835D01*
X49836Y-19835D02*
X51511Y-19835D01*
G54D63*
X48900Y-45419D02*
X49592Y-45419D01*
X49685Y-45821D02*
X49587Y-45919D01*
X49685Y-45511D02*
X49685Y-45821D01*
X49592Y-45419D02*
X49685Y-45511D01*
X49587Y-47165D02*
X49587Y-45919D01*
X49587Y-45919D02*
X48900Y-45919D01*
X51100Y-45919D02*
X50379Y-45919D01*
X50314Y-46321D02*
X50412Y-46419D01*
X50314Y-45984D02*
X50314Y-46321D01*
X50379Y-45919D02*
X50314Y-45984D01*
X50412Y-47165D02*
X50412Y-46419D01*
X50412Y-46419D02*
X51100Y-46419D01*
G54D11*
X56456Y-38937D02*
X57853Y-38937D01*
X55906Y-40187D02*
X55906Y-39487D01*
X55906Y-39487D02*
X56456Y-38937D01*
X57853Y-38937D02*
X58168Y-39251D01*
X56614Y-39133D02*
X57440Y-39133D01*
X56959Y-39527D02*
X56613Y-39527D01*
X56613Y-39527D02*
X56535Y-39448D01*
X56535Y-39448D02*
X56535Y-39212D01*
X56535Y-39212D02*
X56614Y-39133D01*
X57795Y-40039D02*
X58168Y-40039D01*
X57677Y-39921D02*
X57795Y-40039D01*
X57677Y-39370D02*
X57677Y-39921D01*
X57440Y-39133D02*
X57677Y-39370D01*
X56959Y-39330D02*
X57322Y-39330D01*
X57755Y-40826D02*
X58168Y-40826D01*
X57401Y-40472D02*
X57755Y-40826D01*
X57401Y-39409D02*
X57401Y-40472D01*
X57322Y-39330D02*
X57401Y-39409D01*
G54D61*
X60078Y-34154D02*
X60078Y-34745D01*
G54D11*
X59430Y-35393D02*
X56959Y-35393D01*
X59430Y-35393D02*
X60078Y-34745D01*
X51574Y-30511D02*
X53150Y-32087D01*
X51574Y-28935D02*
X51574Y-30511D01*
X53150Y-32087D02*
X53150Y-34143D01*
X53740Y-34143D02*
X53740Y-29174D01*
X53740Y-29174D02*
X53502Y-28937D01*
X53346Y-34143D02*
X53346Y-31574D01*
X52124Y-30353D02*
X52124Y-29842D01*
X53346Y-31574D02*
X52124Y-30353D01*
G54D63*
X51062Y-40039D02*
X50433Y-40669D01*
X51732Y-41123D02*
X51752Y-41102D01*
X51732Y-41653D02*
X51732Y-41123D01*
X51614Y-41771D02*
X51732Y-41653D01*
X50551Y-41771D02*
X51614Y-41771D01*
X50433Y-41653D02*
X50551Y-41771D01*
X50433Y-40669D02*
X50433Y-41653D01*
X51771Y-41121D02*
X51752Y-41102D01*
G54D61*
X56959Y-34803D02*
X56377Y-34803D01*
G54D68*
X55393Y-35275D02*
X55748Y-34921D01*
X55748Y-34921D02*
X56062Y-34921D01*
G54D64*
X55393Y-35275D02*
X54133Y-35275D01*
G54D61*
X56259Y-34921D02*
X56062Y-34921D01*
X56377Y-34803D02*
X56259Y-34921D01*
G54D66*
X40700Y-27834D02*
X40866Y-27669D01*
X40866Y-27669D02*
X40866Y-14921D01*
G54D61*
X51575Y-34143D02*
X51456Y-34143D01*
G54D64*
X50590Y-33878D02*
X51319Y-33878D01*
X51574Y-34803D02*
X51456Y-34685D01*
X51456Y-34685D02*
X51456Y-34143D01*
X51456Y-34143D02*
X51456Y-34015D01*
X51574Y-34803D02*
X51574Y-35275D01*
X51456Y-34015D02*
X51319Y-33878D01*
G54D62*
X50196Y-33897D02*
X50571Y-33897D01*
X50571Y-33897D02*
X50590Y-33878D01*
G54D61*
X56959Y-34803D02*
X56968Y-34793D01*
G54D63*
X56968Y-34073D02*
X56968Y-34527D01*
X56968Y-34073D02*
X57223Y-33818D01*
G54D61*
X56968Y-34793D02*
X56968Y-34527D01*
G54D67*
X72748Y-33228D02*
X72744Y-33228D01*
G54D62*
X66456Y-35718D02*
X66525Y-35787D01*
X68543Y-32401D02*
X66456Y-34488D01*
X71918Y-32401D02*
X68543Y-32401D01*
X71918Y-32401D02*
X72283Y-32766D01*
X66456Y-34488D02*
X66456Y-35718D01*
G54D67*
X72744Y-33228D02*
X72283Y-32766D01*
G54D65*
X72748Y-33228D02*
X73937Y-33228D01*
X80236Y-20314D02*
X80236Y-26929D01*
X76535Y-14921D02*
X78700Y-17086D01*
X76535Y-14921D02*
X58267Y-14921D01*
X78700Y-18779D02*
X80236Y-20314D01*
X78700Y-17086D02*
X78700Y-18779D01*
X80236Y-26929D02*
X73937Y-33228D01*
G54D66*
X58267Y-16212D02*
X58267Y-14921D01*
X36299Y-30511D02*
X45000Y-30511D01*
X36299Y-30511D02*
X36220Y-30433D01*
X36220Y-30433D02*
X36220Y-28779D01*
X36220Y-28779D02*
X35708Y-28267D01*
X34724Y-28267D02*
X35708Y-28267D01*
X47007Y-33149D02*
X47440Y-33582D01*
X47007Y-30826D02*
X47007Y-33149D01*
X46574Y-30393D02*
X47007Y-30826D01*
X45118Y-30393D02*
X46574Y-30393D01*
X45000Y-30511D02*
X45118Y-30393D01*
G54D65*
X23543Y-45866D02*
X26811Y-45866D01*
X23543Y-27913D02*
X23543Y-45866D01*
X28188Y-47244D02*
X28188Y-51259D01*
X26811Y-45866D02*
X28188Y-47244D01*
X57795Y-46062D02*
X57795Y-51259D01*
X28188Y-51259D02*
X57795Y-51259D01*
X26811Y-19960D02*
X28188Y-18582D01*
X28188Y-18582D02*
X28188Y-14921D01*
X23543Y-19960D02*
X23543Y-27913D01*
X23543Y-19960D02*
X26811Y-19960D01*
X23543Y-27913D02*
X29370Y-27913D01*
X29370Y-27913D02*
X29763Y-28307D01*
G54D67*
X29901Y-28444D02*
X29763Y-28307D01*
G54D63*
X49881Y-33582D02*
X49881Y-33031D01*
G54D66*
X49212Y-33582D02*
X47440Y-33582D01*
G54D62*
X49881Y-33582D02*
X49212Y-33582D01*
X50196Y-33897D02*
X49881Y-33582D01*
G54D64*
X51574Y-35275D02*
X51574Y-36692D01*
X51574Y-36692D02*
X51496Y-36771D01*
X52165Y-38346D02*
X52519Y-38346D01*
X52519Y-38346D02*
X53661Y-37204D01*
X53661Y-37204D02*
X53661Y-36220D01*
X53661Y-36220D02*
X54133Y-36220D01*
X54133Y-36220D02*
X54133Y-35275D01*
X51574Y-35275D02*
X54133Y-35275D01*
G54D61*
X50915Y-36771D02*
X51496Y-36771D01*
G54D63*
X50590Y-33878D02*
X50569Y-33858D01*
G54D61*
X62637Y-32165D02*
X58030Y-32165D01*
G54D63*
X63496Y-30287D02*
X62992Y-30791D01*
G54D61*
X62992Y-31811D02*
X62992Y-30791D01*
X62637Y-32165D02*
X62992Y-31811D01*
X58030Y-32165D02*
X57223Y-32972D01*
G54D62*
X66525Y-35787D02*
X67352Y-35787D01*
X67352Y-35787D02*
X67480Y-35915D01*
G54D63*
X67480Y-35915D02*
X67480Y-38110D01*
G54D65*
X58267Y-14921D02*
X40866Y-14921D01*
X40866Y-14921D02*
X31102Y-14921D01*
G54D66*
X31102Y-17163D02*
X31102Y-14921D01*
G54D65*
X28188Y-14921D02*
X31102Y-14921D01*
G54D67*
X29901Y-28444D02*
X31141Y-28444D01*
G54D66*
X34724Y-28267D02*
X33622Y-28267D01*
G54D67*
X32263Y-28444D02*
X32440Y-28267D01*
X32440Y-28267D02*
X33622Y-28267D01*
X32263Y-28444D02*
X31141Y-28444D01*
G54D64*
X65433Y-47322D02*
X65433Y-46062D01*
G54D62*
X57795Y-46062D02*
X65433Y-46062D01*
G54D63*
X67480Y-38110D02*
X66101Y-38110D01*
X66101Y-38110D02*
X66062Y-38072D01*
X68818Y-38110D02*
X67480Y-38110D01*
G54D65*
X57795Y-46062D02*
X57795Y-42322D01*
G54D62*
X57795Y-41811D02*
X57795Y-42322D01*
X57223Y-41239D02*
X57795Y-41811D01*
X57223Y-41239D02*
X56614Y-41239D01*
G54D64*
X70118Y-46061D02*
X65433Y-46062D01*
X64248Y-49775D02*
X64948Y-49775D01*
X64948Y-49775D02*
X65433Y-49291D01*
X65433Y-49291D02*
X65433Y-47322D01*
X65433Y-47322D02*
X64259Y-47322D01*
G54D63*
X72480Y-46692D02*
X70749Y-46692D01*
X70749Y-46692D02*
X70118Y-46061D01*
X74213Y-48031D02*
X73818Y-48031D01*
G54D61*
X72006Y-44959D02*
X72480Y-45433D01*
X72480Y-45433D02*
X72480Y-46692D01*
X72006Y-44959D02*
X71220Y-44959D01*
G54D63*
X73818Y-48031D02*
X72480Y-46692D01*
X56614Y-41239D02*
X56614Y-40944D01*
X56614Y-40944D02*
X56377Y-40708D01*
G54D61*
X56299Y-40629D02*
X56299Y-40187D01*
X56299Y-40629D02*
X56377Y-40708D01*
G54D63*
X57223Y-33818D02*
X57223Y-32972D01*
X57223Y-32972D02*
X56849Y-32598D01*
G54D61*
X51338Y-38346D02*
X50915Y-38346D01*
G54D11*
X50915Y-38346D02*
X50915Y-38346D01*
G54D63*
X52165Y-38346D02*
X51338Y-38346D01*
G54D61*
X51968Y-40187D02*
X51968Y-40887D01*
G54D11*
X51968Y-40887D02*
X51752Y-41102D01*
G54D63*
X68818Y-38110D02*
X68937Y-38110D01*
G54D61*
X69055Y-37992D02*
X69366Y-37992D01*
X68937Y-38110D02*
X69055Y-37992D01*
G54D10*
G36*
X46721Y-46987D02*
X45637Y-46987D01*
X45637Y-46449D01*
X45605Y-46373D01*
X45547Y-46315D01*
X45471Y-46283D01*
X45389Y-46283D01*
X45198Y-46283D01*
X45198Y-44719D01*
X45198Y-44661D01*
X45198Y-44416D01*
X45198Y-44165D01*
X45198Y-43919D01*
X45198Y-43861D01*
X45175Y-43806D01*
X45134Y-43765D01*
X45080Y-43742D01*
X44456Y-43742D01*
X44419Y-43779D01*
X44419Y-44201D01*
X45161Y-44201D01*
X45198Y-44165D01*
X45198Y-44416D01*
X45161Y-44379D01*
X44419Y-44379D01*
X44419Y-44801D01*
X44456Y-44838D01*
X45080Y-44838D01*
X45134Y-44815D01*
X45175Y-44774D01*
X45198Y-44719D01*
X45198Y-46283D01*
X44989Y-46283D01*
X44913Y-46315D01*
X44900Y-46328D01*
X44900Y-45907D01*
X44242Y-45907D01*
X44242Y-44801D01*
X44242Y-44379D01*
X44242Y-44201D01*
X44242Y-43779D01*
X44205Y-43742D01*
X43581Y-43742D01*
X43527Y-43765D01*
X43485Y-43806D01*
X43463Y-43861D01*
X43463Y-43919D01*
X43463Y-44165D01*
X43499Y-44201D01*
X44242Y-44201D01*
X44242Y-44379D01*
X43499Y-44379D01*
X43463Y-44416D01*
X43463Y-44661D01*
X43463Y-44719D01*
X43485Y-44774D01*
X43527Y-44815D01*
X43581Y-44838D01*
X44205Y-44838D01*
X44242Y-44801D01*
X44242Y-45907D01*
X43740Y-45907D01*
X43740Y-46312D01*
X43671Y-46283D01*
X43589Y-46283D01*
X43189Y-46283D01*
X43113Y-46315D01*
X43055Y-46373D01*
X43024Y-46449D01*
X43024Y-46531D01*
X43024Y-46987D01*
X41920Y-46987D01*
X41920Y-42036D01*
X46721Y-42036D01*
X46721Y-46987D01*
X46721Y-46987D01*
G37*
G54D11*
X46721Y-46987D02*
X45637Y-46987D01*
X45637Y-46449D01*
X45605Y-46373D01*
X45547Y-46315D01*
X45471Y-46283D01*
X45389Y-46283D01*
X45198Y-46283D01*
X45198Y-44719D01*
X45198Y-44661D01*
X45198Y-44416D01*
X45198Y-44165D01*
X45198Y-43919D01*
X45198Y-43861D01*
X45175Y-43806D01*
X45134Y-43765D01*
X45080Y-43742D01*
X44456Y-43742D01*
X44419Y-43779D01*
X44419Y-44201D01*
X45161Y-44201D01*
X45198Y-44165D01*
X45198Y-44416D01*
X45161Y-44379D01*
X44419Y-44379D01*
X44419Y-44801D01*
X44456Y-44838D01*
X45080Y-44838D01*
X45134Y-44815D01*
X45175Y-44774D01*
X45198Y-44719D01*
X45198Y-46283D01*
X44989Y-46283D01*
X44913Y-46315D01*
X44900Y-46328D01*
X44900Y-45907D01*
X44242Y-45907D01*
X44242Y-44801D01*
X44242Y-44379D01*
X44242Y-44201D01*
X44242Y-43779D01*
X44205Y-43742D01*
X43581Y-43742D01*
X43527Y-43765D01*
X43485Y-43806D01*
X43463Y-43861D01*
X43463Y-43919D01*
X43463Y-44165D01*
X43499Y-44201D01*
X44242Y-44201D01*
X44242Y-44379D01*
X43499Y-44379D01*
X43463Y-44416D01*
X43463Y-44661D01*
X43463Y-44719D01*
X43485Y-44774D01*
X43527Y-44815D01*
X43581Y-44838D01*
X44205Y-44838D01*
X44242Y-44801D01*
X44242Y-45907D01*
X43740Y-45907D01*
X43740Y-46312D01*
X43671Y-46283D01*
X43589Y-46283D01*
X43189Y-46283D01*
X43113Y-46315D01*
X43055Y-46373D01*
X43024Y-46449D01*
X43024Y-46531D01*
X43024Y-46987D01*
X41920Y-46987D01*
X41920Y-42036D01*
X46721Y-42036D01*
X46721Y-46987D01*
G54D10*
G36*
X78900Y-37466D02*
X78829Y-37537D01*
X78670Y-37537D01*
X78599Y-37466D01*
X78599Y-37066D01*
X78420Y-36887D01*
X78299Y-36887D01*
X78299Y-36786D01*
X78420Y-36786D01*
X78599Y-36607D01*
X78599Y-36207D01*
X78670Y-36136D01*
X78829Y-36136D01*
X78900Y-36207D01*
X78900Y-37466D01*
X78900Y-37466D01*
G37*
G54D11*
X78900Y-37466D02*
X78829Y-37537D01*
X78670Y-37537D01*
X78599Y-37466D01*
X78599Y-37066D01*
X78420Y-36887D01*
X78299Y-36887D01*
X78299Y-36786D01*
X78420Y-36786D01*
X78599Y-36607D01*
X78599Y-36207D01*
X78670Y-36136D01*
X78829Y-36136D01*
X78900Y-36207D01*
X78900Y-37466D01*
G54D10*
G36*
X78900Y-39966D02*
X78829Y-40037D01*
X78670Y-40037D01*
X78599Y-39966D01*
X78599Y-39566D01*
X78420Y-39387D01*
X78299Y-39387D01*
X78299Y-39286D01*
X78420Y-39286D01*
X78599Y-39107D01*
X78599Y-38707D01*
X78670Y-38636D01*
X78829Y-38636D01*
X78900Y-38707D01*
X78900Y-39966D01*
X78900Y-39966D01*
G37*
G54D11*
X78900Y-39966D02*
X78829Y-40037D01*
X78670Y-40037D01*
X78599Y-39966D01*
X78599Y-39566D01*
X78420Y-39387D01*
X78299Y-39387D01*
X78299Y-39286D01*
X78420Y-39286D01*
X78599Y-39107D01*
X78599Y-38707D01*
X78670Y-38636D01*
X78829Y-38636D01*
X78900Y-38707D01*
X78900Y-39966D01*
G54D10*
G36*
X77100Y-38634D02*
X75962Y-38634D01*
X75962Y-38598D01*
X75925Y-38598D01*
X75962Y-38561D01*
X75962Y-38361D01*
X75962Y-38302D01*
X75940Y-38248D01*
X75898Y-38206D01*
X75844Y-38184D01*
X75625Y-38184D01*
X75588Y-38221D01*
X75588Y-38598D01*
X75596Y-38598D01*
X75596Y-38634D01*
X75403Y-38634D01*
X75403Y-38598D01*
X75411Y-38598D01*
X75411Y-38221D01*
X75374Y-38184D01*
X75299Y-38184D01*
X75299Y-37989D01*
X75374Y-37989D01*
X75411Y-37952D01*
X75411Y-37575D01*
X75403Y-37575D01*
X75403Y-37532D01*
X75596Y-37532D01*
X75596Y-37575D01*
X75588Y-37575D01*
X75588Y-37952D01*
X75625Y-37989D01*
X75844Y-37989D01*
X75898Y-37967D01*
X75940Y-37925D01*
X75962Y-37871D01*
X75962Y-37812D01*
X75962Y-37612D01*
X75925Y-37575D01*
X75962Y-37575D01*
X75962Y-37532D01*
X77100Y-37532D01*
X77100Y-38634D01*
X77100Y-38634D01*
G37*
G54D11*
X77100Y-38634D02*
X75962Y-38634D01*
X75962Y-38598D01*
X75925Y-38598D01*
X75962Y-38561D01*
X75962Y-38361D01*
X75962Y-38302D01*
X75940Y-38248D01*
X75898Y-38206D01*
X75844Y-38184D01*
X75625Y-38184D01*
X75588Y-38221D01*
X75588Y-38598D01*
X75596Y-38598D01*
X75596Y-38634D01*
X75403Y-38634D01*
X75403Y-38598D01*
X75411Y-38598D01*
X75411Y-38221D01*
X75374Y-38184D01*
X75299Y-38184D01*
X75299Y-37989D01*
X75374Y-37989D01*
X75411Y-37952D01*
X75411Y-37575D01*
X75403Y-37575D01*
X75403Y-37532D01*
X75596Y-37532D01*
X75596Y-37575D01*
X75588Y-37575D01*
X75588Y-37952D01*
X75625Y-37989D01*
X75844Y-37989D01*
X75898Y-37967D01*
X75940Y-37925D01*
X75962Y-37871D01*
X75962Y-37812D01*
X75962Y-37612D01*
X75925Y-37575D01*
X75962Y-37575D01*
X75962Y-37532D01*
X77100Y-37532D01*
X77100Y-38634D01*
M02*
