%FSLAX34Y34*%
G04 Gerber Fmt 3.4, Leading zero omitted, Abs format*
G04 (created by PCBNEW (2014-02-24 BZR 4719)-product) date Чт. 20 марта 2014 02:52:29*
%MOIN*%
G01*
G70*
G90*
G04 APERTURE LIST*
%ADD10C,0.005906*%
%ADD11C,0.118110*%
%ADD12R,0.137795X0.137795*%
%ADD13C,0.137795*%
%ADD14R,0.078740X0.078740*%
%ADD15C,0.078740*%
%ADD16O,0.137800X0.216600*%
%ADD17C,0.078700*%
%ADD18O,0.118110X0.157480*%
%ADD19O,0.118100X0.078700*%
%ADD20O,0.078700X0.118100*%
%ADD21R,0.090000X0.062000*%
%ADD22O,0.090000X0.062000*%
%ADD23O,0.074800X0.059100*%
%ADD24O,0.059100X0.074800*%
%ADD25R,0.062992X0.062992*%
%ADD26C,0.062992*%
%ADD27R,0.070866X0.070866*%
%ADD28C,0.070866*%
%ADD29C,0.059100*%
%ADD30R,0.059055X0.059055*%
%ADD31C,0.059055*%
%ADD32C,0.094488*%
%ADD33C,0.098425*%
%ADD34C,0.303150*%
%ADD35C,0.039370*%
%ADD36C,0.059055*%
%ADD37C,0.118110*%
%ADD38C,0.098425*%
%ADD39C,0.078740*%
G04 APERTURE END LIST*
G54D10*
X26102Y-61850D02*
X90275Y-61850D01*
X90275Y-10669D02*
X26102Y-10669D01*
X26102Y-61850D02*
X26102Y-10669D01*
X90275Y-10669D02*
X90275Y-61850D01*
G54D11*
X42244Y-26811D03*
X42244Y-24763D03*
X42244Y-31062D03*
X42244Y-33110D03*
G54D12*
X42598Y-38976D03*
G54D13*
X38661Y-38976D03*
G54D12*
X71574Y-29527D03*
G54D13*
X71574Y-33464D03*
G54D12*
X48385Y-34055D03*
G54D13*
X48385Y-30118D03*
G54D14*
X83956Y-41811D03*
G54D15*
X86909Y-41811D03*
G54D11*
X48590Y-47952D03*
X42590Y-47952D03*
X40283Y-47952D03*
X34283Y-47952D03*
X48590Y-52795D03*
X42590Y-52795D03*
X40283Y-52795D03*
X34283Y-52795D03*
G54D16*
X41653Y-14409D03*
X39453Y-14409D03*
X43853Y-14409D03*
G54D17*
X31417Y-37921D03*
X31417Y-41921D03*
X29055Y-41921D03*
X29055Y-37921D03*
X30236Y-37921D03*
X30236Y-41921D03*
X27913Y-41921D03*
X27913Y-37921D03*
X36578Y-16653D03*
X33578Y-16653D03*
X34582Y-24216D03*
X34582Y-21216D03*
X71566Y-39055D03*
X67566Y-39055D03*
X71566Y-37952D03*
X67566Y-37952D03*
X52984Y-44173D03*
X48984Y-44173D03*
X52984Y-42992D03*
X48984Y-42992D03*
X67566Y-41259D03*
X71566Y-41259D03*
X67566Y-40157D03*
X71566Y-40157D03*
X48984Y-46535D03*
X52984Y-46535D03*
X48984Y-45354D03*
X52984Y-45354D03*
G54D11*
X62204Y-36110D03*
X62204Y-30110D03*
X55905Y-30110D03*
X55905Y-36110D03*
X64803Y-36110D03*
X64803Y-30110D03*
X58503Y-30110D03*
X58503Y-36110D03*
G54D17*
X60901Y-19527D03*
X63901Y-19527D03*
X56846Y-19527D03*
X59846Y-19527D03*
X72720Y-16653D03*
X69720Y-16653D03*
X46728Y-16653D03*
X49728Y-16653D03*
X72720Y-20078D03*
X69720Y-20078D03*
X46728Y-21259D03*
X49728Y-21259D03*
X63066Y-25472D03*
X66066Y-25472D03*
X77173Y-45551D03*
X81173Y-45551D03*
X81173Y-43346D03*
X77173Y-43346D03*
G54D11*
X69480Y-45472D03*
X75480Y-45472D03*
X69480Y-49724D03*
X75480Y-49724D03*
G54D17*
X77173Y-46653D03*
X81173Y-46653D03*
X81173Y-44448D03*
X77173Y-44448D03*
G54D11*
X69480Y-43346D03*
X75480Y-43346D03*
X69480Y-47598D03*
X75480Y-47598D03*
G54D17*
X79011Y-26574D03*
X82011Y-26574D03*
X82129Y-16653D03*
X79129Y-16653D03*
X86303Y-19527D03*
X83303Y-19527D03*
X79523Y-36417D03*
X82523Y-36417D03*
G54D18*
X58015Y-50236D03*
X56456Y-50236D03*
X54897Y-50236D03*
X53338Y-50236D03*
X59574Y-50236D03*
X61133Y-50236D03*
X62692Y-50236D03*
X64251Y-50236D03*
X67370Y-50236D03*
X65811Y-50236D03*
G54D11*
X80433Y-58740D03*
X82086Y-58740D03*
X82086Y-57086D03*
X80433Y-57086D03*
X80433Y-55433D03*
X82086Y-55433D03*
X82086Y-53779D03*
X80433Y-53779D03*
X82086Y-52125D03*
X80433Y-52125D03*
X30078Y-58740D03*
X28425Y-58740D03*
X28425Y-57086D03*
X30078Y-57086D03*
X30078Y-55433D03*
X28425Y-55433D03*
X30078Y-53779D03*
X28425Y-53779D03*
X55708Y-58740D03*
X54055Y-58740D03*
X54055Y-57086D03*
X55708Y-57086D03*
X55708Y-55433D03*
X54055Y-55433D03*
X55708Y-53779D03*
X54055Y-53779D03*
X66614Y-58740D03*
X64960Y-58740D03*
X64960Y-57086D03*
X66614Y-57086D03*
X66614Y-55433D03*
X64960Y-55433D03*
X66614Y-53779D03*
X64960Y-53779D03*
G54D16*
X35078Y-14409D03*
X32878Y-14409D03*
X37278Y-14409D03*
G54D19*
X34582Y-19330D03*
G54D20*
X33582Y-18330D03*
X33582Y-20330D03*
G54D19*
X34787Y-34291D03*
G54D20*
X35787Y-35291D03*
X35787Y-33291D03*
G54D16*
X71220Y-14409D03*
X69020Y-14409D03*
X73420Y-14409D03*
X48228Y-14409D03*
X46028Y-14409D03*
X50428Y-14409D03*
G54D20*
X61889Y-17267D03*
G54D19*
X60889Y-18267D03*
X62889Y-18267D03*
G54D20*
X58346Y-18322D03*
G54D19*
X59346Y-17322D03*
X57346Y-17322D03*
X68440Y-19960D03*
G54D20*
X67440Y-18960D03*
X67440Y-20960D03*
G54D19*
X46511Y-23897D03*
G54D20*
X45511Y-22897D03*
X45511Y-24897D03*
G54D16*
X81338Y-14409D03*
X79138Y-14409D03*
X83538Y-14409D03*
G54D20*
X80511Y-24314D03*
G54D19*
X79511Y-25314D03*
X81511Y-25314D03*
G54D20*
X80866Y-19511D03*
G54D19*
X79866Y-20511D03*
X81866Y-20511D03*
X28818Y-19763D03*
G54D20*
X29818Y-20763D03*
X29818Y-18763D03*
X32007Y-30055D03*
G54D19*
X33007Y-29055D03*
X31007Y-29055D03*
G54D20*
X63464Y-12110D03*
G54D19*
X62464Y-13110D03*
X64464Y-13110D03*
G54D20*
X58346Y-15645D03*
G54D19*
X59346Y-14645D03*
X57346Y-14645D03*
G54D21*
X58854Y-21295D03*
G54D22*
X58854Y-22295D03*
X58854Y-23295D03*
X58854Y-24295D03*
X61854Y-24295D03*
X61854Y-23295D03*
X61854Y-22295D03*
X61854Y-21295D03*
G54D20*
X85433Y-22889D03*
G54D19*
X86433Y-21889D03*
X84433Y-21889D03*
G54D21*
X79011Y-27909D03*
G54D22*
X79011Y-28909D03*
X79011Y-29909D03*
X79011Y-30909D03*
X82011Y-30909D03*
X82011Y-29909D03*
X82011Y-28909D03*
X82011Y-27909D03*
G54D23*
X34779Y-29370D03*
X34779Y-30354D03*
X34779Y-31338D03*
G54D24*
X62795Y-27913D03*
X63779Y-27913D03*
X64763Y-27913D03*
X55866Y-27913D03*
X56850Y-27913D03*
X57834Y-27913D03*
X78937Y-34803D03*
X79921Y-34803D03*
X80905Y-34803D03*
G54D17*
X67362Y-46354D03*
X67362Y-44354D03*
X62677Y-44196D03*
X62677Y-46196D03*
X60354Y-44433D03*
X60354Y-46433D03*
X33149Y-49393D03*
X33149Y-51393D03*
G54D25*
X31220Y-43681D03*
G54D26*
X31220Y-44665D03*
G54D25*
X28070Y-43681D03*
G54D26*
X28070Y-44665D03*
G54D27*
X33051Y-39921D03*
G54D28*
X34429Y-39921D03*
G54D17*
X32181Y-20763D03*
X32181Y-18763D03*
X33456Y-24212D03*
X31456Y-24212D03*
G54D29*
X32496Y-32244D03*
X30496Y-32244D03*
G54D30*
X75866Y-52559D03*
G54D31*
X75866Y-53346D03*
G54D27*
X64803Y-39586D03*
G54D28*
X64803Y-38208D03*
G54D27*
X56712Y-44173D03*
G54D28*
X55334Y-44173D03*
G54D27*
X64803Y-41712D03*
G54D28*
X64803Y-43090D03*
G54D27*
X56023Y-39940D03*
G54D28*
X56023Y-41318D03*
G54D27*
X75236Y-39881D03*
G54D28*
X75236Y-37913D03*
G54D27*
X49409Y-39921D03*
G54D28*
X47440Y-39921D03*
G54D17*
X63921Y-17007D03*
X65921Y-17007D03*
X55866Y-14629D03*
X55866Y-16629D03*
G54D25*
X61338Y-25885D03*
G54D26*
X61338Y-26870D03*
G54D15*
X72716Y-21401D03*
X72716Y-23401D03*
G54D29*
X66078Y-26496D03*
X64078Y-26496D03*
G54D15*
X51299Y-23401D03*
X51299Y-21401D03*
G54D25*
X58307Y-58405D03*
G54D26*
X58307Y-57421D03*
G54D25*
X61181Y-57421D03*
G54D26*
X61181Y-58405D03*
G54D25*
X78444Y-48818D03*
G54D26*
X77460Y-48818D03*
G54D25*
X80787Y-48326D03*
G54D26*
X80787Y-49311D03*
G54D27*
X84921Y-48149D03*
G54D28*
X86889Y-48149D03*
G54D17*
X84645Y-26874D03*
X84645Y-28874D03*
G54D25*
X79980Y-40314D03*
G54D26*
X80964Y-40314D03*
G54D17*
X85944Y-26874D03*
X85944Y-28874D03*
G54D29*
X82299Y-37362D03*
X80299Y-37362D03*
G54D10*
G36*
X86392Y-53862D02*
X85891Y-53361D01*
X86392Y-52860D01*
X86893Y-53361D01*
X86392Y-53862D01*
X86392Y-53862D01*
G37*
G54D28*
X85418Y-52386D03*
G54D32*
X44456Y-45748D03*
X38456Y-45748D03*
G54D17*
X27519Y-17409D03*
X27519Y-21409D03*
X29062Y-36141D03*
X33062Y-36141D03*
X28748Y-17401D03*
X32748Y-17401D03*
X32685Y-22165D03*
X28685Y-22165D03*
X35905Y-18000D03*
X35905Y-22000D03*
G54D33*
X37283Y-32090D03*
X37283Y-23419D03*
G54D17*
X28779Y-23354D03*
X28779Y-27354D03*
X31440Y-25393D03*
X35440Y-25393D03*
X30196Y-27354D03*
X30196Y-23354D03*
X31440Y-26574D03*
X35440Y-26574D03*
X35440Y-27755D03*
X31440Y-27755D03*
X30007Y-33267D03*
X34007Y-33267D03*
X28779Y-29062D03*
X28779Y-33062D03*
X43110Y-17842D03*
X43110Y-21842D03*
X39653Y-16653D03*
X43653Y-16653D03*
X69220Y-17795D03*
X73220Y-17795D03*
X65464Y-14527D03*
X61464Y-14527D03*
X65464Y-15629D03*
X61464Y-15629D03*
X56346Y-13346D03*
X60346Y-13346D03*
X56346Y-12244D03*
X60346Y-12244D03*
X46228Y-18976D03*
X50228Y-18976D03*
X66811Y-11897D03*
X66811Y-15897D03*
X46228Y-17795D03*
X50228Y-17795D03*
X65039Y-22275D03*
X65039Y-18275D03*
X55669Y-21803D03*
X55669Y-17803D03*
X73220Y-18937D03*
X69220Y-18937D03*
X50228Y-20157D03*
X46228Y-20157D03*
G54D32*
X75590Y-20401D03*
X75590Y-14401D03*
X52952Y-20401D03*
X52952Y-14401D03*
G54D17*
X66181Y-22275D03*
X66181Y-18275D03*
X54566Y-21803D03*
X54566Y-17803D03*
X73220Y-24566D03*
X69220Y-24566D03*
X50952Y-24566D03*
X54952Y-24566D03*
X67078Y-24291D03*
X63078Y-24291D03*
X74251Y-24086D03*
X74251Y-20086D03*
X69574Y-25708D03*
X73574Y-25708D03*
X68149Y-26055D03*
X68149Y-22055D03*
X49724Y-22566D03*
X49724Y-26566D03*
X50952Y-25708D03*
X54952Y-25708D03*
X73771Y-58740D03*
X69771Y-58740D03*
X76133Y-57086D03*
X72133Y-57086D03*
X78866Y-23031D03*
X82866Y-23031D03*
X78866Y-21889D03*
X82866Y-21889D03*
X82881Y-24212D03*
X86881Y-24212D03*
X82881Y-25314D03*
X86881Y-25314D03*
X83464Y-30897D03*
X83464Y-26897D03*
X84874Y-18070D03*
X80874Y-18070D03*
G54D32*
X88661Y-23354D03*
X88661Y-17354D03*
G54D17*
X78944Y-32125D03*
X82944Y-32125D03*
X82944Y-33228D03*
X78944Y-33228D03*
X83023Y-38346D03*
X79023Y-38346D03*
X87125Y-30858D03*
X87125Y-26858D03*
X85944Y-34086D03*
X85944Y-30086D03*
X83629Y-36417D03*
X87629Y-36417D03*
X88661Y-55070D03*
X88661Y-51070D03*
G54D34*
X29645Y-49606D03*
G54D31*
X29645Y-48503D03*
X30590Y-49055D03*
X30590Y-50157D03*
X29645Y-50708D03*
X28700Y-50157D03*
X28700Y-49055D03*
G54D34*
X29645Y-14409D03*
G54D31*
X29645Y-13307D03*
X30590Y-13858D03*
X30590Y-14960D03*
X29645Y-15511D03*
X28700Y-14960D03*
X28700Y-13858D03*
G54D34*
X86732Y-14409D03*
G54D31*
X86732Y-13307D03*
X87677Y-13858D03*
X87677Y-14960D03*
X86732Y-15511D03*
X85787Y-14960D03*
X85787Y-13858D03*
G54D34*
X86732Y-58307D03*
G54D31*
X86732Y-57204D03*
X87677Y-57755D03*
X87677Y-58858D03*
X86732Y-59409D03*
X85787Y-58858D03*
X85787Y-57755D03*
G54D26*
X62692Y-47480D03*
X62692Y-48503D03*
X40275Y-57086D03*
X38897Y-57086D03*
X37519Y-57086D03*
X43031Y-57086D03*
X41653Y-57086D03*
G54D35*
X60393Y-21968D02*
X60393Y-25354D01*
X61066Y-21295D02*
X60393Y-21968D01*
X61854Y-21295D02*
X61066Y-21295D01*
X60393Y-25354D02*
X57834Y-27913D01*
G54D36*
X69771Y-58740D02*
X68862Y-57830D01*
G54D37*
X73582Y-28307D02*
X73582Y-53110D01*
X75590Y-20401D02*
X75590Y-26299D01*
X75590Y-26299D02*
X73582Y-28307D01*
X67952Y-58740D02*
X66614Y-58740D01*
X70787Y-55905D02*
X68862Y-57830D01*
X68862Y-57830D02*
X69000Y-57692D01*
X69000Y-57692D02*
X67952Y-58740D01*
X70787Y-55905D02*
X70787Y-55905D01*
X73582Y-53110D02*
X70787Y-55905D01*
G54D36*
X68149Y-22055D02*
X72062Y-22055D01*
X72062Y-22055D02*
X72716Y-21401D01*
G54D35*
X76968Y-36692D02*
X76968Y-38858D01*
X76968Y-38858D02*
X75944Y-39881D01*
X75944Y-39881D02*
X75236Y-39881D01*
X73220Y-17795D02*
X75905Y-17795D01*
X76968Y-18858D02*
X76968Y-36692D01*
X75905Y-17795D02*
X76968Y-18858D01*
G54D38*
X71574Y-29527D02*
X69566Y-31535D01*
X69566Y-31535D02*
X69566Y-41496D01*
X69566Y-41496D02*
X71299Y-43228D01*
X71299Y-43228D02*
X71299Y-46811D01*
X71299Y-46811D02*
X70511Y-47598D01*
X70511Y-47598D02*
X69480Y-47598D01*
G54D36*
X58854Y-24295D02*
X57877Y-24295D01*
X56732Y-23149D02*
X52952Y-23149D01*
X57877Y-24295D02*
X56732Y-23149D01*
G54D37*
X77003Y-57956D02*
X76885Y-58074D01*
X64960Y-60393D02*
X74566Y-60393D01*
X76885Y-58074D02*
X74566Y-60393D01*
G54D36*
X76133Y-57086D02*
X77003Y-57956D01*
X61181Y-58405D02*
X61181Y-60393D01*
G54D37*
X52952Y-40314D02*
X50984Y-42283D01*
X50984Y-42283D02*
X50984Y-57677D01*
X52047Y-58740D02*
X54055Y-58740D01*
X50984Y-57677D02*
X52047Y-58740D01*
X52952Y-20401D02*
X52952Y-23149D01*
X52952Y-23149D02*
X52952Y-40314D01*
X54055Y-60393D02*
X28425Y-60393D01*
X28425Y-60393D02*
X28425Y-58740D01*
X54055Y-58740D02*
X54055Y-60393D01*
X54055Y-60393D02*
X61181Y-60393D01*
X61181Y-60393D02*
X64960Y-60393D01*
X64960Y-58740D02*
X64960Y-60393D01*
X77874Y-57086D02*
X77003Y-57956D01*
X77874Y-57086D02*
X80433Y-57086D01*
G54D35*
X45511Y-24897D02*
X48488Y-24897D01*
X49724Y-23661D02*
X49724Y-22566D01*
X48488Y-24897D02*
X49724Y-23661D01*
X44291Y-19566D02*
X44291Y-36771D01*
X44881Y-18976D02*
X44291Y-19566D01*
X46228Y-18976D02*
X44881Y-18976D01*
X44291Y-36771D02*
X47440Y-39921D01*
G54D37*
X55905Y-36110D02*
X55905Y-37322D01*
X62204Y-37322D02*
X62204Y-36110D01*
X61377Y-38149D02*
X62204Y-37322D01*
X56732Y-38149D02*
X61377Y-38149D01*
X55905Y-37322D02*
X56732Y-38149D01*
X58503Y-36110D02*
X58503Y-34921D01*
X64803Y-34921D02*
X64803Y-36110D01*
X63976Y-34094D02*
X64803Y-34921D01*
X59330Y-34094D02*
X63976Y-34094D01*
X58503Y-34921D02*
X59330Y-34094D01*
G54D35*
X37283Y-32090D02*
X37283Y-28417D01*
X37283Y-28417D02*
X35440Y-26574D01*
G54D36*
X31417Y-37921D02*
X36094Y-37921D01*
X40708Y-28346D02*
X42244Y-26811D01*
X40708Y-33307D02*
X40708Y-28346D01*
X36094Y-37921D02*
X40708Y-33307D01*
G54D37*
X58015Y-50236D02*
X56456Y-50236D01*
X34283Y-47952D02*
X34283Y-48259D01*
X34283Y-48259D02*
X33149Y-49393D01*
X48590Y-47952D02*
X48582Y-47960D01*
X35858Y-49527D02*
X48582Y-49527D01*
X35858Y-49527D02*
X34283Y-47952D01*
X48582Y-47960D02*
X48582Y-49527D01*
X53338Y-50236D02*
X54897Y-50236D01*
X34283Y-52795D02*
X34283Y-52527D01*
X34283Y-52527D02*
X33149Y-51393D01*
X34283Y-52795D02*
X35858Y-51220D01*
X35858Y-51220D02*
X48582Y-51220D01*
X48582Y-52787D02*
X48590Y-52795D01*
X48582Y-51220D02*
X48582Y-52787D01*
G54D39*
X86392Y-53361D02*
X83740Y-56013D01*
X83740Y-58740D02*
X82086Y-58740D01*
X83740Y-56013D02*
X83740Y-58740D01*
X88661Y-51070D02*
X86392Y-53339D01*
X86392Y-53339D02*
X86392Y-53361D01*
X88661Y-36417D02*
X88661Y-51070D01*
X87629Y-36417D02*
X88661Y-36417D01*
X87125Y-26858D02*
X88661Y-26858D01*
X88622Y-26889D02*
X88661Y-26889D01*
X88629Y-26889D02*
X88622Y-26889D01*
X88661Y-26858D02*
X88629Y-26889D01*
X88661Y-23354D02*
X88661Y-26889D01*
X88661Y-26889D02*
X88661Y-36417D01*
G54D35*
X77913Y-34330D02*
X77913Y-40787D01*
X77913Y-23984D02*
X77913Y-34330D01*
X78866Y-23031D02*
X77913Y-23984D01*
X80393Y-45551D02*
X81173Y-45551D01*
X79960Y-45118D02*
X80393Y-45551D01*
X79960Y-42834D02*
X79960Y-45118D01*
X77913Y-40787D02*
X79960Y-42834D01*
G54D37*
X62692Y-47480D02*
X62692Y-48503D01*
X62692Y-48503D02*
X62692Y-50236D01*
X38897Y-57086D02*
X40275Y-57086D01*
X37519Y-57086D02*
X38897Y-57086D01*
X41653Y-57086D02*
X40275Y-57086D01*
X41653Y-57086D02*
X43031Y-57086D01*
X40283Y-52795D02*
X40275Y-52803D01*
X40275Y-52803D02*
X40275Y-57086D01*
G54D36*
X34429Y-39921D02*
X37716Y-39921D01*
X37716Y-39921D02*
X38661Y-38976D01*
G54D37*
X64960Y-57086D02*
X66614Y-57086D01*
X62692Y-50236D02*
X62692Y-56314D01*
X63464Y-57086D02*
X64960Y-57086D01*
X62692Y-56314D02*
X63464Y-57086D01*
G54D35*
X29055Y-41921D02*
X29055Y-41181D01*
X31417Y-41181D02*
X31417Y-41921D01*
X31141Y-40905D02*
X31417Y-41181D01*
X29330Y-40905D02*
X31141Y-40905D01*
X29055Y-41181D02*
X29330Y-40905D01*
X66889Y-41259D02*
X67566Y-41259D01*
X66456Y-40826D02*
X66889Y-41259D01*
X66456Y-39488D02*
X66456Y-40826D01*
X66889Y-39055D02*
X66456Y-39488D01*
X67566Y-39055D02*
X66889Y-39055D01*
X52984Y-42992D02*
X53661Y-42992D01*
X53661Y-45354D02*
X52984Y-45354D01*
X54055Y-44960D02*
X53661Y-45354D01*
X54055Y-43385D02*
X54055Y-44960D01*
X53661Y-42992D02*
X54055Y-43385D01*
X77173Y-44448D02*
X77952Y-44448D01*
X77952Y-44448D02*
X78385Y-44881D01*
X77952Y-46653D02*
X77173Y-46653D01*
X78385Y-46220D02*
X77952Y-46653D01*
X78385Y-44881D02*
X78385Y-46220D01*
X43110Y-21842D02*
X41543Y-21842D01*
X37031Y-35291D02*
X35787Y-35291D01*
X39448Y-32874D02*
X37031Y-35291D01*
X39448Y-23937D02*
X39448Y-32874D01*
X41543Y-21842D02*
X39448Y-23937D01*
X30196Y-27354D02*
X29803Y-27748D01*
X31535Y-31338D02*
X34779Y-31338D01*
X29803Y-29606D02*
X31535Y-31338D01*
X29803Y-27748D02*
X29803Y-29606D01*
X69220Y-17795D02*
X68708Y-17795D01*
X68708Y-17795D02*
X66811Y-15897D01*
X79011Y-28909D02*
X79736Y-28909D01*
X79724Y-32125D02*
X78944Y-32125D01*
X80511Y-31338D02*
X79724Y-32125D01*
X80511Y-29685D02*
X80511Y-31338D01*
X79736Y-28909D02*
X80511Y-29685D01*
M02*
