%FSLAX34Y34*%
G04 Gerber Fmt 3.4, Leading zero omitted, Abs format*
G04 (created by PCBNEW (2014-02-24 BZR 4719)-product) date Чт. 20 марта 2014 02:52:29*
%MOIN*%
G01*
G70*
G90*
G04 APERTURE LIST*
%ADD10C,0.005906*%
%ADD11C,0.118110*%
%ADD12R,0.137795X0.137795*%
%ADD13C,0.137795*%
%ADD14R,0.078740X0.078740*%
%ADD15C,0.078740*%
%ADD16O,0.137800X0.216600*%
%ADD17C,0.078700*%
%ADD18O,0.118110X0.157480*%
%ADD19O,0.118100X0.078700*%
%ADD20O,0.078700X0.118100*%
%ADD21R,0.090000X0.062000*%
%ADD22O,0.090000X0.062000*%
%ADD23O,0.074800X0.059100*%
%ADD24O,0.059100X0.074800*%
%ADD25R,0.062992X0.062992*%
%ADD26C,0.062992*%
%ADD27R,0.070866X0.070866*%
%ADD28C,0.070866*%
%ADD29C,0.059100*%
%ADD30R,0.059055X0.059055*%
%ADD31C,0.059055*%
%ADD32C,0.094488*%
%ADD33C,0.098425*%
%ADD34C,0.303150*%
%ADD35C,0.118110*%
%ADD36C,0.059055*%
%ADD37C,0.039370*%
%ADD38C,0.098425*%
%ADD39C,0.078740*%
%ADD40C,0.031496*%
%ADD41C,0.011811*%
G04 APERTURE END LIST*
G54D10*
X26102Y-61850D02*
X90275Y-61850D01*
X90275Y-10669D02*
X26102Y-10669D01*
X26102Y-61850D02*
X26102Y-10669D01*
X90275Y-10669D02*
X90275Y-61850D01*
G54D11*
X42244Y-26811D03*
X42244Y-24763D03*
X42244Y-31062D03*
X42244Y-33110D03*
G54D12*
X42598Y-38976D03*
G54D13*
X38661Y-38976D03*
G54D12*
X71574Y-29527D03*
G54D13*
X71574Y-33464D03*
G54D12*
X48385Y-34055D03*
G54D13*
X48385Y-30118D03*
G54D14*
X83956Y-41811D03*
G54D15*
X86909Y-41811D03*
G54D11*
X48590Y-47952D03*
X42590Y-47952D03*
X40283Y-47952D03*
X34283Y-47952D03*
X48590Y-52795D03*
X42590Y-52795D03*
X40283Y-52795D03*
X34283Y-52795D03*
G54D16*
X41653Y-14409D03*
X39453Y-14409D03*
X43853Y-14409D03*
G54D17*
X31417Y-37921D03*
X31417Y-41921D03*
X29055Y-41921D03*
X29055Y-37921D03*
X30236Y-37921D03*
X30236Y-41921D03*
X27913Y-41921D03*
X27913Y-37921D03*
X36578Y-16653D03*
X33578Y-16653D03*
X34582Y-24216D03*
X34582Y-21216D03*
X71566Y-39055D03*
X67566Y-39055D03*
X71566Y-37952D03*
X67566Y-37952D03*
X52984Y-44173D03*
X48984Y-44173D03*
X52984Y-42992D03*
X48984Y-42992D03*
X67566Y-41259D03*
X71566Y-41259D03*
X67566Y-40157D03*
X71566Y-40157D03*
X48984Y-46535D03*
X52984Y-46535D03*
X48984Y-45354D03*
X52984Y-45354D03*
G54D11*
X62204Y-36110D03*
X62204Y-30110D03*
X55905Y-30110D03*
X55905Y-36110D03*
X64803Y-36110D03*
X64803Y-30110D03*
X58503Y-30110D03*
X58503Y-36110D03*
G54D17*
X60901Y-19527D03*
X63901Y-19527D03*
X56846Y-19527D03*
X59846Y-19527D03*
X72720Y-16653D03*
X69720Y-16653D03*
X46728Y-16653D03*
X49728Y-16653D03*
X72720Y-20078D03*
X69720Y-20078D03*
X46728Y-21259D03*
X49728Y-21259D03*
X63066Y-25472D03*
X66066Y-25472D03*
X77173Y-45551D03*
X81173Y-45551D03*
X81173Y-43346D03*
X77173Y-43346D03*
G54D11*
X69480Y-45472D03*
X75480Y-45472D03*
X69480Y-49724D03*
X75480Y-49724D03*
G54D17*
X77173Y-46653D03*
X81173Y-46653D03*
X81173Y-44448D03*
X77173Y-44448D03*
G54D11*
X69480Y-43346D03*
X75480Y-43346D03*
X69480Y-47598D03*
X75480Y-47598D03*
G54D17*
X79011Y-26574D03*
X82011Y-26574D03*
X82129Y-16653D03*
X79129Y-16653D03*
X86303Y-19527D03*
X83303Y-19527D03*
X79523Y-36417D03*
X82523Y-36417D03*
G54D18*
X58015Y-50236D03*
X56456Y-50236D03*
X54897Y-50236D03*
X53338Y-50236D03*
X59574Y-50236D03*
X61133Y-50236D03*
X62692Y-50236D03*
X64251Y-50236D03*
X67370Y-50236D03*
X65811Y-50236D03*
G54D11*
X80433Y-58740D03*
X82086Y-58740D03*
X82086Y-57086D03*
X80433Y-57086D03*
X80433Y-55433D03*
X82086Y-55433D03*
X82086Y-53779D03*
X80433Y-53779D03*
X82086Y-52125D03*
X80433Y-52125D03*
X30078Y-58740D03*
X28425Y-58740D03*
X28425Y-57086D03*
X30078Y-57086D03*
X30078Y-55433D03*
X28425Y-55433D03*
X30078Y-53779D03*
X28425Y-53779D03*
X55708Y-58740D03*
X54055Y-58740D03*
X54055Y-57086D03*
X55708Y-57086D03*
X55708Y-55433D03*
X54055Y-55433D03*
X55708Y-53779D03*
X54055Y-53779D03*
X66614Y-58740D03*
X64960Y-58740D03*
X64960Y-57086D03*
X66614Y-57086D03*
X66614Y-55433D03*
X64960Y-55433D03*
X66614Y-53779D03*
X64960Y-53779D03*
G54D16*
X35078Y-14409D03*
X32878Y-14409D03*
X37278Y-14409D03*
G54D19*
X34582Y-19330D03*
G54D20*
X33582Y-18330D03*
X33582Y-20330D03*
G54D19*
X34787Y-34291D03*
G54D20*
X35787Y-35291D03*
X35787Y-33291D03*
G54D16*
X71220Y-14409D03*
X69020Y-14409D03*
X73420Y-14409D03*
X48228Y-14409D03*
X46028Y-14409D03*
X50428Y-14409D03*
G54D20*
X61889Y-17267D03*
G54D19*
X60889Y-18267D03*
X62889Y-18267D03*
G54D20*
X58346Y-18322D03*
G54D19*
X59346Y-17322D03*
X57346Y-17322D03*
X68440Y-19960D03*
G54D20*
X67440Y-18960D03*
X67440Y-20960D03*
G54D19*
X46511Y-23897D03*
G54D20*
X45511Y-22897D03*
X45511Y-24897D03*
G54D16*
X81338Y-14409D03*
X79138Y-14409D03*
X83538Y-14409D03*
G54D20*
X80511Y-24314D03*
G54D19*
X79511Y-25314D03*
X81511Y-25314D03*
G54D20*
X80866Y-19511D03*
G54D19*
X79866Y-20511D03*
X81866Y-20511D03*
X28818Y-19763D03*
G54D20*
X29818Y-20763D03*
X29818Y-18763D03*
X32007Y-30055D03*
G54D19*
X33007Y-29055D03*
X31007Y-29055D03*
G54D20*
X63464Y-12110D03*
G54D19*
X62464Y-13110D03*
X64464Y-13110D03*
G54D20*
X58346Y-15645D03*
G54D19*
X59346Y-14645D03*
X57346Y-14645D03*
G54D21*
X58854Y-21295D03*
G54D22*
X58854Y-22295D03*
X58854Y-23295D03*
X58854Y-24295D03*
X61854Y-24295D03*
X61854Y-23295D03*
X61854Y-22295D03*
X61854Y-21295D03*
G54D20*
X85433Y-22889D03*
G54D19*
X86433Y-21889D03*
X84433Y-21889D03*
G54D21*
X79011Y-27909D03*
G54D22*
X79011Y-28909D03*
X79011Y-29909D03*
X79011Y-30909D03*
X82011Y-30909D03*
X82011Y-29909D03*
X82011Y-28909D03*
X82011Y-27909D03*
G54D23*
X34779Y-29370D03*
X34779Y-30354D03*
X34779Y-31338D03*
G54D24*
X62795Y-27913D03*
X63779Y-27913D03*
X64763Y-27913D03*
X55866Y-27913D03*
X56850Y-27913D03*
X57834Y-27913D03*
X78937Y-34803D03*
X79921Y-34803D03*
X80905Y-34803D03*
G54D17*
X67362Y-46354D03*
X67362Y-44354D03*
X62677Y-44196D03*
X62677Y-46196D03*
X60354Y-44433D03*
X60354Y-46433D03*
X33149Y-49393D03*
X33149Y-51393D03*
G54D25*
X31220Y-43681D03*
G54D26*
X31220Y-44665D03*
G54D25*
X28070Y-43681D03*
G54D26*
X28070Y-44665D03*
G54D27*
X33051Y-39921D03*
G54D28*
X34429Y-39921D03*
G54D17*
X32181Y-20763D03*
X32181Y-18763D03*
X33456Y-24212D03*
X31456Y-24212D03*
G54D29*
X32496Y-32244D03*
X30496Y-32244D03*
G54D30*
X75866Y-52559D03*
G54D31*
X75866Y-53346D03*
G54D27*
X64803Y-39586D03*
G54D28*
X64803Y-38208D03*
G54D27*
X56712Y-44173D03*
G54D28*
X55334Y-44173D03*
G54D27*
X64803Y-41712D03*
G54D28*
X64803Y-43090D03*
G54D27*
X56023Y-39940D03*
G54D28*
X56023Y-41318D03*
G54D27*
X75236Y-39881D03*
G54D28*
X75236Y-37913D03*
G54D27*
X49409Y-39921D03*
G54D28*
X47440Y-39921D03*
G54D17*
X63921Y-17007D03*
X65921Y-17007D03*
X55866Y-14629D03*
X55866Y-16629D03*
G54D25*
X61338Y-25885D03*
G54D26*
X61338Y-26870D03*
G54D15*
X72716Y-21401D03*
X72716Y-23401D03*
G54D29*
X66078Y-26496D03*
X64078Y-26496D03*
G54D15*
X51299Y-23401D03*
X51299Y-21401D03*
G54D25*
X58307Y-58405D03*
G54D26*
X58307Y-57421D03*
G54D25*
X61181Y-57421D03*
G54D26*
X61181Y-58405D03*
G54D25*
X78444Y-48818D03*
G54D26*
X77460Y-48818D03*
G54D25*
X80787Y-48326D03*
G54D26*
X80787Y-49311D03*
G54D27*
X84921Y-48149D03*
G54D28*
X86889Y-48149D03*
G54D17*
X84645Y-26874D03*
X84645Y-28874D03*
G54D25*
X79980Y-40314D03*
G54D26*
X80964Y-40314D03*
G54D17*
X85944Y-26874D03*
X85944Y-28874D03*
G54D29*
X82299Y-37362D03*
X80299Y-37362D03*
G54D10*
G36*
X86392Y-53862D02*
X85891Y-53361D01*
X86392Y-52860D01*
X86893Y-53361D01*
X86392Y-53862D01*
X86392Y-53862D01*
G37*
G54D28*
X85418Y-52386D03*
G54D32*
X44456Y-45748D03*
X38456Y-45748D03*
G54D17*
X27519Y-17409D03*
X27519Y-21409D03*
X29062Y-36141D03*
X33062Y-36141D03*
X28748Y-17401D03*
X32748Y-17401D03*
X32685Y-22165D03*
X28685Y-22165D03*
X35905Y-18000D03*
X35905Y-22000D03*
G54D33*
X37283Y-32090D03*
X37283Y-23419D03*
G54D17*
X28779Y-23354D03*
X28779Y-27354D03*
X31440Y-25393D03*
X35440Y-25393D03*
X30196Y-27354D03*
X30196Y-23354D03*
X31440Y-26574D03*
X35440Y-26574D03*
X35440Y-27755D03*
X31440Y-27755D03*
X30007Y-33267D03*
X34007Y-33267D03*
X28779Y-29062D03*
X28779Y-33062D03*
X43110Y-17842D03*
X43110Y-21842D03*
X39653Y-16653D03*
X43653Y-16653D03*
X69220Y-17795D03*
X73220Y-17795D03*
X65464Y-14527D03*
X61464Y-14527D03*
X65464Y-15629D03*
X61464Y-15629D03*
X56346Y-13346D03*
X60346Y-13346D03*
X56346Y-12244D03*
X60346Y-12244D03*
X46228Y-18976D03*
X50228Y-18976D03*
X66811Y-11897D03*
X66811Y-15897D03*
X46228Y-17795D03*
X50228Y-17795D03*
X65039Y-22275D03*
X65039Y-18275D03*
X55669Y-21803D03*
X55669Y-17803D03*
X73220Y-18937D03*
X69220Y-18937D03*
X50228Y-20157D03*
X46228Y-20157D03*
G54D32*
X75590Y-20401D03*
X75590Y-14401D03*
X52952Y-20401D03*
X52952Y-14401D03*
G54D17*
X66181Y-22275D03*
X66181Y-18275D03*
X54566Y-21803D03*
X54566Y-17803D03*
X73220Y-24566D03*
X69220Y-24566D03*
X50952Y-24566D03*
X54952Y-24566D03*
X67078Y-24291D03*
X63078Y-24291D03*
X74251Y-24086D03*
X74251Y-20086D03*
X69574Y-25708D03*
X73574Y-25708D03*
X68149Y-26055D03*
X68149Y-22055D03*
X49724Y-22566D03*
X49724Y-26566D03*
X50952Y-25708D03*
X54952Y-25708D03*
X73771Y-58740D03*
X69771Y-58740D03*
X76133Y-57086D03*
X72133Y-57086D03*
X78866Y-23031D03*
X82866Y-23031D03*
X78866Y-21889D03*
X82866Y-21889D03*
X82881Y-24212D03*
X86881Y-24212D03*
X82881Y-25314D03*
X86881Y-25314D03*
X83464Y-30897D03*
X83464Y-26897D03*
X84874Y-18070D03*
X80874Y-18070D03*
G54D32*
X88661Y-23354D03*
X88661Y-17354D03*
G54D17*
X78944Y-32125D03*
X82944Y-32125D03*
X82944Y-33228D03*
X78944Y-33228D03*
X83023Y-38346D03*
X79023Y-38346D03*
X87125Y-30858D03*
X87125Y-26858D03*
X85944Y-34086D03*
X85944Y-30086D03*
X83629Y-36417D03*
X87629Y-36417D03*
X88661Y-55070D03*
X88661Y-51070D03*
G54D34*
X29645Y-49606D03*
G54D31*
X29645Y-48503D03*
X30590Y-49055D03*
X30590Y-50157D03*
X29645Y-50708D03*
X28700Y-50157D03*
X28700Y-49055D03*
G54D34*
X29645Y-14409D03*
G54D31*
X29645Y-13307D03*
X30590Y-13858D03*
X30590Y-14960D03*
X29645Y-15511D03*
X28700Y-14960D03*
X28700Y-13858D03*
G54D34*
X86732Y-14409D03*
G54D31*
X86732Y-13307D03*
X87677Y-13858D03*
X87677Y-14960D03*
X86732Y-15511D03*
X85787Y-14960D03*
X85787Y-13858D03*
G54D34*
X86732Y-58307D03*
G54D31*
X86732Y-57204D03*
X87677Y-57755D03*
X87677Y-58858D03*
X86732Y-59409D03*
X85787Y-58858D03*
X85787Y-57755D03*
G54D26*
X62692Y-47480D03*
X62692Y-48503D03*
X40275Y-57086D03*
X38897Y-57086D03*
X37519Y-57086D03*
X43031Y-57086D03*
X41653Y-57086D03*
G54D35*
X82086Y-57086D02*
X83740Y-57086D01*
X83740Y-60393D02*
X66614Y-60393D01*
X83740Y-57086D02*
X83740Y-60393D01*
G54D36*
X58307Y-58405D02*
X58307Y-60393D01*
G54D35*
X55708Y-60393D02*
X30078Y-60393D01*
X30078Y-60393D02*
X30078Y-58740D01*
X66614Y-60393D02*
X58307Y-60393D01*
X58307Y-60393D02*
X55708Y-60393D01*
X55708Y-60393D02*
X55708Y-58740D01*
X66614Y-60393D02*
X66614Y-58740D01*
G54D37*
X67440Y-20960D02*
X67440Y-21346D01*
X67440Y-21346D02*
X68149Y-22055D01*
X61854Y-21295D02*
X67106Y-21295D01*
X67106Y-21295D02*
X67440Y-20960D01*
G54D36*
X74251Y-20086D02*
X75275Y-20086D01*
X75275Y-20086D02*
X75590Y-20401D01*
X74251Y-20086D02*
X72728Y-20086D01*
X72728Y-20086D02*
X72720Y-20078D01*
X72716Y-21401D02*
X72716Y-20082D01*
X72716Y-20082D02*
X72720Y-20078D01*
X71566Y-41259D02*
X71566Y-40157D01*
X71566Y-40157D02*
X74960Y-40157D01*
X74960Y-40157D02*
X75236Y-39881D01*
G54D35*
X71220Y-14409D02*
X71220Y-25118D01*
X71574Y-25472D02*
X71574Y-29527D01*
X71220Y-25118D02*
X71574Y-25472D01*
X64803Y-30110D02*
X68748Y-30110D01*
X69330Y-29527D02*
X71574Y-29527D01*
X68748Y-30110D02*
X69330Y-29527D01*
G54D38*
X69480Y-49724D02*
X69480Y-47598D01*
G54D35*
X62204Y-30110D02*
X64803Y-30110D01*
G54D37*
X51299Y-21401D02*
X52299Y-20401D01*
X52299Y-20401D02*
X52952Y-20401D01*
X51299Y-21401D02*
X51157Y-21259D01*
X51157Y-21259D02*
X49728Y-21259D01*
X49728Y-21259D02*
X49728Y-22562D01*
X49728Y-22562D02*
X49724Y-22566D01*
G54D36*
X48984Y-45354D02*
X48267Y-45354D01*
X47440Y-44527D02*
X47440Y-39921D01*
X48267Y-45354D02*
X47440Y-44527D01*
X48984Y-45354D02*
X48984Y-46535D01*
G54D35*
X55905Y-30110D02*
X48393Y-30110D01*
X48393Y-30110D02*
X48385Y-30118D01*
X48228Y-14409D02*
X48228Y-29960D01*
X48228Y-29960D02*
X48385Y-30118D01*
X55905Y-30110D02*
X58503Y-30110D01*
G54D37*
X62677Y-44196D02*
X63037Y-44557D01*
X63037Y-44557D02*
X63336Y-44557D01*
G54D35*
X63336Y-44557D02*
X64251Y-45472D01*
X64251Y-45472D02*
X64251Y-50236D01*
G54D37*
X55905Y-36110D02*
X55905Y-39822D01*
G54D35*
X62204Y-36110D02*
X62204Y-43425D01*
X62204Y-43425D02*
X63336Y-44557D01*
G54D37*
X64803Y-43090D02*
X63336Y-44557D01*
X55905Y-39822D02*
X56023Y-39940D01*
X60354Y-46433D02*
X60181Y-46259D01*
X60181Y-46259D02*
X59881Y-46259D01*
G54D35*
X58503Y-44881D02*
X59881Y-46259D01*
X59881Y-46259D02*
X61133Y-47511D01*
X61133Y-47511D02*
X61133Y-50236D01*
G54D37*
X56712Y-44173D02*
X58503Y-44173D01*
G54D35*
X58503Y-44173D02*
X58503Y-44881D01*
X58503Y-44881D02*
X58503Y-44881D01*
X58503Y-36110D02*
X58503Y-44173D01*
G54D37*
X64803Y-38208D02*
X64803Y-36110D01*
X75866Y-52559D02*
X75866Y-52125D01*
G54D35*
X55708Y-53779D02*
X64960Y-53779D01*
X36614Y-55314D02*
X36614Y-38110D01*
X37283Y-33291D02*
X37283Y-37440D01*
X37283Y-37440D02*
X36614Y-38110D01*
X33976Y-55314D02*
X36614Y-55314D01*
X32440Y-53779D02*
X30078Y-53779D01*
X32440Y-53779D02*
X33976Y-55314D01*
X54055Y-53779D02*
X50393Y-53779D01*
X48858Y-55314D02*
X50393Y-53779D01*
X36614Y-55314D02*
X48858Y-55314D01*
G54D37*
X34582Y-24216D02*
X35440Y-25074D01*
X35440Y-25074D02*
X35440Y-25393D01*
G54D35*
X80433Y-52125D02*
X77440Y-52125D01*
X77440Y-52125D02*
X75866Y-52125D01*
X75866Y-52125D02*
X69842Y-52125D01*
X68188Y-53779D02*
X66614Y-53779D01*
X69842Y-52125D02*
X68188Y-53779D01*
X28425Y-53779D02*
X30078Y-53779D01*
X54055Y-53779D02*
X55708Y-53779D01*
X82086Y-52125D02*
X80433Y-52125D01*
G54D37*
X35787Y-33291D02*
X37283Y-33291D01*
X32496Y-32244D02*
X33519Y-33267D01*
X33519Y-33267D02*
X34007Y-33267D01*
X35787Y-33291D02*
X35763Y-33267D01*
X35763Y-33267D02*
X34007Y-33267D01*
X35440Y-25393D02*
X35440Y-26574D01*
X33582Y-20330D02*
X33582Y-24086D01*
X33582Y-24086D02*
X33456Y-24212D01*
X33456Y-24212D02*
X34578Y-24212D01*
X34578Y-24212D02*
X34582Y-24216D01*
G54D35*
X37283Y-32090D02*
X37283Y-33291D01*
X64960Y-53779D02*
X66614Y-53779D01*
X42244Y-26811D02*
X42244Y-24763D01*
X41653Y-14409D02*
X41653Y-24173D01*
X41653Y-24173D02*
X42244Y-24763D01*
G54D36*
X30236Y-37921D02*
X31417Y-37921D01*
G54D35*
X35078Y-14409D02*
X35078Y-12992D01*
X41653Y-12992D02*
X41653Y-14409D01*
X40826Y-12165D02*
X41653Y-12992D01*
X35905Y-12165D02*
X40826Y-12165D01*
X35078Y-12992D02*
X35905Y-12165D01*
G54D37*
X29062Y-36141D02*
X29062Y-37913D01*
X29062Y-37913D02*
X29055Y-37921D01*
G54D36*
X33051Y-39921D02*
X30078Y-39921D01*
X29055Y-38897D02*
X29055Y-37921D01*
X30078Y-39921D02*
X29055Y-38897D01*
G54D37*
X27519Y-21409D02*
X27519Y-37527D01*
X27519Y-37527D02*
X27913Y-37921D01*
G54D36*
X29055Y-37921D02*
X27913Y-37921D01*
G54D35*
X42244Y-33110D02*
X42244Y-34960D01*
X42598Y-35314D02*
X42598Y-38976D01*
X42244Y-34960D02*
X42598Y-35314D01*
X42244Y-31062D02*
X42244Y-33110D01*
X42598Y-38976D02*
X42598Y-45748D01*
G54D36*
X44456Y-45748D02*
X42598Y-45748D01*
X42598Y-45748D02*
X42590Y-45748D01*
G54D35*
X42590Y-47952D02*
X42590Y-45748D01*
X42590Y-38984D02*
X42598Y-38976D01*
X42590Y-47952D02*
X42590Y-52795D01*
G54D37*
X33149Y-49393D02*
X32283Y-48527D01*
X32283Y-45728D02*
X31220Y-44665D01*
X32283Y-48527D02*
X32283Y-45728D01*
G54D35*
X48590Y-47952D02*
X55629Y-47952D01*
X56456Y-48779D02*
X56456Y-50236D01*
X55629Y-47952D02*
X56456Y-48779D01*
G54D37*
X26968Y-50669D02*
X28582Y-52283D01*
X33149Y-51393D02*
X32259Y-52283D01*
X32259Y-52283D02*
X28582Y-52283D01*
X28070Y-44665D02*
X26968Y-45767D01*
X26968Y-45767D02*
X26968Y-50669D01*
G54D35*
X53338Y-50236D02*
X51149Y-50236D01*
X51149Y-50236D02*
X48590Y-52795D01*
G54D37*
X85944Y-26874D02*
X87110Y-26874D01*
X87110Y-26874D02*
X87125Y-26858D01*
X82011Y-28909D02*
X82940Y-28909D01*
X85944Y-27480D02*
X85944Y-26874D01*
X85551Y-27874D02*
X85944Y-27480D01*
X83976Y-27874D02*
X85551Y-27874D01*
X82940Y-28909D02*
X83976Y-27874D01*
X86303Y-19527D02*
X86303Y-20511D01*
X81866Y-20511D02*
X86303Y-20511D01*
X86303Y-20511D02*
X87716Y-20511D01*
X88661Y-21456D02*
X88661Y-23354D01*
X87716Y-20511D02*
X88661Y-21456D01*
G54D36*
X81173Y-46653D02*
X83425Y-46653D01*
X83425Y-46653D02*
X84921Y-48149D01*
X81173Y-45551D02*
X81173Y-46653D01*
X81173Y-43346D02*
X81173Y-41818D01*
G54D37*
X81220Y-41929D02*
X81220Y-41818D01*
X81220Y-41866D02*
X81220Y-41929D01*
X81173Y-41818D02*
X81220Y-41866D01*
G54D36*
X81173Y-43346D02*
X81173Y-44448D01*
G54D39*
X76653Y-36811D02*
X76653Y-41818D01*
X81338Y-13031D02*
X80511Y-12204D01*
X80511Y-12204D02*
X78149Y-12204D01*
X78149Y-12204D02*
X77322Y-13031D01*
X81338Y-14409D02*
X81338Y-13031D01*
X77322Y-21062D02*
X76653Y-21732D01*
X76653Y-21732D02*
X76653Y-36811D01*
X77322Y-13031D02*
X77322Y-21062D01*
X76653Y-41818D02*
X76645Y-41818D01*
X78740Y-41818D02*
X81220Y-41818D01*
X76645Y-41818D02*
X77637Y-41818D01*
X77637Y-41818D02*
X78740Y-41818D01*
X81220Y-41818D02*
X83948Y-41818D01*
X83948Y-41818D02*
X83956Y-41811D01*
X75480Y-43346D02*
X75480Y-42984D01*
X75480Y-42984D02*
X76645Y-41818D01*
X75480Y-43346D02*
X75480Y-45472D01*
G54D37*
X67362Y-46354D02*
X67496Y-46220D01*
X67496Y-46220D02*
X67755Y-46220D01*
X75480Y-49724D02*
X75992Y-50236D01*
X79862Y-50236D02*
X80787Y-49311D01*
X75992Y-50236D02*
X79862Y-50236D01*
G54D38*
X67370Y-50236D02*
X67370Y-46606D01*
X68503Y-45472D02*
X69480Y-45472D01*
X67370Y-46606D02*
X67755Y-46220D01*
X67755Y-46220D02*
X68503Y-45472D01*
X69480Y-45472D02*
X71377Y-45472D01*
X71377Y-45472D02*
X71377Y-49724D01*
X71377Y-49724D02*
X75480Y-49724D01*
G54D37*
X67362Y-44354D02*
X67519Y-44196D01*
X67519Y-44196D02*
X67519Y-43976D01*
X75480Y-47598D02*
X76240Y-47598D01*
X76240Y-47598D02*
X77460Y-48818D01*
G54D38*
X73582Y-47598D02*
X75480Y-47598D01*
X73582Y-45275D02*
X73582Y-47598D01*
X73582Y-43346D02*
X73582Y-45275D01*
X65811Y-50236D02*
X65811Y-45685D01*
X68149Y-43346D02*
X69480Y-43346D01*
X65811Y-45685D02*
X67519Y-43976D01*
X67519Y-43976D02*
X68149Y-43346D01*
X69480Y-43346D02*
X73582Y-43346D01*
G54D35*
X62692Y-48503D02*
X62692Y-50236D01*
X62692Y-47519D02*
X62692Y-48503D01*
X62692Y-47480D02*
X62692Y-47519D01*
X62692Y-46511D02*
X62692Y-47480D01*
X62283Y-46102D02*
X62692Y-46511D01*
X41653Y-57086D02*
X43031Y-57086D01*
X40275Y-57086D02*
X41653Y-57086D01*
X38897Y-57086D02*
X40275Y-57086D01*
X37519Y-57086D02*
X38897Y-57086D01*
X33307Y-57086D02*
X37519Y-57086D01*
X33307Y-57086D02*
X31653Y-55433D01*
X30078Y-55433D02*
X31653Y-55433D01*
X54055Y-55433D02*
X51299Y-55433D01*
X51299Y-55433D02*
X49645Y-57086D01*
X49645Y-57086D02*
X43031Y-57086D01*
G54D37*
X30984Y-19763D02*
X30984Y-22086D01*
X28818Y-19763D02*
X30984Y-19763D01*
X33779Y-27755D02*
X35440Y-27755D01*
X32440Y-26417D02*
X33779Y-27755D01*
X32440Y-23543D02*
X32440Y-26417D01*
X30984Y-22086D02*
X32440Y-23543D01*
X35440Y-27755D02*
X39453Y-27755D01*
G54D35*
X39453Y-14409D02*
X39453Y-27755D01*
G54D37*
X75866Y-53346D02*
X75866Y-53779D01*
X60354Y-44433D02*
X60354Y-44173D01*
X62677Y-46196D02*
X62582Y-46102D01*
X62582Y-46102D02*
X62283Y-46102D01*
G54D35*
X60354Y-44173D02*
X62283Y-46102D01*
X60354Y-34055D02*
X60354Y-44173D01*
G54D36*
X71566Y-37952D02*
X71566Y-39055D01*
X75236Y-37913D02*
X71606Y-37913D01*
G54D39*
X71606Y-37913D02*
X71566Y-37952D01*
X71574Y-33464D02*
X71566Y-33472D01*
G54D36*
X71566Y-33472D02*
X71566Y-37952D01*
G54D37*
X33062Y-36141D02*
X34429Y-37507D01*
X34429Y-37507D02*
X34429Y-39921D01*
G54D36*
X49409Y-39921D02*
X49409Y-37755D01*
X48385Y-36732D02*
X48385Y-34055D01*
X49409Y-37755D02*
X48385Y-36732D01*
X48984Y-42992D02*
X49409Y-42566D01*
X49409Y-42566D02*
X49409Y-39921D01*
X48984Y-42992D02*
X48984Y-44173D01*
X72133Y-57086D02*
X71027Y-55980D01*
X73771Y-58740D02*
X72133Y-57102D01*
X72133Y-57102D02*
X72133Y-57086D01*
G54D37*
X61181Y-57421D02*
X61181Y-57086D01*
X58307Y-57421D02*
X58307Y-57086D01*
G54D35*
X78779Y-55433D02*
X71574Y-55433D01*
X71574Y-55433D02*
X71027Y-55980D01*
X71027Y-55980D02*
X70909Y-56098D01*
X70909Y-56098D02*
X69921Y-57086D01*
X69921Y-57086D02*
X66614Y-57086D01*
X78779Y-55433D02*
X78779Y-58740D01*
X80433Y-55433D02*
X78779Y-55433D01*
X78779Y-58740D02*
X80433Y-58740D01*
X71574Y-33464D02*
X60354Y-33464D01*
G54D37*
X39653Y-16653D02*
X39453Y-16453D01*
G54D35*
X64960Y-57086D02*
X66614Y-57086D01*
X55708Y-57086D02*
X58307Y-57086D01*
X58307Y-57086D02*
X61181Y-57086D01*
X61181Y-57086D02*
X64960Y-57086D01*
X64960Y-55433D02*
X55708Y-55433D01*
X66614Y-55433D02*
X69055Y-55433D01*
X70708Y-53779D02*
X75866Y-53779D01*
X75866Y-53779D02*
X77440Y-53779D01*
X77440Y-53779D02*
X80433Y-53779D01*
X69055Y-55433D02*
X70708Y-53779D01*
X60354Y-34055D02*
X60354Y-33464D01*
X30078Y-57086D02*
X30866Y-57086D01*
X52165Y-57086D02*
X54055Y-57086D01*
X50511Y-58740D02*
X52165Y-57086D01*
X32519Y-58740D02*
X50511Y-58740D01*
X30866Y-57086D02*
X32519Y-58740D01*
X28425Y-57086D02*
X30078Y-57086D01*
X28425Y-55433D02*
X30078Y-55433D01*
X54055Y-57086D02*
X55708Y-57086D01*
X55708Y-55433D02*
X54055Y-55433D01*
X64960Y-55433D02*
X66614Y-55433D01*
X60354Y-34055D02*
X49409Y-34055D01*
X49409Y-34055D02*
X48385Y-34055D01*
X80433Y-55433D02*
X82086Y-55433D01*
X82086Y-53779D02*
X80433Y-53779D01*
G54D37*
X39653Y-16653D02*
X39453Y-16453D01*
X39453Y-16453D02*
X39453Y-14409D01*
X31220Y-43681D02*
X31417Y-43484D01*
X31417Y-43484D02*
X31417Y-41921D01*
X28070Y-43681D02*
X27913Y-43523D01*
X27913Y-43523D02*
X27913Y-41921D01*
X27913Y-41181D02*
X27913Y-41921D01*
X28188Y-40905D02*
X27913Y-41181D01*
X29960Y-40905D02*
X28188Y-40905D01*
X30236Y-41181D02*
X29960Y-40905D01*
X30236Y-41921D02*
X30236Y-41181D01*
X32685Y-22165D02*
X32181Y-21661D01*
X32181Y-21661D02*
X32181Y-20763D01*
X29818Y-18763D02*
X32181Y-18763D01*
X29818Y-18763D02*
X29818Y-18472D01*
X29818Y-18472D02*
X28748Y-17401D01*
X28748Y-17401D02*
X28740Y-17409D01*
X28740Y-17409D02*
X27519Y-17409D01*
X30196Y-23354D02*
X30598Y-23354D01*
X30598Y-23354D02*
X31456Y-24212D01*
X28779Y-27354D02*
X28779Y-26456D01*
X29842Y-25393D02*
X31440Y-25393D01*
X28779Y-26456D02*
X29842Y-25393D01*
X31456Y-24212D02*
X31456Y-25377D01*
X31456Y-25377D02*
X31440Y-25393D01*
X34787Y-34291D02*
X31031Y-34291D01*
X31031Y-34291D02*
X30007Y-33267D01*
X30496Y-32244D02*
X30496Y-32779D01*
X30496Y-32779D02*
X30007Y-33267D01*
X28779Y-33062D02*
X28984Y-33267D01*
X28984Y-33267D02*
X30007Y-33267D01*
X64803Y-39586D02*
X66456Y-39586D01*
X66456Y-39586D02*
X66456Y-39724D01*
X66456Y-39724D02*
X66456Y-39724D01*
X66456Y-39724D02*
X66889Y-40157D01*
X66456Y-38385D02*
X66456Y-39724D01*
X67566Y-37952D02*
X66889Y-37952D01*
X66889Y-37952D02*
X66456Y-38385D01*
X66889Y-40157D02*
X67566Y-40157D01*
X55334Y-44173D02*
X54055Y-44173D01*
X54055Y-46141D02*
X54055Y-44173D01*
X54055Y-44173D02*
X53661Y-44173D01*
X53661Y-46535D02*
X54055Y-46141D01*
X52984Y-46535D02*
X53661Y-46535D01*
X52984Y-44173D02*
X53661Y-44173D01*
X67566Y-41259D02*
X66889Y-41259D01*
X66889Y-41259D02*
X66437Y-41712D01*
X66437Y-41712D02*
X64803Y-41712D01*
X54350Y-42992D02*
X52984Y-42992D01*
X56023Y-41318D02*
X54350Y-42992D01*
X62889Y-18267D02*
X62889Y-18039D01*
X62889Y-18039D02*
X63921Y-17007D01*
X63464Y-15629D02*
X63464Y-16551D01*
X63464Y-16551D02*
X63921Y-17007D01*
X65464Y-15629D02*
X63464Y-15629D01*
X63464Y-12110D02*
X63464Y-15629D01*
X66181Y-18275D02*
X66181Y-17267D01*
X66181Y-17267D02*
X65921Y-17007D01*
X55866Y-14629D02*
X55866Y-13826D01*
X55866Y-13826D02*
X56346Y-13346D01*
X57346Y-17322D02*
X57346Y-14645D01*
X56346Y-13346D02*
X57346Y-14346D01*
X57346Y-14346D02*
X57346Y-14645D01*
X54566Y-17803D02*
X54566Y-17244D01*
X55181Y-16629D02*
X55866Y-16629D01*
X54566Y-17244D02*
X55181Y-16629D01*
X61338Y-25885D02*
X61854Y-25370D01*
X61854Y-25370D02*
X61854Y-24295D01*
X63078Y-24291D02*
X63074Y-24295D01*
X63074Y-24295D02*
X61854Y-24295D01*
X73220Y-24566D02*
X72716Y-24062D01*
X72716Y-24062D02*
X72716Y-23401D01*
X73220Y-24566D02*
X73771Y-24566D01*
X73771Y-24566D02*
X74251Y-24086D01*
X73574Y-25708D02*
X73220Y-25354D01*
X73220Y-25354D02*
X73220Y-24566D01*
X66066Y-25472D02*
X66066Y-26484D01*
X66066Y-26484D02*
X66078Y-26496D01*
X66066Y-25472D02*
X66590Y-25472D01*
X66590Y-25472D02*
X67078Y-24984D01*
X68149Y-26055D02*
X67078Y-24984D01*
X67078Y-24984D02*
X67078Y-24291D01*
X49724Y-26566D02*
X50094Y-26566D01*
X50094Y-26566D02*
X50952Y-25708D01*
X50952Y-24566D02*
X50952Y-25708D01*
X51299Y-23401D02*
X50952Y-23748D01*
X50952Y-23748D02*
X50952Y-24566D01*
X78444Y-48818D02*
X78444Y-47925D01*
X78444Y-47925D02*
X77173Y-46653D01*
X80787Y-48326D02*
X80728Y-48326D01*
X80728Y-48326D02*
X77952Y-45551D01*
X77952Y-45551D02*
X77173Y-45551D01*
X78385Y-45118D02*
X77952Y-45551D01*
X78385Y-43779D02*
X78385Y-45118D01*
X77173Y-43346D02*
X77952Y-43346D01*
X77952Y-43346D02*
X78385Y-43779D01*
X84645Y-26874D02*
X84645Y-25826D01*
X84645Y-25826D02*
X84133Y-25314D01*
X81511Y-25314D02*
X82881Y-25314D01*
X85433Y-22889D02*
X85433Y-24015D01*
X84133Y-25314D02*
X82881Y-25314D01*
X85433Y-24015D02*
X84133Y-25314D01*
X84645Y-28874D02*
X84645Y-31496D01*
X84015Y-32125D02*
X82944Y-32125D01*
X84645Y-31496D02*
X84015Y-32125D01*
X79023Y-38346D02*
X79980Y-39303D01*
X79980Y-39303D02*
X79980Y-40314D01*
X78437Y-29909D02*
X77913Y-30433D01*
X79011Y-29909D02*
X78437Y-29909D01*
X77913Y-37236D02*
X79023Y-38346D01*
X77913Y-30433D02*
X77913Y-37236D01*
X82944Y-33228D02*
X84488Y-33228D01*
X84488Y-33228D02*
X85944Y-31771D01*
X85944Y-31771D02*
X85944Y-30858D01*
X87125Y-30858D02*
X85944Y-30858D01*
X85944Y-30858D02*
X85944Y-30086D01*
X85944Y-28874D02*
X85944Y-30086D01*
G54D40*
X83023Y-38346D02*
X83023Y-38086D01*
X83023Y-38086D02*
X82299Y-37362D01*
X82523Y-36417D02*
X82523Y-37137D01*
X82523Y-37137D02*
X82299Y-37362D01*
G54D37*
X83629Y-36417D02*
X82523Y-36417D01*
X43110Y-17842D02*
X43110Y-17196D01*
X43110Y-17196D02*
X43653Y-16653D01*
X43853Y-14409D02*
X43853Y-16453D01*
X43853Y-16453D02*
X43653Y-16653D01*
X35905Y-22000D02*
X37278Y-22000D01*
X36578Y-16653D02*
X37278Y-16653D01*
G54D35*
X37278Y-14409D02*
X37278Y-16653D01*
X37278Y-16653D02*
X37278Y-22000D01*
X37278Y-22000D02*
X37278Y-23415D01*
X37278Y-23415D02*
X37283Y-23419D01*
G54D37*
X32748Y-17401D02*
X33582Y-17401D01*
X33582Y-18330D02*
X33582Y-17401D01*
X33582Y-17401D02*
X33582Y-16657D01*
X33582Y-16657D02*
X33578Y-16653D01*
X33574Y-16657D02*
X33578Y-16653D01*
X33578Y-16653D02*
X32878Y-15953D01*
X32878Y-15953D02*
X32878Y-14409D01*
X34582Y-19330D02*
X34582Y-21216D01*
X34582Y-19330D02*
X34582Y-19322D01*
X34582Y-19322D02*
X35905Y-18000D01*
X65039Y-18275D02*
X65039Y-18389D01*
X65039Y-18389D02*
X63901Y-19527D01*
X63901Y-19527D02*
X62401Y-19527D01*
X61889Y-19015D02*
X61889Y-17267D01*
X62401Y-19527D02*
X61889Y-19015D01*
X56846Y-19527D02*
X58051Y-18322D01*
X58051Y-18322D02*
X58346Y-18322D01*
X55669Y-17803D02*
X55669Y-18350D01*
X55669Y-18350D02*
X56846Y-19527D01*
X72720Y-16653D02*
X72322Y-17051D01*
X72716Y-18937D02*
X73220Y-18937D01*
X72322Y-18543D02*
X72716Y-18937D01*
X72322Y-17051D02*
X72322Y-18543D01*
G54D35*
X75590Y-14401D02*
X73428Y-14401D01*
X73428Y-14401D02*
X73420Y-14409D01*
G54D37*
X73420Y-15953D02*
X73420Y-14409D01*
X72720Y-16653D02*
X73420Y-15953D01*
X69020Y-16653D02*
X68267Y-16653D01*
X67440Y-17480D02*
X67440Y-18960D01*
X68267Y-16653D02*
X67440Y-17480D01*
X69020Y-14409D02*
X69020Y-16653D01*
X69020Y-16653D02*
X69720Y-16653D01*
X66811Y-11897D02*
X69020Y-14107D01*
X69020Y-14107D02*
X69020Y-14409D01*
X45078Y-18110D02*
X45078Y-22464D01*
X46228Y-17795D02*
X45393Y-17795D01*
X45078Y-18110D02*
X45393Y-17795D01*
X45078Y-22464D02*
X45511Y-22897D01*
X46728Y-16653D02*
X46728Y-17295D01*
X46728Y-17295D02*
X46228Y-17795D01*
X46728Y-16653D02*
X46028Y-15953D01*
X46028Y-15953D02*
X46028Y-14409D01*
G54D35*
X52952Y-14401D02*
X50436Y-14401D01*
X50436Y-14401D02*
X50428Y-14409D01*
G54D37*
X50228Y-20157D02*
X49803Y-20157D01*
X49330Y-17051D02*
X49728Y-16653D01*
X49330Y-19685D02*
X49330Y-17051D01*
X49803Y-20157D02*
X49330Y-19685D01*
X49728Y-16653D02*
X50428Y-15953D01*
X50428Y-15953D02*
X50428Y-14409D01*
X68440Y-19960D02*
X68559Y-20078D01*
X68559Y-20078D02*
X69720Y-20078D01*
X69220Y-18937D02*
X69720Y-19437D01*
X69720Y-19437D02*
X69720Y-20078D01*
X46728Y-21259D02*
X46728Y-23681D01*
X46728Y-23681D02*
X46511Y-23897D01*
X46228Y-20157D02*
X46728Y-20657D01*
X46728Y-20657D02*
X46728Y-21259D01*
X82011Y-26574D02*
X83141Y-26574D01*
X83141Y-26574D02*
X83464Y-26897D01*
X80511Y-24314D02*
X80511Y-26299D01*
X80787Y-26574D02*
X82011Y-26574D01*
X80511Y-26299D02*
X80787Y-26574D01*
X82129Y-16653D02*
X83456Y-16653D01*
X83456Y-16653D02*
X83538Y-16735D01*
G54D35*
X84874Y-18070D02*
X83538Y-16735D01*
X83538Y-16735D02*
X83538Y-14409D01*
X88661Y-17354D02*
X87944Y-18070D01*
X87944Y-18070D02*
X84874Y-18070D01*
G54D37*
X78866Y-21889D02*
X78866Y-21511D01*
X78866Y-21511D02*
X79866Y-20511D01*
X79866Y-20511D02*
X79129Y-19775D01*
X79129Y-19775D02*
X79129Y-16653D01*
X79129Y-16653D02*
X79138Y-16644D01*
X79138Y-16644D02*
X79138Y-14409D01*
X80866Y-19511D02*
X83287Y-19511D01*
X83287Y-19511D02*
X83303Y-19527D01*
X80874Y-18070D02*
X80874Y-19503D01*
X80874Y-19503D02*
X80866Y-19511D01*
X28685Y-22165D02*
X28779Y-22259D01*
X28779Y-22259D02*
X28779Y-23354D01*
X28685Y-22165D02*
X29818Y-21031D01*
X29818Y-21031D02*
X29818Y-20763D01*
X33007Y-29055D02*
X31708Y-27755D01*
X31708Y-27755D02*
X31440Y-27755D01*
X31440Y-26574D02*
X31440Y-27755D01*
X31007Y-29055D02*
X28787Y-29055D01*
X28787Y-29055D02*
X28779Y-29062D01*
X65464Y-14527D02*
X66299Y-14527D01*
X66811Y-15039D02*
X66811Y-15897D01*
X66299Y-14527D02*
X66811Y-15039D01*
X64464Y-13110D02*
X64464Y-13527D01*
X64464Y-13527D02*
X65464Y-14527D01*
X61464Y-15629D02*
X61464Y-14527D01*
X62464Y-13110D02*
X61464Y-14110D01*
X61464Y-14110D02*
X61464Y-14527D01*
X60346Y-12244D02*
X60346Y-13346D01*
X59346Y-14645D02*
X60346Y-13645D01*
X60346Y-13645D02*
X60346Y-13346D01*
X52165Y-17795D02*
X54527Y-15433D01*
X50228Y-17795D02*
X52165Y-17795D01*
X55551Y-12244D02*
X56346Y-12244D01*
X54527Y-13267D02*
X55551Y-12244D01*
X54527Y-15433D02*
X54527Y-13267D01*
X56346Y-12244D02*
X57244Y-12244D01*
X57244Y-12244D02*
X58346Y-13346D01*
X58346Y-13346D02*
X58346Y-15645D01*
X50228Y-18976D02*
X50228Y-17795D01*
X61854Y-22295D02*
X65019Y-22295D01*
X65019Y-22295D02*
X65039Y-22275D01*
X58854Y-21295D02*
X56177Y-21295D01*
X56177Y-21295D02*
X55669Y-21803D01*
X66181Y-22275D02*
X66181Y-23295D01*
X69220Y-24566D02*
X67948Y-23295D01*
X67948Y-23295D02*
X66181Y-23295D01*
X66181Y-23295D02*
X61854Y-23295D01*
X54952Y-24566D02*
X54566Y-24181D01*
X54566Y-24181D02*
X54566Y-22834D01*
X58854Y-22295D02*
X56720Y-22295D01*
X56181Y-22834D02*
X54566Y-22834D01*
X56720Y-22295D02*
X56181Y-22834D01*
X54566Y-22834D02*
X54566Y-21803D01*
X64763Y-27913D02*
X68070Y-27913D01*
X68070Y-27913D02*
X69574Y-26409D01*
X69574Y-26409D02*
X69574Y-25708D01*
X54952Y-25708D02*
X54952Y-26999D01*
X54952Y-26999D02*
X55866Y-27913D01*
X56850Y-27913D02*
X55866Y-27913D01*
X82881Y-24212D02*
X82881Y-23047D01*
X82881Y-23047D02*
X82866Y-23031D01*
X84433Y-21889D02*
X82866Y-21889D01*
X82866Y-21889D02*
X82866Y-23031D01*
X86881Y-24212D02*
X86881Y-22338D01*
X86881Y-22338D02*
X86433Y-21889D01*
X86881Y-25314D02*
X86881Y-24212D01*
X82011Y-29909D02*
X83059Y-29909D01*
X83464Y-30314D02*
X83464Y-30897D01*
X83059Y-29909D02*
X83464Y-30314D01*
X78944Y-32125D02*
X78944Y-33228D01*
X80905Y-34803D02*
X85228Y-34803D01*
X85228Y-34803D02*
X85944Y-34086D01*
G54D10*
G36*
X70059Y-33855D02*
X70047Y-33984D01*
X70014Y-34107D01*
X69961Y-34222D01*
X69888Y-34326D01*
X69798Y-34416D01*
X69694Y-34488D01*
X69579Y-34542D01*
X69457Y-34575D01*
X69328Y-34586D01*
X60131Y-34586D01*
X60131Y-20007D01*
X59846Y-19722D01*
X59651Y-19917D01*
X59651Y-19527D01*
X59366Y-19242D01*
X59282Y-19287D01*
X59246Y-19402D01*
X59233Y-19522D01*
X59244Y-19641D01*
X59278Y-19757D01*
X59282Y-19767D01*
X59366Y-19813D01*
X59651Y-19527D01*
X59651Y-19917D01*
X59560Y-20007D01*
X59606Y-20091D01*
X59721Y-20127D01*
X59841Y-20140D01*
X59960Y-20129D01*
X60075Y-20095D01*
X60086Y-20091D01*
X60131Y-20007D01*
X60131Y-34586D01*
X59761Y-34586D01*
X59761Y-24300D01*
X59747Y-24152D01*
X59705Y-24009D01*
X59636Y-23877D01*
X59543Y-23761D01*
X59429Y-23665D01*
X59387Y-23642D01*
X59419Y-23606D01*
X59471Y-23517D01*
X59474Y-23510D01*
X59446Y-23433D01*
X58992Y-23433D01*
X58992Y-23440D01*
X58716Y-23440D01*
X58716Y-23433D01*
X58262Y-23433D01*
X58233Y-23510D01*
X58236Y-23517D01*
X58289Y-23606D01*
X58321Y-23642D01*
X58287Y-23659D01*
X58172Y-23754D01*
X58077Y-23868D01*
X58006Y-23999D01*
X57962Y-24141D01*
X57947Y-24289D01*
X57960Y-24438D01*
X58002Y-24581D01*
X58071Y-24712D01*
X58164Y-24828D01*
X58279Y-24924D01*
X58409Y-24996D01*
X58551Y-25041D01*
X58699Y-25057D01*
X58709Y-25058D01*
X58998Y-25058D01*
X59146Y-25043D01*
X59289Y-25000D01*
X59420Y-24930D01*
X59536Y-24836D01*
X59631Y-24721D01*
X59701Y-24590D01*
X59745Y-24448D01*
X59761Y-24300D01*
X59761Y-34586D01*
X54805Y-34586D01*
X54676Y-34575D01*
X54554Y-34542D01*
X54439Y-34488D01*
X54335Y-34416D01*
X54245Y-34326D01*
X54172Y-34222D01*
X54118Y-34107D01*
X54086Y-33984D01*
X54074Y-33855D01*
X54074Y-31153D01*
X55892Y-31153D01*
X55985Y-31155D01*
X55997Y-31153D01*
X58490Y-31153D01*
X58584Y-31155D01*
X58785Y-31119D01*
X58976Y-31045D01*
X59149Y-30936D01*
X59297Y-30795D01*
X59415Y-30628D01*
X59498Y-30441D01*
X59544Y-30241D01*
X59545Y-30133D01*
X59547Y-30117D01*
X59545Y-30103D01*
X59547Y-30007D01*
X59507Y-29807D01*
X59429Y-29618D01*
X59316Y-29447D01*
X59172Y-29302D01*
X59002Y-29188D01*
X58813Y-29108D01*
X58613Y-29067D01*
X58408Y-29066D01*
X58405Y-29066D01*
X55915Y-29066D01*
X55810Y-29066D01*
X55806Y-29066D01*
X54074Y-29066D01*
X54074Y-24600D01*
X54101Y-24633D01*
X54105Y-24638D01*
X54135Y-24801D01*
X54196Y-24955D01*
X54286Y-25095D01*
X54326Y-25137D01*
X54301Y-25162D01*
X54207Y-25299D01*
X54142Y-25451D01*
X54107Y-25613D01*
X54105Y-25779D01*
X54135Y-25943D01*
X54196Y-26097D01*
X54286Y-26236D01*
X54303Y-26254D01*
X54303Y-26999D01*
X54309Y-27059D01*
X54314Y-27119D01*
X54315Y-27122D01*
X54315Y-27125D01*
X54332Y-27183D01*
X54349Y-27240D01*
X54351Y-27244D01*
X54352Y-27247D01*
X54380Y-27300D01*
X54407Y-27353D01*
X54410Y-27356D01*
X54411Y-27359D01*
X54449Y-27405D01*
X54487Y-27452D01*
X54491Y-27457D01*
X54491Y-27457D01*
X54491Y-27457D01*
X54493Y-27459D01*
X55127Y-28093D01*
X55132Y-28141D01*
X55174Y-28281D01*
X55243Y-28409D01*
X55335Y-28523D01*
X55447Y-28616D01*
X55576Y-28685D01*
X55715Y-28728D01*
X55861Y-28744D01*
X56006Y-28730D01*
X56146Y-28689D01*
X56276Y-28622D01*
X56349Y-28562D01*
X56367Y-28562D01*
X56431Y-28616D01*
X56560Y-28685D01*
X56699Y-28728D01*
X56845Y-28744D01*
X56990Y-28730D01*
X57130Y-28689D01*
X57260Y-28622D01*
X57342Y-28555D01*
X57415Y-28616D01*
X57544Y-28685D01*
X57683Y-28728D01*
X57829Y-28744D01*
X57974Y-28730D01*
X58114Y-28689D01*
X58244Y-28622D01*
X58357Y-28530D01*
X58451Y-28418D01*
X58522Y-28290D01*
X58566Y-28151D01*
X58582Y-28006D01*
X58582Y-27995D01*
X58582Y-27830D01*
X58568Y-27685D01*
X58526Y-27545D01*
X58457Y-27416D01*
X58365Y-27303D01*
X58252Y-27210D01*
X58124Y-27141D01*
X57984Y-27097D01*
X57839Y-27082D01*
X57694Y-27095D01*
X57554Y-27137D01*
X57424Y-27204D01*
X57342Y-27271D01*
X57268Y-27210D01*
X57140Y-27141D01*
X57000Y-27097D01*
X56855Y-27082D01*
X56710Y-27095D01*
X56570Y-27137D01*
X56440Y-27204D01*
X56367Y-27263D01*
X56349Y-27263D01*
X56284Y-27210D01*
X56156Y-27141D01*
X56016Y-27097D01*
X55964Y-27092D01*
X55602Y-26730D01*
X55602Y-26255D01*
X55692Y-26128D01*
X55759Y-25977D01*
X55796Y-25815D01*
X55799Y-25625D01*
X55766Y-25462D01*
X55703Y-25309D01*
X55611Y-25171D01*
X55579Y-25138D01*
X55596Y-25122D01*
X55692Y-24986D01*
X55759Y-24835D01*
X55796Y-24673D01*
X55799Y-24483D01*
X55766Y-24321D01*
X55703Y-24167D01*
X55611Y-24029D01*
X55494Y-23911D01*
X55357Y-23818D01*
X55216Y-23759D01*
X55216Y-23484D01*
X56181Y-23484D01*
X56240Y-23478D01*
X56300Y-23473D01*
X56303Y-23472D01*
X56307Y-23471D01*
X56364Y-23454D01*
X56422Y-23437D01*
X56425Y-23436D01*
X56428Y-23435D01*
X56481Y-23407D01*
X56534Y-23379D01*
X56537Y-23377D01*
X56540Y-23375D01*
X56587Y-23337D01*
X56633Y-23300D01*
X56638Y-23295D01*
X56638Y-23295D01*
X56638Y-23295D01*
X56640Y-23293D01*
X56989Y-22944D01*
X58315Y-22944D01*
X58321Y-22947D01*
X58289Y-22983D01*
X58236Y-23072D01*
X58233Y-23079D01*
X58262Y-23157D01*
X58716Y-23157D01*
X58716Y-23149D01*
X58992Y-23149D01*
X58992Y-23157D01*
X59446Y-23157D01*
X59474Y-23079D01*
X59471Y-23072D01*
X59419Y-22983D01*
X59387Y-22948D01*
X59420Y-22930D01*
X59536Y-22836D01*
X59631Y-22721D01*
X59701Y-22590D01*
X59745Y-22448D01*
X59761Y-22300D01*
X59747Y-22152D01*
X59705Y-22009D01*
X59649Y-21900D01*
X59656Y-21893D01*
X59705Y-21819D01*
X59739Y-21737D01*
X59757Y-21649D01*
X59757Y-21560D01*
X59757Y-20940D01*
X59739Y-20853D01*
X59705Y-20770D01*
X59656Y-20696D01*
X59592Y-20633D01*
X59518Y-20584D01*
X59436Y-20549D01*
X59348Y-20532D01*
X59259Y-20532D01*
X58359Y-20532D01*
X58272Y-20549D01*
X58189Y-20584D01*
X58115Y-20633D01*
X58103Y-20645D01*
X56177Y-20645D01*
X56117Y-20651D01*
X56057Y-20656D01*
X56054Y-20657D01*
X56050Y-20658D01*
X55993Y-20675D01*
X55935Y-20692D01*
X55932Y-20693D01*
X55929Y-20694D01*
X55876Y-20722D01*
X55823Y-20750D01*
X55820Y-20752D01*
X55817Y-20754D01*
X55771Y-20792D01*
X55724Y-20829D01*
X55719Y-20834D01*
X55719Y-20834D01*
X55719Y-20834D01*
X55717Y-20835D01*
X55597Y-20956D01*
X55592Y-20956D01*
X55429Y-20987D01*
X55275Y-21049D01*
X55136Y-21140D01*
X55118Y-21157D01*
X55108Y-21147D01*
X54971Y-21055D01*
X54818Y-20990D01*
X54655Y-20957D01*
X54489Y-20956D01*
X54326Y-20987D01*
X54172Y-21049D01*
X54074Y-21113D01*
X54074Y-18491D01*
X54152Y-18545D01*
X54304Y-18611D01*
X54466Y-18647D01*
X54632Y-18650D01*
X54795Y-18622D01*
X54950Y-18562D01*
X55040Y-18504D01*
X55049Y-18534D01*
X55066Y-18591D01*
X55067Y-18594D01*
X55068Y-18597D01*
X55096Y-18650D01*
X55124Y-18704D01*
X55126Y-18706D01*
X55128Y-18709D01*
X55166Y-18756D01*
X55203Y-18803D01*
X55208Y-18808D01*
X55208Y-18808D01*
X55208Y-18808D01*
X55209Y-18809D01*
X55999Y-19598D01*
X56029Y-19761D01*
X56090Y-19916D01*
X56180Y-20055D01*
X56295Y-20175D01*
X56431Y-20269D01*
X56583Y-20336D01*
X56745Y-20371D01*
X56911Y-20375D01*
X57075Y-20346D01*
X57229Y-20286D01*
X57369Y-20197D01*
X57490Y-20083D01*
X57585Y-19947D01*
X57653Y-19795D01*
X57690Y-19634D01*
X57690Y-19602D01*
X57998Y-19294D01*
X58018Y-19305D01*
X58176Y-19353D01*
X58340Y-19371D01*
X58505Y-19356D01*
X58663Y-19309D01*
X58809Y-19232D01*
X58938Y-19129D01*
X59044Y-19002D01*
X59124Y-18858D01*
X59174Y-18700D01*
X59192Y-18536D01*
X59192Y-18524D01*
X59192Y-18120D01*
X59176Y-17956D01*
X59163Y-17911D01*
X59208Y-17885D01*
X59208Y-17460D01*
X59200Y-17460D01*
X59200Y-17185D01*
X59208Y-17185D01*
X59208Y-16760D01*
X59111Y-16704D01*
X58991Y-16723D01*
X58877Y-16766D01*
X58774Y-16829D01*
X58685Y-16912D01*
X58614Y-17010D01*
X58584Y-17093D01*
X58610Y-17185D01*
X58539Y-17185D01*
X58539Y-17298D01*
X58516Y-17291D01*
X58390Y-17278D01*
X58379Y-17164D01*
X58333Y-17005D01*
X58256Y-16859D01*
X58153Y-16730D01*
X58037Y-16633D01*
X58176Y-16676D01*
X58340Y-16693D01*
X58505Y-16678D01*
X58663Y-16632D01*
X58809Y-16555D01*
X58938Y-16452D01*
X59044Y-16325D01*
X59070Y-16279D01*
X60916Y-16279D01*
X61049Y-16372D01*
X61201Y-16438D01*
X61298Y-16460D01*
X61297Y-16461D01*
X61191Y-16587D01*
X61111Y-16732D01*
X61062Y-16889D01*
X61043Y-17053D01*
X61043Y-17065D01*
X61043Y-17469D01*
X61059Y-17634D01*
X61073Y-17678D01*
X61027Y-17705D01*
X61027Y-18129D01*
X61035Y-18129D01*
X61035Y-18405D01*
X61027Y-18405D01*
X61027Y-18830D01*
X61124Y-18886D01*
X61240Y-18867D01*
X61240Y-18999D01*
X61237Y-18996D01*
X61187Y-19047D01*
X61141Y-18963D01*
X61026Y-18927D01*
X60907Y-18914D01*
X60787Y-18925D01*
X60751Y-18935D01*
X60751Y-18830D01*
X60751Y-18405D01*
X60751Y-18129D01*
X60751Y-17705D01*
X60654Y-17649D01*
X60534Y-17668D01*
X60421Y-17710D01*
X60317Y-17774D01*
X60228Y-17857D01*
X60157Y-17955D01*
X60127Y-18038D01*
X60154Y-18129D01*
X60751Y-18129D01*
X60751Y-18405D01*
X60154Y-18405D01*
X60127Y-18496D01*
X60157Y-18579D01*
X60228Y-18678D01*
X60317Y-18760D01*
X60421Y-18824D01*
X60534Y-18866D01*
X60654Y-18886D01*
X60751Y-18830D01*
X60751Y-18935D01*
X60672Y-18959D01*
X60661Y-18963D01*
X60616Y-19047D01*
X60901Y-19332D01*
X60907Y-19327D01*
X61102Y-19521D01*
X61096Y-19527D01*
X61381Y-19813D01*
X61465Y-19767D01*
X61501Y-19652D01*
X61511Y-19556D01*
X61942Y-19986D01*
X61988Y-20024D01*
X62034Y-20063D01*
X62037Y-20065D01*
X62040Y-20067D01*
X62093Y-20095D01*
X62145Y-20124D01*
X62148Y-20125D01*
X62151Y-20127D01*
X62209Y-20144D01*
X62266Y-20162D01*
X62269Y-20163D01*
X62273Y-20164D01*
X62332Y-20170D01*
X62392Y-20177D01*
X62399Y-20177D01*
X62399Y-20177D01*
X62399Y-20177D01*
X62401Y-20177D01*
X63353Y-20177D01*
X63486Y-20269D01*
X63638Y-20336D01*
X63800Y-20371D01*
X63966Y-20375D01*
X64130Y-20346D01*
X64284Y-20286D01*
X64425Y-20197D01*
X64545Y-20083D01*
X64640Y-19947D01*
X64708Y-19795D01*
X64745Y-19634D01*
X64745Y-19602D01*
X65250Y-19097D01*
X65268Y-19094D01*
X65422Y-19034D01*
X65562Y-18945D01*
X65609Y-18901D01*
X65629Y-18923D01*
X65766Y-19017D01*
X65918Y-19084D01*
X66080Y-19119D01*
X66246Y-19123D01*
X66409Y-19094D01*
X66564Y-19034D01*
X66594Y-19015D01*
X66594Y-19162D01*
X66610Y-19327D01*
X66658Y-19485D01*
X66736Y-19630D01*
X66840Y-19758D01*
X66967Y-19864D01*
X67113Y-19942D01*
X67169Y-19960D01*
X67123Y-19973D01*
X66977Y-20050D01*
X66848Y-20153D01*
X66742Y-20280D01*
X66663Y-20425D01*
X66613Y-20582D01*
X66606Y-20645D01*
X62392Y-20645D01*
X62299Y-20594D01*
X62157Y-20549D01*
X62009Y-20532D01*
X61998Y-20532D01*
X61709Y-20532D01*
X61561Y-20547D01*
X61419Y-20590D01*
X61287Y-20659D01*
X61187Y-20742D01*
X61187Y-20007D01*
X60901Y-19722D01*
X60706Y-19917D01*
X60706Y-19527D01*
X60421Y-19242D01*
X60374Y-19267D01*
X60326Y-19242D01*
X60131Y-19436D01*
X60131Y-19047D01*
X60108Y-19004D01*
X60108Y-17551D01*
X60108Y-17093D01*
X60078Y-17010D01*
X60007Y-16912D01*
X59918Y-16829D01*
X59815Y-16766D01*
X59701Y-16723D01*
X59581Y-16704D01*
X59484Y-16760D01*
X59484Y-17185D01*
X60082Y-17185D01*
X60108Y-17093D01*
X60108Y-17551D01*
X60082Y-17460D01*
X59484Y-17460D01*
X59484Y-17885D01*
X59581Y-17941D01*
X59701Y-17921D01*
X59815Y-17879D01*
X59918Y-17815D01*
X60007Y-17733D01*
X60078Y-17634D01*
X60108Y-17551D01*
X60108Y-19004D01*
X60086Y-18963D01*
X59971Y-18927D01*
X59851Y-18914D01*
X59732Y-18925D01*
X59616Y-18959D01*
X59606Y-18963D01*
X59560Y-19047D01*
X59846Y-19332D01*
X60131Y-19047D01*
X60131Y-19436D01*
X60041Y-19527D01*
X60326Y-19813D01*
X60374Y-19787D01*
X60421Y-19813D01*
X60706Y-19527D01*
X60706Y-19917D01*
X60616Y-20007D01*
X60661Y-20091D01*
X60776Y-20127D01*
X60896Y-20140D01*
X61015Y-20129D01*
X61131Y-20095D01*
X61141Y-20091D01*
X61187Y-20007D01*
X61187Y-20742D01*
X61172Y-20754D01*
X61077Y-20868D01*
X61006Y-20999D01*
X60962Y-21141D01*
X60947Y-21289D01*
X60960Y-21438D01*
X61002Y-21581D01*
X61071Y-21712D01*
X61138Y-21795D01*
X61077Y-21868D01*
X61006Y-21999D01*
X60962Y-22141D01*
X60947Y-22289D01*
X60960Y-22438D01*
X61002Y-22581D01*
X61071Y-22712D01*
X61138Y-22795D01*
X61077Y-22868D01*
X61006Y-22999D01*
X60962Y-23141D01*
X60947Y-23289D01*
X60960Y-23438D01*
X61002Y-23581D01*
X61071Y-23712D01*
X61138Y-23795D01*
X61077Y-23868D01*
X61006Y-23999D01*
X60962Y-24141D01*
X60947Y-24289D01*
X60960Y-24438D01*
X61002Y-24581D01*
X61071Y-24712D01*
X61164Y-24828D01*
X61204Y-24862D01*
X61204Y-25101D01*
X61187Y-25118D01*
X60979Y-25118D01*
X60891Y-25135D01*
X60809Y-25169D01*
X60735Y-25219D01*
X60671Y-25282D01*
X60622Y-25356D01*
X60588Y-25438D01*
X60570Y-25526D01*
X60570Y-25615D01*
X60570Y-26245D01*
X60588Y-26332D01*
X60622Y-26415D01*
X60671Y-26489D01*
X60735Y-26552D01*
X60809Y-26602D01*
X60891Y-26636D01*
X60914Y-26640D01*
X60916Y-26642D01*
X60840Y-26678D01*
X60812Y-26779D01*
X60804Y-26883D01*
X60817Y-26987D01*
X60840Y-27061D01*
X60916Y-27097D01*
X61143Y-26870D01*
X61138Y-26864D01*
X61333Y-26669D01*
X61338Y-26675D01*
X61344Y-26669D01*
X61539Y-26864D01*
X61533Y-26870D01*
X61761Y-27097D01*
X61837Y-27061D01*
X61864Y-26960D01*
X61872Y-26856D01*
X61859Y-26752D01*
X61837Y-26678D01*
X61761Y-26642D01*
X61762Y-26640D01*
X61785Y-26636D01*
X61868Y-26602D01*
X61942Y-26552D01*
X62005Y-26489D01*
X62054Y-26415D01*
X62088Y-26332D01*
X62106Y-26245D01*
X62106Y-26156D01*
X62106Y-26036D01*
X62313Y-25829D01*
X62351Y-25783D01*
X62390Y-25737D01*
X62391Y-25734D01*
X62394Y-25731D01*
X62422Y-25678D01*
X62451Y-25625D01*
X62452Y-25622D01*
X62454Y-25619D01*
X62464Y-25585D01*
X62464Y-25586D01*
X62498Y-25701D01*
X62502Y-25712D01*
X62586Y-25757D01*
X62872Y-25472D01*
X62586Y-25186D01*
X62503Y-25232D01*
X62503Y-24944D01*
X62536Y-24944D01*
X62663Y-25033D01*
X62815Y-25100D01*
X62910Y-25120D01*
X63066Y-25277D01*
X63218Y-25126D01*
X63307Y-25110D01*
X63462Y-25050D01*
X63602Y-24961D01*
X63722Y-24846D01*
X63818Y-24711D01*
X63885Y-24559D01*
X63922Y-24397D01*
X63925Y-24208D01*
X63892Y-24045D01*
X63851Y-23944D01*
X66181Y-23944D01*
X66306Y-23944D01*
X66268Y-24034D01*
X66233Y-24196D01*
X66231Y-24362D01*
X66261Y-24525D01*
X66314Y-24659D01*
X66155Y-24626D01*
X65989Y-24625D01*
X65826Y-24656D01*
X65672Y-24718D01*
X65534Y-24809D01*
X65415Y-24925D01*
X65321Y-25062D01*
X65256Y-25215D01*
X65221Y-25377D01*
X65219Y-25543D01*
X65249Y-25706D01*
X65310Y-25861D01*
X65400Y-26000D01*
X65417Y-26018D01*
X65417Y-26139D01*
X65362Y-26268D01*
X65331Y-26412D01*
X65329Y-26558D01*
X65355Y-26703D01*
X65410Y-26839D01*
X65489Y-26963D01*
X65591Y-27068D01*
X65711Y-27152D01*
X65846Y-27211D01*
X65989Y-27242D01*
X66136Y-27245D01*
X66280Y-27220D01*
X66417Y-27167D01*
X66541Y-27088D01*
X66647Y-26987D01*
X66732Y-26867D01*
X66792Y-26733D01*
X66824Y-26590D01*
X66827Y-26422D01*
X66798Y-26278D01*
X66742Y-26143D01*
X66719Y-26108D01*
X66774Y-26092D01*
X66831Y-26075D01*
X66834Y-26074D01*
X66838Y-26073D01*
X66891Y-26044D01*
X66944Y-26017D01*
X66947Y-26015D01*
X66950Y-26013D01*
X66996Y-25975D01*
X67043Y-25938D01*
X67048Y-25933D01*
X67048Y-25933D01*
X67048Y-25933D01*
X67049Y-25931D01*
X67078Y-25902D01*
X67302Y-26126D01*
X67332Y-26289D01*
X67393Y-26443D01*
X67483Y-26583D01*
X67598Y-26702D01*
X67734Y-26797D01*
X67886Y-26863D01*
X68048Y-26899D01*
X68163Y-26901D01*
X67801Y-27263D01*
X65246Y-27263D01*
X65181Y-27210D01*
X65053Y-27141D01*
X64913Y-27097D01*
X64768Y-27082D01*
X64623Y-27095D01*
X64592Y-27104D01*
X64592Y-26477D01*
X64579Y-26377D01*
X64560Y-26316D01*
X64486Y-26282D01*
X64291Y-26477D01*
X64291Y-26088D01*
X64258Y-26014D01*
X64161Y-25988D01*
X64060Y-25981D01*
X63960Y-25995D01*
X63898Y-26014D01*
X63865Y-26088D01*
X64078Y-26301D01*
X64291Y-26088D01*
X64291Y-26477D01*
X64273Y-26496D01*
X64486Y-26709D01*
X64560Y-26675D01*
X64586Y-26578D01*
X64592Y-26477D01*
X64592Y-27104D01*
X64483Y-27137D01*
X64353Y-27204D01*
X64291Y-27254D01*
X64291Y-26904D01*
X64078Y-26690D01*
X63883Y-26885D01*
X63883Y-26496D01*
X63679Y-26292D01*
X63679Y-25477D01*
X63669Y-25358D01*
X63635Y-25242D01*
X63631Y-25232D01*
X63547Y-25186D01*
X63261Y-25472D01*
X63547Y-25757D01*
X63631Y-25712D01*
X63667Y-25597D01*
X63679Y-25477D01*
X63679Y-26292D01*
X63670Y-26282D01*
X63596Y-26316D01*
X63570Y-26413D01*
X63564Y-26514D01*
X63577Y-26614D01*
X63596Y-26675D01*
X63670Y-26709D01*
X63883Y-26496D01*
X63883Y-26885D01*
X63865Y-26904D01*
X63898Y-26978D01*
X63996Y-27003D01*
X64097Y-27010D01*
X64196Y-26996D01*
X64258Y-26978D01*
X64291Y-26904D01*
X64291Y-27254D01*
X64240Y-27296D01*
X64146Y-27408D01*
X64118Y-27458D01*
X64109Y-27449D01*
X64027Y-27392D01*
X63992Y-27369D01*
X63917Y-27398D01*
X63917Y-27775D01*
X63925Y-27775D01*
X63925Y-28051D01*
X63917Y-28051D01*
X63917Y-28428D01*
X63992Y-28457D01*
X64027Y-28434D01*
X64109Y-28377D01*
X64118Y-28368D01*
X64140Y-28409D01*
X64232Y-28523D01*
X64345Y-28616D01*
X64473Y-28685D01*
X64613Y-28728D01*
X64758Y-28744D01*
X64903Y-28730D01*
X65043Y-28689D01*
X65173Y-28622D01*
X65246Y-28562D01*
X68070Y-28562D01*
X68130Y-28557D01*
X68190Y-28551D01*
X68193Y-28550D01*
X68197Y-28550D01*
X68254Y-28533D01*
X68312Y-28516D01*
X68315Y-28514D01*
X68318Y-28513D01*
X68371Y-28485D01*
X68424Y-28458D01*
X68427Y-28456D01*
X68430Y-28454D01*
X68476Y-28416D01*
X68523Y-28379D01*
X68528Y-28374D01*
X68528Y-28374D01*
X68528Y-28374D01*
X68530Y-28372D01*
X70034Y-26868D01*
X70059Y-26838D01*
X70059Y-28484D01*
X69330Y-28484D01*
X69234Y-28493D01*
X69138Y-28502D01*
X69133Y-28503D01*
X69128Y-28504D01*
X69035Y-28531D01*
X68943Y-28558D01*
X68938Y-28561D01*
X68933Y-28562D01*
X68848Y-28608D01*
X68762Y-28652D01*
X68758Y-28655D01*
X68753Y-28658D01*
X68678Y-28719D01*
X68603Y-28779D01*
X68595Y-28787D01*
X68595Y-28787D01*
X68595Y-28787D01*
X68592Y-28789D01*
X68315Y-29066D01*
X64813Y-29066D01*
X64708Y-29066D01*
X64704Y-29066D01*
X63641Y-29066D01*
X63641Y-28428D01*
X63641Y-28051D01*
X63641Y-27775D01*
X63641Y-27398D01*
X63566Y-27369D01*
X63531Y-27392D01*
X63449Y-27449D01*
X63380Y-27520D01*
X63352Y-27565D01*
X63352Y-25952D01*
X63066Y-25667D01*
X62781Y-25952D01*
X62827Y-26036D01*
X62942Y-26072D01*
X63061Y-26085D01*
X63181Y-26074D01*
X63296Y-26040D01*
X63306Y-26036D01*
X63352Y-25952D01*
X63352Y-27565D01*
X63327Y-27604D01*
X63291Y-27697D01*
X63329Y-27775D01*
X63641Y-27775D01*
X63641Y-28051D01*
X63329Y-28051D01*
X63291Y-28129D01*
X63327Y-28221D01*
X63380Y-28305D01*
X63449Y-28377D01*
X63531Y-28434D01*
X63566Y-28457D01*
X63641Y-28428D01*
X63641Y-29066D01*
X63284Y-29066D01*
X63284Y-28129D01*
X63284Y-27697D01*
X63247Y-27604D01*
X63194Y-27520D01*
X63125Y-27449D01*
X63043Y-27392D01*
X63008Y-27369D01*
X62933Y-27398D01*
X62933Y-27775D01*
X63245Y-27775D01*
X63284Y-27697D01*
X63284Y-28129D01*
X63245Y-28051D01*
X62933Y-28051D01*
X62933Y-28428D01*
X63008Y-28457D01*
X63043Y-28434D01*
X63125Y-28377D01*
X63194Y-28305D01*
X63247Y-28221D01*
X63284Y-28129D01*
X63284Y-29066D01*
X62657Y-29066D01*
X62657Y-28428D01*
X62657Y-28051D01*
X62657Y-27775D01*
X62657Y-27398D01*
X62582Y-27369D01*
X62547Y-27392D01*
X62465Y-27449D01*
X62396Y-27520D01*
X62343Y-27604D01*
X62307Y-27697D01*
X62345Y-27775D01*
X62657Y-27775D01*
X62657Y-28051D01*
X62345Y-28051D01*
X62307Y-28129D01*
X62343Y-28221D01*
X62396Y-28305D01*
X62465Y-28377D01*
X62547Y-28434D01*
X62582Y-28457D01*
X62657Y-28428D01*
X62657Y-29066D01*
X62214Y-29066D01*
X62109Y-29066D01*
X61908Y-29104D01*
X61872Y-29119D01*
X61719Y-29181D01*
X61566Y-29281D01*
X61566Y-27292D01*
X61338Y-27064D01*
X61143Y-27259D01*
X61110Y-27292D01*
X61146Y-27368D01*
X61247Y-27396D01*
X61352Y-27403D01*
X61456Y-27391D01*
X61530Y-27368D01*
X61566Y-27292D01*
X61566Y-29281D01*
X61547Y-29293D01*
X61401Y-29436D01*
X61286Y-29605D01*
X61205Y-29793D01*
X61162Y-29993D01*
X61160Y-30197D01*
X61196Y-30399D01*
X61272Y-30589D01*
X61383Y-30761D01*
X61525Y-30908D01*
X61693Y-31025D01*
X61880Y-31107D01*
X62080Y-31151D01*
X62285Y-31155D01*
X62296Y-31153D01*
X64790Y-31153D01*
X64883Y-31155D01*
X64894Y-31153D01*
X68748Y-31153D01*
X68843Y-31144D01*
X68939Y-31135D01*
X68945Y-31134D01*
X68950Y-31133D01*
X69042Y-31105D01*
X69135Y-31078D01*
X69140Y-31076D01*
X69145Y-31074D01*
X69230Y-31029D01*
X69316Y-30985D01*
X69320Y-30981D01*
X69325Y-30979D01*
X69400Y-30918D01*
X69475Y-30858D01*
X69483Y-30850D01*
X69483Y-30850D01*
X69483Y-30850D01*
X69485Y-30847D01*
X69762Y-30570D01*
X70059Y-30570D01*
X70059Y-33855D01*
X70059Y-33855D01*
G37*
G54D41*
X70059Y-33855D02*
X70047Y-33984D01*
X70014Y-34107D01*
X69961Y-34222D01*
X69888Y-34326D01*
X69798Y-34416D01*
X69694Y-34488D01*
X69579Y-34542D01*
X69457Y-34575D01*
X69328Y-34586D01*
X60131Y-34586D01*
X60131Y-20007D01*
X59846Y-19722D01*
X59651Y-19917D01*
X59651Y-19527D01*
X59366Y-19242D01*
X59282Y-19287D01*
X59246Y-19402D01*
X59233Y-19522D01*
X59244Y-19641D01*
X59278Y-19757D01*
X59282Y-19767D01*
X59366Y-19813D01*
X59651Y-19527D01*
X59651Y-19917D01*
X59560Y-20007D01*
X59606Y-20091D01*
X59721Y-20127D01*
X59841Y-20140D01*
X59960Y-20129D01*
X60075Y-20095D01*
X60086Y-20091D01*
X60131Y-20007D01*
X60131Y-34586D01*
X59761Y-34586D01*
X59761Y-24300D01*
X59747Y-24152D01*
X59705Y-24009D01*
X59636Y-23877D01*
X59543Y-23761D01*
X59429Y-23665D01*
X59387Y-23642D01*
X59419Y-23606D01*
X59471Y-23517D01*
X59474Y-23510D01*
X59446Y-23433D01*
X58992Y-23433D01*
X58992Y-23440D01*
X58716Y-23440D01*
X58716Y-23433D01*
X58262Y-23433D01*
X58233Y-23510D01*
X58236Y-23517D01*
X58289Y-23606D01*
X58321Y-23642D01*
X58287Y-23659D01*
X58172Y-23754D01*
X58077Y-23868D01*
X58006Y-23999D01*
X57962Y-24141D01*
X57947Y-24289D01*
X57960Y-24438D01*
X58002Y-24581D01*
X58071Y-24712D01*
X58164Y-24828D01*
X58279Y-24924D01*
X58409Y-24996D01*
X58551Y-25041D01*
X58699Y-25057D01*
X58709Y-25058D01*
X58998Y-25058D01*
X59146Y-25043D01*
X59289Y-25000D01*
X59420Y-24930D01*
X59536Y-24836D01*
X59631Y-24721D01*
X59701Y-24590D01*
X59745Y-24448D01*
X59761Y-24300D01*
X59761Y-34586D01*
X54805Y-34586D01*
X54676Y-34575D01*
X54554Y-34542D01*
X54439Y-34488D01*
X54335Y-34416D01*
X54245Y-34326D01*
X54172Y-34222D01*
X54118Y-34107D01*
X54086Y-33984D01*
X54074Y-33855D01*
X54074Y-31153D01*
X55892Y-31153D01*
X55985Y-31155D01*
X55997Y-31153D01*
X58490Y-31153D01*
X58584Y-31155D01*
X58785Y-31119D01*
X58976Y-31045D01*
X59149Y-30936D01*
X59297Y-30795D01*
X59415Y-30628D01*
X59498Y-30441D01*
X59544Y-30241D01*
X59545Y-30133D01*
X59547Y-30117D01*
X59545Y-30103D01*
X59547Y-30007D01*
X59507Y-29807D01*
X59429Y-29618D01*
X59316Y-29447D01*
X59172Y-29302D01*
X59002Y-29188D01*
X58813Y-29108D01*
X58613Y-29067D01*
X58408Y-29066D01*
X58405Y-29066D01*
X55915Y-29066D01*
X55810Y-29066D01*
X55806Y-29066D01*
X54074Y-29066D01*
X54074Y-24600D01*
X54101Y-24633D01*
X54105Y-24638D01*
X54135Y-24801D01*
X54196Y-24955D01*
X54286Y-25095D01*
X54326Y-25137D01*
X54301Y-25162D01*
X54207Y-25299D01*
X54142Y-25451D01*
X54107Y-25613D01*
X54105Y-25779D01*
X54135Y-25943D01*
X54196Y-26097D01*
X54286Y-26236D01*
X54303Y-26254D01*
X54303Y-26999D01*
X54309Y-27059D01*
X54314Y-27119D01*
X54315Y-27122D01*
X54315Y-27125D01*
X54332Y-27183D01*
X54349Y-27240D01*
X54351Y-27244D01*
X54352Y-27247D01*
X54380Y-27300D01*
X54407Y-27353D01*
X54410Y-27356D01*
X54411Y-27359D01*
X54449Y-27405D01*
X54487Y-27452D01*
X54491Y-27457D01*
X54491Y-27457D01*
X54491Y-27457D01*
X54493Y-27459D01*
X55127Y-28093D01*
X55132Y-28141D01*
X55174Y-28281D01*
X55243Y-28409D01*
X55335Y-28523D01*
X55447Y-28616D01*
X55576Y-28685D01*
X55715Y-28728D01*
X55861Y-28744D01*
X56006Y-28730D01*
X56146Y-28689D01*
X56276Y-28622D01*
X56349Y-28562D01*
X56367Y-28562D01*
X56431Y-28616D01*
X56560Y-28685D01*
X56699Y-28728D01*
X56845Y-28744D01*
X56990Y-28730D01*
X57130Y-28689D01*
X57260Y-28622D01*
X57342Y-28555D01*
X57415Y-28616D01*
X57544Y-28685D01*
X57683Y-28728D01*
X57829Y-28744D01*
X57974Y-28730D01*
X58114Y-28689D01*
X58244Y-28622D01*
X58357Y-28530D01*
X58451Y-28418D01*
X58522Y-28290D01*
X58566Y-28151D01*
X58582Y-28006D01*
X58582Y-27995D01*
X58582Y-27830D01*
X58568Y-27685D01*
X58526Y-27545D01*
X58457Y-27416D01*
X58365Y-27303D01*
X58252Y-27210D01*
X58124Y-27141D01*
X57984Y-27097D01*
X57839Y-27082D01*
X57694Y-27095D01*
X57554Y-27137D01*
X57424Y-27204D01*
X57342Y-27271D01*
X57268Y-27210D01*
X57140Y-27141D01*
X57000Y-27097D01*
X56855Y-27082D01*
X56710Y-27095D01*
X56570Y-27137D01*
X56440Y-27204D01*
X56367Y-27263D01*
X56349Y-27263D01*
X56284Y-27210D01*
X56156Y-27141D01*
X56016Y-27097D01*
X55964Y-27092D01*
X55602Y-26730D01*
X55602Y-26255D01*
X55692Y-26128D01*
X55759Y-25977D01*
X55796Y-25815D01*
X55799Y-25625D01*
X55766Y-25462D01*
X55703Y-25309D01*
X55611Y-25171D01*
X55579Y-25138D01*
X55596Y-25122D01*
X55692Y-24986D01*
X55759Y-24835D01*
X55796Y-24673D01*
X55799Y-24483D01*
X55766Y-24321D01*
X55703Y-24167D01*
X55611Y-24029D01*
X55494Y-23911D01*
X55357Y-23818D01*
X55216Y-23759D01*
X55216Y-23484D01*
X56181Y-23484D01*
X56240Y-23478D01*
X56300Y-23473D01*
X56303Y-23472D01*
X56307Y-23471D01*
X56364Y-23454D01*
X56422Y-23437D01*
X56425Y-23436D01*
X56428Y-23435D01*
X56481Y-23407D01*
X56534Y-23379D01*
X56537Y-23377D01*
X56540Y-23375D01*
X56587Y-23337D01*
X56633Y-23300D01*
X56638Y-23295D01*
X56638Y-23295D01*
X56638Y-23295D01*
X56640Y-23293D01*
X56989Y-22944D01*
X58315Y-22944D01*
X58321Y-22947D01*
X58289Y-22983D01*
X58236Y-23072D01*
X58233Y-23079D01*
X58262Y-23157D01*
X58716Y-23157D01*
X58716Y-23149D01*
X58992Y-23149D01*
X58992Y-23157D01*
X59446Y-23157D01*
X59474Y-23079D01*
X59471Y-23072D01*
X59419Y-22983D01*
X59387Y-22948D01*
X59420Y-22930D01*
X59536Y-22836D01*
X59631Y-22721D01*
X59701Y-22590D01*
X59745Y-22448D01*
X59761Y-22300D01*
X59747Y-22152D01*
X59705Y-22009D01*
X59649Y-21900D01*
X59656Y-21893D01*
X59705Y-21819D01*
X59739Y-21737D01*
X59757Y-21649D01*
X59757Y-21560D01*
X59757Y-20940D01*
X59739Y-20853D01*
X59705Y-20770D01*
X59656Y-20696D01*
X59592Y-20633D01*
X59518Y-20584D01*
X59436Y-20549D01*
X59348Y-20532D01*
X59259Y-20532D01*
X58359Y-20532D01*
X58272Y-20549D01*
X58189Y-20584D01*
X58115Y-20633D01*
X58103Y-20645D01*
X56177Y-20645D01*
X56117Y-20651D01*
X56057Y-20656D01*
X56054Y-20657D01*
X56050Y-20658D01*
X55993Y-20675D01*
X55935Y-20692D01*
X55932Y-20693D01*
X55929Y-20694D01*
X55876Y-20722D01*
X55823Y-20750D01*
X55820Y-20752D01*
X55817Y-20754D01*
X55771Y-20792D01*
X55724Y-20829D01*
X55719Y-20834D01*
X55719Y-20834D01*
X55719Y-20834D01*
X55717Y-20835D01*
X55597Y-20956D01*
X55592Y-20956D01*
X55429Y-20987D01*
X55275Y-21049D01*
X55136Y-21140D01*
X55118Y-21157D01*
X55108Y-21147D01*
X54971Y-21055D01*
X54818Y-20990D01*
X54655Y-20957D01*
X54489Y-20956D01*
X54326Y-20987D01*
X54172Y-21049D01*
X54074Y-21113D01*
X54074Y-18491D01*
X54152Y-18545D01*
X54304Y-18611D01*
X54466Y-18647D01*
X54632Y-18650D01*
X54795Y-18622D01*
X54950Y-18562D01*
X55040Y-18504D01*
X55049Y-18534D01*
X55066Y-18591D01*
X55067Y-18594D01*
X55068Y-18597D01*
X55096Y-18650D01*
X55124Y-18704D01*
X55126Y-18706D01*
X55128Y-18709D01*
X55166Y-18756D01*
X55203Y-18803D01*
X55208Y-18808D01*
X55208Y-18808D01*
X55208Y-18808D01*
X55209Y-18809D01*
X55999Y-19598D01*
X56029Y-19761D01*
X56090Y-19916D01*
X56180Y-20055D01*
X56295Y-20175D01*
X56431Y-20269D01*
X56583Y-20336D01*
X56745Y-20371D01*
X56911Y-20375D01*
X57075Y-20346D01*
X57229Y-20286D01*
X57369Y-20197D01*
X57490Y-20083D01*
X57585Y-19947D01*
X57653Y-19795D01*
X57690Y-19634D01*
X57690Y-19602D01*
X57998Y-19294D01*
X58018Y-19305D01*
X58176Y-19353D01*
X58340Y-19371D01*
X58505Y-19356D01*
X58663Y-19309D01*
X58809Y-19232D01*
X58938Y-19129D01*
X59044Y-19002D01*
X59124Y-18858D01*
X59174Y-18700D01*
X59192Y-18536D01*
X59192Y-18524D01*
X59192Y-18120D01*
X59176Y-17956D01*
X59163Y-17911D01*
X59208Y-17885D01*
X59208Y-17460D01*
X59200Y-17460D01*
X59200Y-17185D01*
X59208Y-17185D01*
X59208Y-16760D01*
X59111Y-16704D01*
X58991Y-16723D01*
X58877Y-16766D01*
X58774Y-16829D01*
X58685Y-16912D01*
X58614Y-17010D01*
X58584Y-17093D01*
X58610Y-17185D01*
X58539Y-17185D01*
X58539Y-17298D01*
X58516Y-17291D01*
X58390Y-17278D01*
X58379Y-17164D01*
X58333Y-17005D01*
X58256Y-16859D01*
X58153Y-16730D01*
X58037Y-16633D01*
X58176Y-16676D01*
X58340Y-16693D01*
X58505Y-16678D01*
X58663Y-16632D01*
X58809Y-16555D01*
X58938Y-16452D01*
X59044Y-16325D01*
X59070Y-16279D01*
X60916Y-16279D01*
X61049Y-16372D01*
X61201Y-16438D01*
X61298Y-16460D01*
X61297Y-16461D01*
X61191Y-16587D01*
X61111Y-16732D01*
X61062Y-16889D01*
X61043Y-17053D01*
X61043Y-17065D01*
X61043Y-17469D01*
X61059Y-17634D01*
X61073Y-17678D01*
X61027Y-17705D01*
X61027Y-18129D01*
X61035Y-18129D01*
X61035Y-18405D01*
X61027Y-18405D01*
X61027Y-18830D01*
X61124Y-18886D01*
X61240Y-18867D01*
X61240Y-18999D01*
X61237Y-18996D01*
X61187Y-19047D01*
X61141Y-18963D01*
X61026Y-18927D01*
X60907Y-18914D01*
X60787Y-18925D01*
X60751Y-18935D01*
X60751Y-18830D01*
X60751Y-18405D01*
X60751Y-18129D01*
X60751Y-17705D01*
X60654Y-17649D01*
X60534Y-17668D01*
X60421Y-17710D01*
X60317Y-17774D01*
X60228Y-17857D01*
X60157Y-17955D01*
X60127Y-18038D01*
X60154Y-18129D01*
X60751Y-18129D01*
X60751Y-18405D01*
X60154Y-18405D01*
X60127Y-18496D01*
X60157Y-18579D01*
X60228Y-18678D01*
X60317Y-18760D01*
X60421Y-18824D01*
X60534Y-18866D01*
X60654Y-18886D01*
X60751Y-18830D01*
X60751Y-18935D01*
X60672Y-18959D01*
X60661Y-18963D01*
X60616Y-19047D01*
X60901Y-19332D01*
X60907Y-19327D01*
X61102Y-19521D01*
X61096Y-19527D01*
X61381Y-19813D01*
X61465Y-19767D01*
X61501Y-19652D01*
X61511Y-19556D01*
X61942Y-19986D01*
X61988Y-20024D01*
X62034Y-20063D01*
X62037Y-20065D01*
X62040Y-20067D01*
X62093Y-20095D01*
X62145Y-20124D01*
X62148Y-20125D01*
X62151Y-20127D01*
X62209Y-20144D01*
X62266Y-20162D01*
X62269Y-20163D01*
X62273Y-20164D01*
X62332Y-20170D01*
X62392Y-20177D01*
X62399Y-20177D01*
X62399Y-20177D01*
X62399Y-20177D01*
X62401Y-20177D01*
X63353Y-20177D01*
X63486Y-20269D01*
X63638Y-20336D01*
X63800Y-20371D01*
X63966Y-20375D01*
X64130Y-20346D01*
X64284Y-20286D01*
X64425Y-20197D01*
X64545Y-20083D01*
X64640Y-19947D01*
X64708Y-19795D01*
X64745Y-19634D01*
X64745Y-19602D01*
X65250Y-19097D01*
X65268Y-19094D01*
X65422Y-19034D01*
X65562Y-18945D01*
X65609Y-18901D01*
X65629Y-18923D01*
X65766Y-19017D01*
X65918Y-19084D01*
X66080Y-19119D01*
X66246Y-19123D01*
X66409Y-19094D01*
X66564Y-19034D01*
X66594Y-19015D01*
X66594Y-19162D01*
X66610Y-19327D01*
X66658Y-19485D01*
X66736Y-19630D01*
X66840Y-19758D01*
X66967Y-19864D01*
X67113Y-19942D01*
X67169Y-19960D01*
X67123Y-19973D01*
X66977Y-20050D01*
X66848Y-20153D01*
X66742Y-20280D01*
X66663Y-20425D01*
X66613Y-20582D01*
X66606Y-20645D01*
X62392Y-20645D01*
X62299Y-20594D01*
X62157Y-20549D01*
X62009Y-20532D01*
X61998Y-20532D01*
X61709Y-20532D01*
X61561Y-20547D01*
X61419Y-20590D01*
X61287Y-20659D01*
X61187Y-20742D01*
X61187Y-20007D01*
X60901Y-19722D01*
X60706Y-19917D01*
X60706Y-19527D01*
X60421Y-19242D01*
X60374Y-19267D01*
X60326Y-19242D01*
X60131Y-19436D01*
X60131Y-19047D01*
X60108Y-19004D01*
X60108Y-17551D01*
X60108Y-17093D01*
X60078Y-17010D01*
X60007Y-16912D01*
X59918Y-16829D01*
X59815Y-16766D01*
X59701Y-16723D01*
X59581Y-16704D01*
X59484Y-16760D01*
X59484Y-17185D01*
X60082Y-17185D01*
X60108Y-17093D01*
X60108Y-17551D01*
X60082Y-17460D01*
X59484Y-17460D01*
X59484Y-17885D01*
X59581Y-17941D01*
X59701Y-17921D01*
X59815Y-17879D01*
X59918Y-17815D01*
X60007Y-17733D01*
X60078Y-17634D01*
X60108Y-17551D01*
X60108Y-19004D01*
X60086Y-18963D01*
X59971Y-18927D01*
X59851Y-18914D01*
X59732Y-18925D01*
X59616Y-18959D01*
X59606Y-18963D01*
X59560Y-19047D01*
X59846Y-19332D01*
X60131Y-19047D01*
X60131Y-19436D01*
X60041Y-19527D01*
X60326Y-19813D01*
X60374Y-19787D01*
X60421Y-19813D01*
X60706Y-19527D01*
X60706Y-19917D01*
X60616Y-20007D01*
X60661Y-20091D01*
X60776Y-20127D01*
X60896Y-20140D01*
X61015Y-20129D01*
X61131Y-20095D01*
X61141Y-20091D01*
X61187Y-20007D01*
X61187Y-20742D01*
X61172Y-20754D01*
X61077Y-20868D01*
X61006Y-20999D01*
X60962Y-21141D01*
X60947Y-21289D01*
X60960Y-21438D01*
X61002Y-21581D01*
X61071Y-21712D01*
X61138Y-21795D01*
X61077Y-21868D01*
X61006Y-21999D01*
X60962Y-22141D01*
X60947Y-22289D01*
X60960Y-22438D01*
X61002Y-22581D01*
X61071Y-22712D01*
X61138Y-22795D01*
X61077Y-22868D01*
X61006Y-22999D01*
X60962Y-23141D01*
X60947Y-23289D01*
X60960Y-23438D01*
X61002Y-23581D01*
X61071Y-23712D01*
X61138Y-23795D01*
X61077Y-23868D01*
X61006Y-23999D01*
X60962Y-24141D01*
X60947Y-24289D01*
X60960Y-24438D01*
X61002Y-24581D01*
X61071Y-24712D01*
X61164Y-24828D01*
X61204Y-24862D01*
X61204Y-25101D01*
X61187Y-25118D01*
X60979Y-25118D01*
X60891Y-25135D01*
X60809Y-25169D01*
X60735Y-25219D01*
X60671Y-25282D01*
X60622Y-25356D01*
X60588Y-25438D01*
X60570Y-25526D01*
X60570Y-25615D01*
X60570Y-26245D01*
X60588Y-26332D01*
X60622Y-26415D01*
X60671Y-26489D01*
X60735Y-26552D01*
X60809Y-26602D01*
X60891Y-26636D01*
X60914Y-26640D01*
X60916Y-26642D01*
X60840Y-26678D01*
X60812Y-26779D01*
X60804Y-26883D01*
X60817Y-26987D01*
X60840Y-27061D01*
X60916Y-27097D01*
X61143Y-26870D01*
X61138Y-26864D01*
X61333Y-26669D01*
X61338Y-26675D01*
X61344Y-26669D01*
X61539Y-26864D01*
X61533Y-26870D01*
X61761Y-27097D01*
X61837Y-27061D01*
X61864Y-26960D01*
X61872Y-26856D01*
X61859Y-26752D01*
X61837Y-26678D01*
X61761Y-26642D01*
X61762Y-26640D01*
X61785Y-26636D01*
X61868Y-26602D01*
X61942Y-26552D01*
X62005Y-26489D01*
X62054Y-26415D01*
X62088Y-26332D01*
X62106Y-26245D01*
X62106Y-26156D01*
X62106Y-26036D01*
X62313Y-25829D01*
X62351Y-25783D01*
X62390Y-25737D01*
X62391Y-25734D01*
X62394Y-25731D01*
X62422Y-25678D01*
X62451Y-25625D01*
X62452Y-25622D01*
X62454Y-25619D01*
X62464Y-25585D01*
X62464Y-25586D01*
X62498Y-25701D01*
X62502Y-25712D01*
X62586Y-25757D01*
X62872Y-25472D01*
X62586Y-25186D01*
X62503Y-25232D01*
X62503Y-24944D01*
X62536Y-24944D01*
X62663Y-25033D01*
X62815Y-25100D01*
X62910Y-25120D01*
X63066Y-25277D01*
X63218Y-25126D01*
X63307Y-25110D01*
X63462Y-25050D01*
X63602Y-24961D01*
X63722Y-24846D01*
X63818Y-24711D01*
X63885Y-24559D01*
X63922Y-24397D01*
X63925Y-24208D01*
X63892Y-24045D01*
X63851Y-23944D01*
X66181Y-23944D01*
X66306Y-23944D01*
X66268Y-24034D01*
X66233Y-24196D01*
X66231Y-24362D01*
X66261Y-24525D01*
X66314Y-24659D01*
X66155Y-24626D01*
X65989Y-24625D01*
X65826Y-24656D01*
X65672Y-24718D01*
X65534Y-24809D01*
X65415Y-24925D01*
X65321Y-25062D01*
X65256Y-25215D01*
X65221Y-25377D01*
X65219Y-25543D01*
X65249Y-25706D01*
X65310Y-25861D01*
X65400Y-26000D01*
X65417Y-26018D01*
X65417Y-26139D01*
X65362Y-26268D01*
X65331Y-26412D01*
X65329Y-26558D01*
X65355Y-26703D01*
X65410Y-26839D01*
X65489Y-26963D01*
X65591Y-27068D01*
X65711Y-27152D01*
X65846Y-27211D01*
X65989Y-27242D01*
X66136Y-27245D01*
X66280Y-27220D01*
X66417Y-27167D01*
X66541Y-27088D01*
X66647Y-26987D01*
X66732Y-26867D01*
X66792Y-26733D01*
X66824Y-26590D01*
X66827Y-26422D01*
X66798Y-26278D01*
X66742Y-26143D01*
X66719Y-26108D01*
X66774Y-26092D01*
X66831Y-26075D01*
X66834Y-26074D01*
X66838Y-26073D01*
X66891Y-26044D01*
X66944Y-26017D01*
X66947Y-26015D01*
X66950Y-26013D01*
X66996Y-25975D01*
X67043Y-25938D01*
X67048Y-25933D01*
X67048Y-25933D01*
X67048Y-25933D01*
X67049Y-25931D01*
X67078Y-25902D01*
X67302Y-26126D01*
X67332Y-26289D01*
X67393Y-26443D01*
X67483Y-26583D01*
X67598Y-26702D01*
X67734Y-26797D01*
X67886Y-26863D01*
X68048Y-26899D01*
X68163Y-26901D01*
X67801Y-27263D01*
X65246Y-27263D01*
X65181Y-27210D01*
X65053Y-27141D01*
X64913Y-27097D01*
X64768Y-27082D01*
X64623Y-27095D01*
X64592Y-27104D01*
X64592Y-26477D01*
X64579Y-26377D01*
X64560Y-26316D01*
X64486Y-26282D01*
X64291Y-26477D01*
X64291Y-26088D01*
X64258Y-26014D01*
X64161Y-25988D01*
X64060Y-25981D01*
X63960Y-25995D01*
X63898Y-26014D01*
X63865Y-26088D01*
X64078Y-26301D01*
X64291Y-26088D01*
X64291Y-26477D01*
X64273Y-26496D01*
X64486Y-26709D01*
X64560Y-26675D01*
X64586Y-26578D01*
X64592Y-26477D01*
X64592Y-27104D01*
X64483Y-27137D01*
X64353Y-27204D01*
X64291Y-27254D01*
X64291Y-26904D01*
X64078Y-26690D01*
X63883Y-26885D01*
X63883Y-26496D01*
X63679Y-26292D01*
X63679Y-25477D01*
X63669Y-25358D01*
X63635Y-25242D01*
X63631Y-25232D01*
X63547Y-25186D01*
X63261Y-25472D01*
X63547Y-25757D01*
X63631Y-25712D01*
X63667Y-25597D01*
X63679Y-25477D01*
X63679Y-26292D01*
X63670Y-26282D01*
X63596Y-26316D01*
X63570Y-26413D01*
X63564Y-26514D01*
X63577Y-26614D01*
X63596Y-26675D01*
X63670Y-26709D01*
X63883Y-26496D01*
X63883Y-26885D01*
X63865Y-26904D01*
X63898Y-26978D01*
X63996Y-27003D01*
X64097Y-27010D01*
X64196Y-26996D01*
X64258Y-26978D01*
X64291Y-26904D01*
X64291Y-27254D01*
X64240Y-27296D01*
X64146Y-27408D01*
X64118Y-27458D01*
X64109Y-27449D01*
X64027Y-27392D01*
X63992Y-27369D01*
X63917Y-27398D01*
X63917Y-27775D01*
X63925Y-27775D01*
X63925Y-28051D01*
X63917Y-28051D01*
X63917Y-28428D01*
X63992Y-28457D01*
X64027Y-28434D01*
X64109Y-28377D01*
X64118Y-28368D01*
X64140Y-28409D01*
X64232Y-28523D01*
X64345Y-28616D01*
X64473Y-28685D01*
X64613Y-28728D01*
X64758Y-28744D01*
X64903Y-28730D01*
X65043Y-28689D01*
X65173Y-28622D01*
X65246Y-28562D01*
X68070Y-28562D01*
X68130Y-28557D01*
X68190Y-28551D01*
X68193Y-28550D01*
X68197Y-28550D01*
X68254Y-28533D01*
X68312Y-28516D01*
X68315Y-28514D01*
X68318Y-28513D01*
X68371Y-28485D01*
X68424Y-28458D01*
X68427Y-28456D01*
X68430Y-28454D01*
X68476Y-28416D01*
X68523Y-28379D01*
X68528Y-28374D01*
X68528Y-28374D01*
X68528Y-28374D01*
X68530Y-28372D01*
X70034Y-26868D01*
X70059Y-26838D01*
X70059Y-28484D01*
X69330Y-28484D01*
X69234Y-28493D01*
X69138Y-28502D01*
X69133Y-28503D01*
X69128Y-28504D01*
X69035Y-28531D01*
X68943Y-28558D01*
X68938Y-28561D01*
X68933Y-28562D01*
X68848Y-28608D01*
X68762Y-28652D01*
X68758Y-28655D01*
X68753Y-28658D01*
X68678Y-28719D01*
X68603Y-28779D01*
X68595Y-28787D01*
X68595Y-28787D01*
X68595Y-28787D01*
X68592Y-28789D01*
X68315Y-29066D01*
X64813Y-29066D01*
X64708Y-29066D01*
X64704Y-29066D01*
X63641Y-29066D01*
X63641Y-28428D01*
X63641Y-28051D01*
X63641Y-27775D01*
X63641Y-27398D01*
X63566Y-27369D01*
X63531Y-27392D01*
X63449Y-27449D01*
X63380Y-27520D01*
X63352Y-27565D01*
X63352Y-25952D01*
X63066Y-25667D01*
X62781Y-25952D01*
X62827Y-26036D01*
X62942Y-26072D01*
X63061Y-26085D01*
X63181Y-26074D01*
X63296Y-26040D01*
X63306Y-26036D01*
X63352Y-25952D01*
X63352Y-27565D01*
X63327Y-27604D01*
X63291Y-27697D01*
X63329Y-27775D01*
X63641Y-27775D01*
X63641Y-28051D01*
X63329Y-28051D01*
X63291Y-28129D01*
X63327Y-28221D01*
X63380Y-28305D01*
X63449Y-28377D01*
X63531Y-28434D01*
X63566Y-28457D01*
X63641Y-28428D01*
X63641Y-29066D01*
X63284Y-29066D01*
X63284Y-28129D01*
X63284Y-27697D01*
X63247Y-27604D01*
X63194Y-27520D01*
X63125Y-27449D01*
X63043Y-27392D01*
X63008Y-27369D01*
X62933Y-27398D01*
X62933Y-27775D01*
X63245Y-27775D01*
X63284Y-27697D01*
X63284Y-28129D01*
X63245Y-28051D01*
X62933Y-28051D01*
X62933Y-28428D01*
X63008Y-28457D01*
X63043Y-28434D01*
X63125Y-28377D01*
X63194Y-28305D01*
X63247Y-28221D01*
X63284Y-28129D01*
X63284Y-29066D01*
X62657Y-29066D01*
X62657Y-28428D01*
X62657Y-28051D01*
X62657Y-27775D01*
X62657Y-27398D01*
X62582Y-27369D01*
X62547Y-27392D01*
X62465Y-27449D01*
X62396Y-27520D01*
X62343Y-27604D01*
X62307Y-27697D01*
X62345Y-27775D01*
X62657Y-27775D01*
X62657Y-28051D01*
X62345Y-28051D01*
X62307Y-28129D01*
X62343Y-28221D01*
X62396Y-28305D01*
X62465Y-28377D01*
X62547Y-28434D01*
X62582Y-28457D01*
X62657Y-28428D01*
X62657Y-29066D01*
X62214Y-29066D01*
X62109Y-29066D01*
X61908Y-29104D01*
X61872Y-29119D01*
X61719Y-29181D01*
X61566Y-29281D01*
X61566Y-27292D01*
X61338Y-27064D01*
X61143Y-27259D01*
X61110Y-27292D01*
X61146Y-27368D01*
X61247Y-27396D01*
X61352Y-27403D01*
X61456Y-27391D01*
X61530Y-27368D01*
X61566Y-27292D01*
X61566Y-29281D01*
X61547Y-29293D01*
X61401Y-29436D01*
X61286Y-29605D01*
X61205Y-29793D01*
X61162Y-29993D01*
X61160Y-30197D01*
X61196Y-30399D01*
X61272Y-30589D01*
X61383Y-30761D01*
X61525Y-30908D01*
X61693Y-31025D01*
X61880Y-31107D01*
X62080Y-31151D01*
X62285Y-31155D01*
X62296Y-31153D01*
X64790Y-31153D01*
X64883Y-31155D01*
X64894Y-31153D01*
X68748Y-31153D01*
X68843Y-31144D01*
X68939Y-31135D01*
X68945Y-31134D01*
X68950Y-31133D01*
X69042Y-31105D01*
X69135Y-31078D01*
X69140Y-31076D01*
X69145Y-31074D01*
X69230Y-31029D01*
X69316Y-30985D01*
X69320Y-30981D01*
X69325Y-30979D01*
X69400Y-30918D01*
X69475Y-30858D01*
X69483Y-30850D01*
X69483Y-30850D01*
X69483Y-30850D01*
X69485Y-30847D01*
X69762Y-30570D01*
X70059Y-30570D01*
X70059Y-33855D01*
G54D10*
G36*
X87266Y-58646D02*
X87195Y-58678D01*
X87169Y-58775D01*
X87163Y-58876D01*
X87171Y-58941D01*
X86732Y-58501D01*
X86295Y-58939D01*
X86301Y-58839D01*
X86287Y-58740D01*
X86269Y-58678D01*
X86198Y-58646D01*
X86537Y-58307D01*
X86198Y-57967D01*
X86269Y-57935D01*
X86295Y-57838D01*
X86301Y-57737D01*
X86292Y-57672D01*
X86732Y-58112D01*
X87169Y-57675D01*
X87163Y-57774D01*
X87176Y-57874D01*
X87195Y-57935D01*
X87266Y-57967D01*
X86927Y-58307D01*
X87266Y-58646D01*
X87266Y-58646D01*
G37*
G54D41*
X87266Y-58646D02*
X87195Y-58678D01*
X87169Y-58775D01*
X87163Y-58876D01*
X87171Y-58941D01*
X86732Y-58501D01*
X86295Y-58939D01*
X86301Y-58839D01*
X86287Y-58740D01*
X86269Y-58678D01*
X86198Y-58646D01*
X86537Y-58307D01*
X86198Y-57967D01*
X86269Y-57935D01*
X86295Y-57838D01*
X86301Y-57737D01*
X86292Y-57672D01*
X86732Y-58112D01*
X87169Y-57675D01*
X87163Y-57774D01*
X87176Y-57874D01*
X87195Y-57935D01*
X87266Y-57967D01*
X86927Y-58307D01*
X87266Y-58646D01*
G54D10*
G36*
X89625Y-60469D02*
X89614Y-60598D01*
X89581Y-60721D01*
X89528Y-60836D01*
X89507Y-60865D01*
X89507Y-50987D01*
X89475Y-50825D01*
X89412Y-50671D01*
X89320Y-50533D01*
X89203Y-50415D01*
X89065Y-50322D01*
X88912Y-50258D01*
X88750Y-50225D01*
X88584Y-50224D01*
X88421Y-50255D01*
X88267Y-50317D01*
X88128Y-50408D01*
X88010Y-50524D01*
X87916Y-50661D01*
X87850Y-50813D01*
X87816Y-50976D01*
X87814Y-51142D01*
X87844Y-51305D01*
X87905Y-51459D01*
X87995Y-51599D01*
X88110Y-51718D01*
X88246Y-51813D01*
X88398Y-51879D01*
X88560Y-51915D01*
X88726Y-51918D01*
X88890Y-51889D01*
X89044Y-51829D01*
X89184Y-51740D01*
X89305Y-51626D01*
X89400Y-51490D01*
X89468Y-51339D01*
X89505Y-51177D01*
X89507Y-50987D01*
X89507Y-60865D01*
X89455Y-60940D01*
X89365Y-61030D01*
X89274Y-61094D01*
X89274Y-55076D01*
X89263Y-54956D01*
X89229Y-54841D01*
X89225Y-54831D01*
X89141Y-54785D01*
X88946Y-54980D01*
X88946Y-54590D01*
X88901Y-54506D01*
X88786Y-54470D01*
X88666Y-54457D01*
X88547Y-54468D01*
X88431Y-54502D01*
X88421Y-54506D01*
X88375Y-54590D01*
X88661Y-54875D01*
X88946Y-54590D01*
X88946Y-54980D01*
X88856Y-55070D01*
X89141Y-55356D01*
X89225Y-55310D01*
X89261Y-55195D01*
X89274Y-55076D01*
X89274Y-61094D01*
X89261Y-61103D01*
X89146Y-61156D01*
X89024Y-61189D01*
X88946Y-61196D01*
X88946Y-55551D01*
X88661Y-55265D01*
X88466Y-55460D01*
X88466Y-55070D01*
X88181Y-54785D01*
X88097Y-54831D01*
X88061Y-54945D01*
X88048Y-55065D01*
X88059Y-55185D01*
X88093Y-55300D01*
X88097Y-55310D01*
X88181Y-55356D01*
X88466Y-55070D01*
X88466Y-55460D01*
X88375Y-55551D01*
X88421Y-55635D01*
X88536Y-55670D01*
X88655Y-55683D01*
X88775Y-55673D01*
X88890Y-55639D01*
X88901Y-55635D01*
X88946Y-55551D01*
X88946Y-61196D01*
X88895Y-61200D01*
X88471Y-61200D01*
X88471Y-58237D01*
X88424Y-57899D01*
X88312Y-57577D01*
X88217Y-57398D01*
X88018Y-57215D01*
X87888Y-57345D01*
X87856Y-57274D01*
X87759Y-57248D01*
X87658Y-57241D01*
X87593Y-57250D01*
X87823Y-57021D01*
X87640Y-56822D01*
X87522Y-56765D01*
X87522Y-41816D01*
X87511Y-41696D01*
X87478Y-41581D01*
X87473Y-41571D01*
X87390Y-41525D01*
X87195Y-41720D01*
X87195Y-41330D01*
X87149Y-41246D01*
X87034Y-41210D01*
X86914Y-41197D01*
X86795Y-41208D01*
X86679Y-41242D01*
X86669Y-41246D01*
X86623Y-41330D01*
X86909Y-41616D01*
X87195Y-41330D01*
X87195Y-41720D01*
X87104Y-41811D01*
X87390Y-42096D01*
X87473Y-42050D01*
X87509Y-41936D01*
X87522Y-41816D01*
X87522Y-56765D01*
X87463Y-56736D01*
X87463Y-48145D01*
X87451Y-48033D01*
X87421Y-47933D01*
X87341Y-47892D01*
X87195Y-48039D01*
X87195Y-42291D01*
X86909Y-42005D01*
X86714Y-42200D01*
X86714Y-41811D01*
X86428Y-41525D01*
X86345Y-41571D01*
X86309Y-41686D01*
X86296Y-41805D01*
X86306Y-41925D01*
X86340Y-42040D01*
X86345Y-42050D01*
X86428Y-42096D01*
X86714Y-41811D01*
X86714Y-42200D01*
X86623Y-42291D01*
X86669Y-42375D01*
X86784Y-42411D01*
X86903Y-42424D01*
X87023Y-42413D01*
X87139Y-42379D01*
X87149Y-42375D01*
X87195Y-42291D01*
X87195Y-48039D01*
X87146Y-48087D01*
X87146Y-47697D01*
X87105Y-47618D01*
X86997Y-47586D01*
X86885Y-47575D01*
X86773Y-47587D01*
X86673Y-47618D01*
X86633Y-47697D01*
X86889Y-47954D01*
X87146Y-47697D01*
X87146Y-48087D01*
X87084Y-48149D01*
X87341Y-48406D01*
X87421Y-48365D01*
X87453Y-48257D01*
X87463Y-48145D01*
X87463Y-56736D01*
X87346Y-56679D01*
X87346Y-53405D01*
X87346Y-53316D01*
X87329Y-53229D01*
X87295Y-53146D01*
X87245Y-53072D01*
X87182Y-53009D01*
X87146Y-52973D01*
X87146Y-48601D01*
X86889Y-48344D01*
X86694Y-48539D01*
X86694Y-48149D01*
X86438Y-47892D01*
X86358Y-47933D01*
X86326Y-48041D01*
X86316Y-48153D01*
X86327Y-48265D01*
X86358Y-48365D01*
X86438Y-48406D01*
X86694Y-48149D01*
X86694Y-48539D01*
X86633Y-48601D01*
X86673Y-48681D01*
X86781Y-48712D01*
X86893Y-48723D01*
X87005Y-48711D01*
X87105Y-48681D01*
X87146Y-48601D01*
X87146Y-52973D01*
X86681Y-52508D01*
X86607Y-52458D01*
X86524Y-52424D01*
X86437Y-52407D01*
X86348Y-52407D01*
X86260Y-52424D01*
X86178Y-52458D01*
X86104Y-52508D01*
X86041Y-52571D01*
X85919Y-52693D01*
X85908Y-52681D01*
X85946Y-52610D01*
X85946Y-52163D01*
X85893Y-52064D01*
X85821Y-51978D01*
X85733Y-51907D01*
X85641Y-51858D01*
X85556Y-51885D01*
X85556Y-52249D01*
X85919Y-52249D01*
X85946Y-52163D01*
X85946Y-52610D01*
X85919Y-52524D01*
X85751Y-52524D01*
X85618Y-52392D01*
X85423Y-52587D01*
X85556Y-52719D01*
X85556Y-52887D01*
X85641Y-52915D01*
X85713Y-52876D01*
X85724Y-52887D01*
X85539Y-53072D01*
X85490Y-53146D01*
X85456Y-53229D01*
X85438Y-53316D01*
X85438Y-53405D01*
X85456Y-53493D01*
X85490Y-53575D01*
X85539Y-53649D01*
X85602Y-53712D01*
X86104Y-54213D01*
X86178Y-54263D01*
X86260Y-54297D01*
X86348Y-54315D01*
X86437Y-54315D01*
X86524Y-54297D01*
X86607Y-54263D01*
X86681Y-54213D01*
X86744Y-54150D01*
X87245Y-53649D01*
X87295Y-53575D01*
X87329Y-53493D01*
X87346Y-53405D01*
X87346Y-56679D01*
X87333Y-56673D01*
X87003Y-56587D01*
X86662Y-56567D01*
X86324Y-56614D01*
X86002Y-56726D01*
X85823Y-56822D01*
X85641Y-57021D01*
X85868Y-57248D01*
X85769Y-57241D01*
X85669Y-57255D01*
X85607Y-57274D01*
X85575Y-57345D01*
X85446Y-57215D01*
X85280Y-57368D01*
X85280Y-52887D01*
X85280Y-52524D01*
X85280Y-52249D01*
X85280Y-51885D01*
X85195Y-51858D01*
X85096Y-51912D01*
X85009Y-51984D01*
X84939Y-52071D01*
X84889Y-52163D01*
X84917Y-52249D01*
X85280Y-52249D01*
X85280Y-52524D01*
X84917Y-52524D01*
X84889Y-52610D01*
X84943Y-52708D01*
X85015Y-52795D01*
X85102Y-52865D01*
X85195Y-52915D01*
X85280Y-52887D01*
X85280Y-57368D01*
X85247Y-57398D01*
X85098Y-57705D01*
X85012Y-58035D01*
X84993Y-58376D01*
X85040Y-58714D01*
X85152Y-59036D01*
X85247Y-59215D01*
X85446Y-59398D01*
X85575Y-59268D01*
X85607Y-59340D01*
X85705Y-59365D01*
X85805Y-59372D01*
X85870Y-59363D01*
X85641Y-59593D01*
X85823Y-59791D01*
X86130Y-59940D01*
X86461Y-60026D01*
X86801Y-60046D01*
X87139Y-59999D01*
X87462Y-59887D01*
X87640Y-59791D01*
X87823Y-59593D01*
X87596Y-59366D01*
X87695Y-59372D01*
X87795Y-59358D01*
X87856Y-59340D01*
X87888Y-59268D01*
X88018Y-59398D01*
X88217Y-59215D01*
X88365Y-58908D01*
X88451Y-58578D01*
X88471Y-58237D01*
X88471Y-61200D01*
X84393Y-61200D01*
X84393Y-61200D01*
X84470Y-61139D01*
X84472Y-61136D01*
X84475Y-61134D01*
X84537Y-61058D01*
X84601Y-60983D01*
X84602Y-60979D01*
X84605Y-60977D01*
X84651Y-60890D01*
X84699Y-60804D01*
X84700Y-60801D01*
X84701Y-60797D01*
X84730Y-60704D01*
X84760Y-60610D01*
X84761Y-60606D01*
X84762Y-60603D01*
X84772Y-60505D01*
X84783Y-60408D01*
X84783Y-60401D01*
X84783Y-60400D01*
X84783Y-60400D01*
X84783Y-60393D01*
X84783Y-57086D01*
X84773Y-56988D01*
X84764Y-56891D01*
X84763Y-56887D01*
X84763Y-56883D01*
X84735Y-56789D01*
X84707Y-56695D01*
X84705Y-56692D01*
X84704Y-56689D01*
X84658Y-56602D01*
X84613Y-56515D01*
X84610Y-56512D01*
X84609Y-56509D01*
X84547Y-56433D01*
X84485Y-56356D01*
X84482Y-56354D01*
X84480Y-56351D01*
X84404Y-56288D01*
X84329Y-56225D01*
X84326Y-56224D01*
X84323Y-56221D01*
X84237Y-56174D01*
X84151Y-56127D01*
X84147Y-56126D01*
X84144Y-56124D01*
X84050Y-56095D01*
X83957Y-56066D01*
X83953Y-56065D01*
X83949Y-56064D01*
X83852Y-56054D01*
X83754Y-56043D01*
X83747Y-56043D01*
X83747Y-56043D01*
X83747Y-56043D01*
X83740Y-56043D01*
X82895Y-56043D01*
X82895Y-55485D01*
X82895Y-53832D01*
X82890Y-53673D01*
X82854Y-53518D01*
X82814Y-53421D01*
X82710Y-53350D01*
X82281Y-53779D01*
X82710Y-54208D01*
X82814Y-54137D01*
X82870Y-53988D01*
X82895Y-53832D01*
X82895Y-55485D01*
X82890Y-55326D01*
X82854Y-55171D01*
X82814Y-55074D01*
X82710Y-55004D01*
X82515Y-55199D01*
X82515Y-54809D01*
X82515Y-54403D01*
X82086Y-53974D01*
X81657Y-54403D01*
X81728Y-54507D01*
X81877Y-54563D01*
X82034Y-54588D01*
X82192Y-54583D01*
X82347Y-54547D01*
X82444Y-54507D01*
X82515Y-54403D01*
X82515Y-54809D01*
X82444Y-54705D01*
X82296Y-54649D01*
X82139Y-54623D01*
X81980Y-54629D01*
X81825Y-54665D01*
X81728Y-54705D01*
X81657Y-54809D01*
X82086Y-55238D01*
X82515Y-54809D01*
X82515Y-55199D01*
X82281Y-55433D01*
X82710Y-55861D01*
X82814Y-55791D01*
X82870Y-55642D01*
X82895Y-55485D01*
X82895Y-56043D01*
X82501Y-56043D01*
X82086Y-55627D01*
X82081Y-55633D01*
X81886Y-55438D01*
X81891Y-55433D01*
X81462Y-55004D01*
X81397Y-55048D01*
X81397Y-54163D01*
X81462Y-54208D01*
X81891Y-53779D01*
X81886Y-53773D01*
X82081Y-53579D01*
X82086Y-53584D01*
X82515Y-53155D01*
X82473Y-53094D01*
X82559Y-53061D01*
X82732Y-52952D01*
X82880Y-52811D01*
X82998Y-52643D01*
X83081Y-52456D01*
X83126Y-52257D01*
X83128Y-52149D01*
X83129Y-52133D01*
X83128Y-52119D01*
X83129Y-52023D01*
X83090Y-51822D01*
X83012Y-51633D01*
X82972Y-51573D01*
X82972Y-47401D01*
X83115Y-47401D01*
X84114Y-48400D01*
X84114Y-48548D01*
X84131Y-48636D01*
X84165Y-48718D01*
X84215Y-48792D01*
X84278Y-48855D01*
X84352Y-48905D01*
X84434Y-48939D01*
X84522Y-48956D01*
X84611Y-48956D01*
X85320Y-48956D01*
X85407Y-48939D01*
X85490Y-48905D01*
X85564Y-48855D01*
X85627Y-48792D01*
X85676Y-48718D01*
X85710Y-48636D01*
X85728Y-48548D01*
X85728Y-48459D01*
X85728Y-47750D01*
X85710Y-47663D01*
X85676Y-47580D01*
X85627Y-47506D01*
X85564Y-47443D01*
X85490Y-47394D01*
X85407Y-47359D01*
X85320Y-47342D01*
X85230Y-47342D01*
X85172Y-47342D01*
X83954Y-46124D01*
X83900Y-46080D01*
X83847Y-46036D01*
X83844Y-46034D01*
X83841Y-46031D01*
X83780Y-45999D01*
X83719Y-45966D01*
X83716Y-45964D01*
X83712Y-45962D01*
X83646Y-45942D01*
X83580Y-45921D01*
X83576Y-45921D01*
X83573Y-45920D01*
X83504Y-45913D01*
X83435Y-45905D01*
X83427Y-45905D01*
X83427Y-45905D01*
X83427Y-45905D01*
X83425Y-45905D01*
X82972Y-45905D01*
X82972Y-42665D01*
X83948Y-42665D01*
X84026Y-42657D01*
X84029Y-42657D01*
X84394Y-42657D01*
X84482Y-42640D01*
X84564Y-42605D01*
X84639Y-42556D01*
X84702Y-42493D01*
X84751Y-42419D01*
X84785Y-42336D01*
X84803Y-42249D01*
X84803Y-42160D01*
X84803Y-41372D01*
X84785Y-41285D01*
X84751Y-41202D01*
X84702Y-41128D01*
X84639Y-41065D01*
X84564Y-41016D01*
X84482Y-40981D01*
X84394Y-40964D01*
X84305Y-40964D01*
X83518Y-40964D01*
X83478Y-40972D01*
X82567Y-40972D01*
X82549Y-40959D01*
X82415Y-40897D01*
X82273Y-40859D01*
X82128Y-40846D01*
X81498Y-40846D01*
X81498Y-40301D01*
X81485Y-40197D01*
X81463Y-40123D01*
X81387Y-40087D01*
X81192Y-40282D01*
X81159Y-40314D01*
X81387Y-40542D01*
X81463Y-40506D01*
X81490Y-40405D01*
X81498Y-40301D01*
X81498Y-40846D01*
X80997Y-40846D01*
X81081Y-40835D01*
X81156Y-40813D01*
X81192Y-40737D01*
X80964Y-40509D01*
X80958Y-40515D01*
X80764Y-40320D01*
X80769Y-40314D01*
X80764Y-40309D01*
X80958Y-40114D01*
X80964Y-40120D01*
X81192Y-39892D01*
X81156Y-39816D01*
X81055Y-39788D01*
X80951Y-39781D01*
X80847Y-39793D01*
X80813Y-39804D01*
X80813Y-37343D01*
X80799Y-37243D01*
X80781Y-37182D01*
X80707Y-37149D01*
X80512Y-37343D01*
X80512Y-36954D01*
X80479Y-36880D01*
X80381Y-36854D01*
X80280Y-36848D01*
X80180Y-36861D01*
X80136Y-36874D01*
X80136Y-36422D01*
X80125Y-36303D01*
X80092Y-36187D01*
X80087Y-36177D01*
X80004Y-36131D01*
X79809Y-36326D01*
X79809Y-35936D01*
X79783Y-35890D01*
X79783Y-35318D01*
X79783Y-34940D01*
X79783Y-34665D01*
X79783Y-34287D01*
X79708Y-34259D01*
X79672Y-34282D01*
X79591Y-34338D01*
X79522Y-34410D01*
X79468Y-34494D01*
X79432Y-34587D01*
X79471Y-34665D01*
X79783Y-34665D01*
X79783Y-34940D01*
X79471Y-34940D01*
X79432Y-35019D01*
X79468Y-35111D01*
X79522Y-35195D01*
X79591Y-35267D01*
X79672Y-35324D01*
X79708Y-35347D01*
X79783Y-35318D01*
X79783Y-35890D01*
X79763Y-35853D01*
X79648Y-35817D01*
X79529Y-35804D01*
X79425Y-35813D01*
X79425Y-35019D01*
X79425Y-34587D01*
X79389Y-34494D01*
X79336Y-34410D01*
X79267Y-34338D01*
X79185Y-34282D01*
X79150Y-34259D01*
X79075Y-34287D01*
X79075Y-34665D01*
X79387Y-34665D01*
X79425Y-34587D01*
X79425Y-35019D01*
X79387Y-34940D01*
X79075Y-34940D01*
X79075Y-35318D01*
X79150Y-35347D01*
X79185Y-35324D01*
X79267Y-35267D01*
X79336Y-35195D01*
X79389Y-35111D01*
X79425Y-35019D01*
X79425Y-35813D01*
X79409Y-35815D01*
X79294Y-35848D01*
X79284Y-35853D01*
X79238Y-35936D01*
X79523Y-36222D01*
X79809Y-35936D01*
X79809Y-36326D01*
X79718Y-36417D01*
X80004Y-36702D01*
X80087Y-36656D01*
X80123Y-36542D01*
X80136Y-36422D01*
X80136Y-36874D01*
X80119Y-36880D01*
X80086Y-36954D01*
X80299Y-37167D01*
X80512Y-36954D01*
X80512Y-37343D01*
X80494Y-37362D01*
X80707Y-37575D01*
X80781Y-37542D01*
X80807Y-37444D01*
X80813Y-37343D01*
X80813Y-39804D01*
X80772Y-39816D01*
X80736Y-39892D01*
X80735Y-39890D01*
X80730Y-39867D01*
X80696Y-39785D01*
X80646Y-39711D01*
X80629Y-39694D01*
X80629Y-39303D01*
X80624Y-39243D01*
X80618Y-39183D01*
X80617Y-39180D01*
X80617Y-39176D01*
X80600Y-39119D01*
X80583Y-39061D01*
X80581Y-39058D01*
X80580Y-39055D01*
X80552Y-39002D01*
X80525Y-38949D01*
X80522Y-38946D01*
X80521Y-38943D01*
X80512Y-38932D01*
X80512Y-37770D01*
X80299Y-37557D01*
X80104Y-37751D01*
X80104Y-37362D01*
X79891Y-37149D01*
X79817Y-37182D01*
X79809Y-37212D01*
X79809Y-36897D01*
X79523Y-36612D01*
X79328Y-36807D01*
X79328Y-36417D01*
X79043Y-36131D01*
X78959Y-36177D01*
X78923Y-36292D01*
X78910Y-36411D01*
X78921Y-36531D01*
X78955Y-36646D01*
X78959Y-36656D01*
X79043Y-36702D01*
X79328Y-36417D01*
X79328Y-36807D01*
X79238Y-36897D01*
X79284Y-36981D01*
X79398Y-37017D01*
X79518Y-37030D01*
X79637Y-37019D01*
X79753Y-36985D01*
X79763Y-36981D01*
X79809Y-36897D01*
X79809Y-37212D01*
X79791Y-37279D01*
X79785Y-37380D01*
X79798Y-37480D01*
X79817Y-37542D01*
X79891Y-37575D01*
X80104Y-37362D01*
X80104Y-37751D01*
X80086Y-37770D01*
X80119Y-37844D01*
X80216Y-37870D01*
X80317Y-37876D01*
X80417Y-37862D01*
X80479Y-37844D01*
X80512Y-37770D01*
X80512Y-38932D01*
X80483Y-38897D01*
X80446Y-38850D01*
X80441Y-38845D01*
X80441Y-38845D01*
X80441Y-38845D01*
X80439Y-38843D01*
X79869Y-38273D01*
X79869Y-38263D01*
X79837Y-38100D01*
X79774Y-37947D01*
X79682Y-37809D01*
X79565Y-37691D01*
X79428Y-37598D01*
X79275Y-37534D01*
X79112Y-37500D01*
X79096Y-37500D01*
X78562Y-36967D01*
X78562Y-35221D01*
X78607Y-35267D01*
X78688Y-35324D01*
X78724Y-35347D01*
X78799Y-35318D01*
X78799Y-34940D01*
X78791Y-34940D01*
X78791Y-34665D01*
X78799Y-34665D01*
X78799Y-34287D01*
X78724Y-34259D01*
X78688Y-34282D01*
X78607Y-34338D01*
X78562Y-34385D01*
X78562Y-33985D01*
X78682Y-34037D01*
X78844Y-34072D01*
X79010Y-34076D01*
X79173Y-34047D01*
X79328Y-33987D01*
X79468Y-33898D01*
X79588Y-33783D01*
X79684Y-33648D01*
X79751Y-33496D01*
X79788Y-33334D01*
X79791Y-33145D01*
X79758Y-32982D01*
X79695Y-32829D01*
X79603Y-32690D01*
X79594Y-32681D01*
X79594Y-32673D01*
X79684Y-32546D01*
X79751Y-32394D01*
X79788Y-32232D01*
X79791Y-32043D01*
X79758Y-31880D01*
X79695Y-31726D01*
X79603Y-31588D01*
X79486Y-31470D01*
X79365Y-31388D01*
X79425Y-31359D01*
X79507Y-31297D01*
X79576Y-31220D01*
X79629Y-31132D01*
X79632Y-31125D01*
X79603Y-31047D01*
X79149Y-31047D01*
X79149Y-31055D01*
X78874Y-31055D01*
X78874Y-31047D01*
X78866Y-31047D01*
X78866Y-30771D01*
X78874Y-30771D01*
X78874Y-30763D01*
X79149Y-30763D01*
X79149Y-30771D01*
X79603Y-30771D01*
X79632Y-30693D01*
X79629Y-30686D01*
X79576Y-30598D01*
X79544Y-30562D01*
X79578Y-30544D01*
X79693Y-30450D01*
X79788Y-30335D01*
X79859Y-30205D01*
X79903Y-30062D01*
X79918Y-29914D01*
X79905Y-29766D01*
X79863Y-29623D01*
X79794Y-29491D01*
X79727Y-29409D01*
X79788Y-29335D01*
X79859Y-29205D01*
X79903Y-29062D01*
X79918Y-28914D01*
X79905Y-28766D01*
X79863Y-28623D01*
X79806Y-28514D01*
X79813Y-28508D01*
X79863Y-28433D01*
X79897Y-28351D01*
X79914Y-28264D01*
X79914Y-28174D01*
X79914Y-27554D01*
X79897Y-27467D01*
X79863Y-27384D01*
X79813Y-27310D01*
X79750Y-27247D01*
X79676Y-27198D01*
X79624Y-27176D01*
X79624Y-26580D01*
X79614Y-26460D01*
X79580Y-26345D01*
X79576Y-26335D01*
X79492Y-26289D01*
X79374Y-26407D01*
X79374Y-25877D01*
X79374Y-25452D01*
X78776Y-25452D01*
X78749Y-25544D01*
X78779Y-25626D01*
X78850Y-25725D01*
X78939Y-25807D01*
X79043Y-25871D01*
X79156Y-25914D01*
X79276Y-25933D01*
X79374Y-25877D01*
X79374Y-26407D01*
X79297Y-26484D01*
X79297Y-26094D01*
X79251Y-26010D01*
X79136Y-25974D01*
X79017Y-25961D01*
X78897Y-25972D01*
X78782Y-26006D01*
X78772Y-26010D01*
X78726Y-26094D01*
X79011Y-26379D01*
X79297Y-26094D01*
X79297Y-26484D01*
X79206Y-26574D01*
X79492Y-26860D01*
X79576Y-26814D01*
X79611Y-26699D01*
X79624Y-26580D01*
X79624Y-27176D01*
X79593Y-27164D01*
X79506Y-27146D01*
X79417Y-27146D01*
X79229Y-27146D01*
X79241Y-27143D01*
X79251Y-27139D01*
X79297Y-27055D01*
X79011Y-26769D01*
X78726Y-27055D01*
X78772Y-27139D01*
X78796Y-27146D01*
X78562Y-27146D01*
X78562Y-26828D01*
X78816Y-26574D01*
X78562Y-26320D01*
X78562Y-25682D01*
X78572Y-25566D01*
X78598Y-25455D01*
X78642Y-25349D01*
X78702Y-25252D01*
X78773Y-25168D01*
X78776Y-25177D01*
X79374Y-25177D01*
X79374Y-25169D01*
X79649Y-25169D01*
X79649Y-25177D01*
X79657Y-25177D01*
X79657Y-25452D01*
X79649Y-25452D01*
X79649Y-25877D01*
X79746Y-25933D01*
X79862Y-25914D01*
X79862Y-26299D01*
X79868Y-26358D01*
X79873Y-26418D01*
X79874Y-26421D01*
X79874Y-26425D01*
X79891Y-26482D01*
X79908Y-26540D01*
X79910Y-26543D01*
X79911Y-26546D01*
X79939Y-26599D01*
X79967Y-26653D01*
X79969Y-26655D01*
X79970Y-26658D01*
X80008Y-26705D01*
X80046Y-26752D01*
X80050Y-26756D01*
X80050Y-26756D01*
X80050Y-26757D01*
X80052Y-26758D01*
X80328Y-27034D01*
X80374Y-27072D01*
X80420Y-27110D01*
X80423Y-27112D01*
X80426Y-27114D01*
X80478Y-27142D01*
X80531Y-27171D01*
X80534Y-27172D01*
X80537Y-27174D01*
X80595Y-27192D01*
X80652Y-27210D01*
X80655Y-27210D01*
X80659Y-27211D01*
X80718Y-27217D01*
X80778Y-27224D01*
X80785Y-27224D01*
X80785Y-27224D01*
X80785Y-27224D01*
X80787Y-27224D01*
X81463Y-27224D01*
X81496Y-27247D01*
X81445Y-27274D01*
X81329Y-27368D01*
X81235Y-27482D01*
X81164Y-27613D01*
X81120Y-27756D01*
X81104Y-27904D01*
X81118Y-28052D01*
X81160Y-28195D01*
X81229Y-28327D01*
X81295Y-28409D01*
X81235Y-28482D01*
X81164Y-28613D01*
X81120Y-28756D01*
X81104Y-28904D01*
X81118Y-29052D01*
X81160Y-29195D01*
X81229Y-29327D01*
X81295Y-29409D01*
X81235Y-29482D01*
X81164Y-29613D01*
X81120Y-29756D01*
X81104Y-29904D01*
X81118Y-30052D01*
X81160Y-30195D01*
X81229Y-30327D01*
X81295Y-30409D01*
X81235Y-30482D01*
X81164Y-30613D01*
X81120Y-30756D01*
X81104Y-30904D01*
X81118Y-31052D01*
X81160Y-31195D01*
X81229Y-31327D01*
X81322Y-31443D01*
X81436Y-31538D01*
X81566Y-31610D01*
X81708Y-31655D01*
X81856Y-31672D01*
X81867Y-31672D01*
X81948Y-31672D01*
X81948Y-34153D01*
X81388Y-34153D01*
X81323Y-34100D01*
X81195Y-34030D01*
X81055Y-33987D01*
X80910Y-33972D01*
X80765Y-33985D01*
X80624Y-34026D01*
X80495Y-34094D01*
X80381Y-34186D01*
X80287Y-34297D01*
X80260Y-34348D01*
X80251Y-34338D01*
X80169Y-34282D01*
X80134Y-34259D01*
X80059Y-34287D01*
X80059Y-34665D01*
X80066Y-34665D01*
X80066Y-34940D01*
X80059Y-34940D01*
X80059Y-35318D01*
X80134Y-35347D01*
X80169Y-35324D01*
X80251Y-35267D01*
X80259Y-35258D01*
X80282Y-35299D01*
X80374Y-35412D01*
X80486Y-35505D01*
X80615Y-35575D01*
X80754Y-35618D01*
X80900Y-35633D01*
X81045Y-35620D01*
X81185Y-35579D01*
X81314Y-35511D01*
X81388Y-35452D01*
X81948Y-35452D01*
X81948Y-35795D01*
X81872Y-35870D01*
X81778Y-36007D01*
X81713Y-36160D01*
X81678Y-36322D01*
X81676Y-36488D01*
X81706Y-36651D01*
X81767Y-36806D01*
X81779Y-36824D01*
X81723Y-36878D01*
X81640Y-36999D01*
X81582Y-37134D01*
X81552Y-37278D01*
X81549Y-37425D01*
X81576Y-37569D01*
X81630Y-37705D01*
X81709Y-37829D01*
X81811Y-37934D01*
X81932Y-38018D01*
X81978Y-38038D01*
X81990Y-38085D01*
X82040Y-38207D01*
X82110Y-38321D01*
X82176Y-38398D01*
X82176Y-38417D01*
X82206Y-38580D01*
X82267Y-38735D01*
X82357Y-38874D01*
X82472Y-38994D01*
X82608Y-39088D01*
X82760Y-39155D01*
X82922Y-39190D01*
X83088Y-39194D01*
X83252Y-39165D01*
X83407Y-39105D01*
X83547Y-39016D01*
X83609Y-38956D01*
X86636Y-38956D01*
X86753Y-38966D01*
X86866Y-38993D01*
X86972Y-39037D01*
X87070Y-39098D01*
X87159Y-39175D01*
X89414Y-41463D01*
X89505Y-41575D01*
X89571Y-41700D01*
X89611Y-41835D01*
X89625Y-41979D01*
X89625Y-60469D01*
X89625Y-60469D01*
G37*
G54D41*
X89625Y-60469D02*
X89614Y-60598D01*
X89581Y-60721D01*
X89528Y-60836D01*
X89507Y-60865D01*
X89507Y-50987D01*
X89475Y-50825D01*
X89412Y-50671D01*
X89320Y-50533D01*
X89203Y-50415D01*
X89065Y-50322D01*
X88912Y-50258D01*
X88750Y-50225D01*
X88584Y-50224D01*
X88421Y-50255D01*
X88267Y-50317D01*
X88128Y-50408D01*
X88010Y-50524D01*
X87916Y-50661D01*
X87850Y-50813D01*
X87816Y-50976D01*
X87814Y-51142D01*
X87844Y-51305D01*
X87905Y-51459D01*
X87995Y-51599D01*
X88110Y-51718D01*
X88246Y-51813D01*
X88398Y-51879D01*
X88560Y-51915D01*
X88726Y-51918D01*
X88890Y-51889D01*
X89044Y-51829D01*
X89184Y-51740D01*
X89305Y-51626D01*
X89400Y-51490D01*
X89468Y-51339D01*
X89505Y-51177D01*
X89507Y-50987D01*
X89507Y-60865D01*
X89455Y-60940D01*
X89365Y-61030D01*
X89274Y-61094D01*
X89274Y-55076D01*
X89263Y-54956D01*
X89229Y-54841D01*
X89225Y-54831D01*
X89141Y-54785D01*
X88946Y-54980D01*
X88946Y-54590D01*
X88901Y-54506D01*
X88786Y-54470D01*
X88666Y-54457D01*
X88547Y-54468D01*
X88431Y-54502D01*
X88421Y-54506D01*
X88375Y-54590D01*
X88661Y-54875D01*
X88946Y-54590D01*
X88946Y-54980D01*
X88856Y-55070D01*
X89141Y-55356D01*
X89225Y-55310D01*
X89261Y-55195D01*
X89274Y-55076D01*
X89274Y-61094D01*
X89261Y-61103D01*
X89146Y-61156D01*
X89024Y-61189D01*
X88946Y-61196D01*
X88946Y-55551D01*
X88661Y-55265D01*
X88466Y-55460D01*
X88466Y-55070D01*
X88181Y-54785D01*
X88097Y-54831D01*
X88061Y-54945D01*
X88048Y-55065D01*
X88059Y-55185D01*
X88093Y-55300D01*
X88097Y-55310D01*
X88181Y-55356D01*
X88466Y-55070D01*
X88466Y-55460D01*
X88375Y-55551D01*
X88421Y-55635D01*
X88536Y-55670D01*
X88655Y-55683D01*
X88775Y-55673D01*
X88890Y-55639D01*
X88901Y-55635D01*
X88946Y-55551D01*
X88946Y-61196D01*
X88895Y-61200D01*
X88471Y-61200D01*
X88471Y-58237D01*
X88424Y-57899D01*
X88312Y-57577D01*
X88217Y-57398D01*
X88018Y-57215D01*
X87888Y-57345D01*
X87856Y-57274D01*
X87759Y-57248D01*
X87658Y-57241D01*
X87593Y-57250D01*
X87823Y-57021D01*
X87640Y-56822D01*
X87522Y-56765D01*
X87522Y-41816D01*
X87511Y-41696D01*
X87478Y-41581D01*
X87473Y-41571D01*
X87390Y-41525D01*
X87195Y-41720D01*
X87195Y-41330D01*
X87149Y-41246D01*
X87034Y-41210D01*
X86914Y-41197D01*
X86795Y-41208D01*
X86679Y-41242D01*
X86669Y-41246D01*
X86623Y-41330D01*
X86909Y-41616D01*
X87195Y-41330D01*
X87195Y-41720D01*
X87104Y-41811D01*
X87390Y-42096D01*
X87473Y-42050D01*
X87509Y-41936D01*
X87522Y-41816D01*
X87522Y-56765D01*
X87463Y-56736D01*
X87463Y-48145D01*
X87451Y-48033D01*
X87421Y-47933D01*
X87341Y-47892D01*
X87195Y-48039D01*
X87195Y-42291D01*
X86909Y-42005D01*
X86714Y-42200D01*
X86714Y-41811D01*
X86428Y-41525D01*
X86345Y-41571D01*
X86309Y-41686D01*
X86296Y-41805D01*
X86306Y-41925D01*
X86340Y-42040D01*
X86345Y-42050D01*
X86428Y-42096D01*
X86714Y-41811D01*
X86714Y-42200D01*
X86623Y-42291D01*
X86669Y-42375D01*
X86784Y-42411D01*
X86903Y-42424D01*
X87023Y-42413D01*
X87139Y-42379D01*
X87149Y-42375D01*
X87195Y-42291D01*
X87195Y-48039D01*
X87146Y-48087D01*
X87146Y-47697D01*
X87105Y-47618D01*
X86997Y-47586D01*
X86885Y-47575D01*
X86773Y-47587D01*
X86673Y-47618D01*
X86633Y-47697D01*
X86889Y-47954D01*
X87146Y-47697D01*
X87146Y-48087D01*
X87084Y-48149D01*
X87341Y-48406D01*
X87421Y-48365D01*
X87453Y-48257D01*
X87463Y-48145D01*
X87463Y-56736D01*
X87346Y-56679D01*
X87346Y-53405D01*
X87346Y-53316D01*
X87329Y-53229D01*
X87295Y-53146D01*
X87245Y-53072D01*
X87182Y-53009D01*
X87146Y-52973D01*
X87146Y-48601D01*
X86889Y-48344D01*
X86694Y-48539D01*
X86694Y-48149D01*
X86438Y-47892D01*
X86358Y-47933D01*
X86326Y-48041D01*
X86316Y-48153D01*
X86327Y-48265D01*
X86358Y-48365D01*
X86438Y-48406D01*
X86694Y-48149D01*
X86694Y-48539D01*
X86633Y-48601D01*
X86673Y-48681D01*
X86781Y-48712D01*
X86893Y-48723D01*
X87005Y-48711D01*
X87105Y-48681D01*
X87146Y-48601D01*
X87146Y-52973D01*
X86681Y-52508D01*
X86607Y-52458D01*
X86524Y-52424D01*
X86437Y-52407D01*
X86348Y-52407D01*
X86260Y-52424D01*
X86178Y-52458D01*
X86104Y-52508D01*
X86041Y-52571D01*
X85919Y-52693D01*
X85908Y-52681D01*
X85946Y-52610D01*
X85946Y-52163D01*
X85893Y-52064D01*
X85821Y-51978D01*
X85733Y-51907D01*
X85641Y-51858D01*
X85556Y-51885D01*
X85556Y-52249D01*
X85919Y-52249D01*
X85946Y-52163D01*
X85946Y-52610D01*
X85919Y-52524D01*
X85751Y-52524D01*
X85618Y-52392D01*
X85423Y-52587D01*
X85556Y-52719D01*
X85556Y-52887D01*
X85641Y-52915D01*
X85713Y-52876D01*
X85724Y-52887D01*
X85539Y-53072D01*
X85490Y-53146D01*
X85456Y-53229D01*
X85438Y-53316D01*
X85438Y-53405D01*
X85456Y-53493D01*
X85490Y-53575D01*
X85539Y-53649D01*
X85602Y-53712D01*
X86104Y-54213D01*
X86178Y-54263D01*
X86260Y-54297D01*
X86348Y-54315D01*
X86437Y-54315D01*
X86524Y-54297D01*
X86607Y-54263D01*
X86681Y-54213D01*
X86744Y-54150D01*
X87245Y-53649D01*
X87295Y-53575D01*
X87329Y-53493D01*
X87346Y-53405D01*
X87346Y-56679D01*
X87333Y-56673D01*
X87003Y-56587D01*
X86662Y-56567D01*
X86324Y-56614D01*
X86002Y-56726D01*
X85823Y-56822D01*
X85641Y-57021D01*
X85868Y-57248D01*
X85769Y-57241D01*
X85669Y-57255D01*
X85607Y-57274D01*
X85575Y-57345D01*
X85446Y-57215D01*
X85280Y-57368D01*
X85280Y-52887D01*
X85280Y-52524D01*
X85280Y-52249D01*
X85280Y-51885D01*
X85195Y-51858D01*
X85096Y-51912D01*
X85009Y-51984D01*
X84939Y-52071D01*
X84889Y-52163D01*
X84917Y-52249D01*
X85280Y-52249D01*
X85280Y-52524D01*
X84917Y-52524D01*
X84889Y-52610D01*
X84943Y-52708D01*
X85015Y-52795D01*
X85102Y-52865D01*
X85195Y-52915D01*
X85280Y-52887D01*
X85280Y-57368D01*
X85247Y-57398D01*
X85098Y-57705D01*
X85012Y-58035D01*
X84993Y-58376D01*
X85040Y-58714D01*
X85152Y-59036D01*
X85247Y-59215D01*
X85446Y-59398D01*
X85575Y-59268D01*
X85607Y-59340D01*
X85705Y-59365D01*
X85805Y-59372D01*
X85870Y-59363D01*
X85641Y-59593D01*
X85823Y-59791D01*
X86130Y-59940D01*
X86461Y-60026D01*
X86801Y-60046D01*
X87139Y-59999D01*
X87462Y-59887D01*
X87640Y-59791D01*
X87823Y-59593D01*
X87596Y-59366D01*
X87695Y-59372D01*
X87795Y-59358D01*
X87856Y-59340D01*
X87888Y-59268D01*
X88018Y-59398D01*
X88217Y-59215D01*
X88365Y-58908D01*
X88451Y-58578D01*
X88471Y-58237D01*
X88471Y-61200D01*
X84393Y-61200D01*
X84393Y-61200D01*
X84470Y-61139D01*
X84472Y-61136D01*
X84475Y-61134D01*
X84537Y-61058D01*
X84601Y-60983D01*
X84602Y-60979D01*
X84605Y-60977D01*
X84651Y-60890D01*
X84699Y-60804D01*
X84700Y-60801D01*
X84701Y-60797D01*
X84730Y-60704D01*
X84760Y-60610D01*
X84761Y-60606D01*
X84762Y-60603D01*
X84772Y-60505D01*
X84783Y-60408D01*
X84783Y-60401D01*
X84783Y-60400D01*
X84783Y-60400D01*
X84783Y-60393D01*
X84783Y-57086D01*
X84773Y-56988D01*
X84764Y-56891D01*
X84763Y-56887D01*
X84763Y-56883D01*
X84735Y-56789D01*
X84707Y-56695D01*
X84705Y-56692D01*
X84704Y-56689D01*
X84658Y-56602D01*
X84613Y-56515D01*
X84610Y-56512D01*
X84609Y-56509D01*
X84547Y-56433D01*
X84485Y-56356D01*
X84482Y-56354D01*
X84480Y-56351D01*
X84404Y-56288D01*
X84329Y-56225D01*
X84326Y-56224D01*
X84323Y-56221D01*
X84237Y-56174D01*
X84151Y-56127D01*
X84147Y-56126D01*
X84144Y-56124D01*
X84050Y-56095D01*
X83957Y-56066D01*
X83953Y-56065D01*
X83949Y-56064D01*
X83852Y-56054D01*
X83754Y-56043D01*
X83747Y-56043D01*
X83747Y-56043D01*
X83747Y-56043D01*
X83740Y-56043D01*
X82895Y-56043D01*
X82895Y-55485D01*
X82895Y-53832D01*
X82890Y-53673D01*
X82854Y-53518D01*
X82814Y-53421D01*
X82710Y-53350D01*
X82281Y-53779D01*
X82710Y-54208D01*
X82814Y-54137D01*
X82870Y-53988D01*
X82895Y-53832D01*
X82895Y-55485D01*
X82890Y-55326D01*
X82854Y-55171D01*
X82814Y-55074D01*
X82710Y-55004D01*
X82515Y-55199D01*
X82515Y-54809D01*
X82515Y-54403D01*
X82086Y-53974D01*
X81657Y-54403D01*
X81728Y-54507D01*
X81877Y-54563D01*
X82034Y-54588D01*
X82192Y-54583D01*
X82347Y-54547D01*
X82444Y-54507D01*
X82515Y-54403D01*
X82515Y-54809D01*
X82444Y-54705D01*
X82296Y-54649D01*
X82139Y-54623D01*
X81980Y-54629D01*
X81825Y-54665D01*
X81728Y-54705D01*
X81657Y-54809D01*
X82086Y-55238D01*
X82515Y-54809D01*
X82515Y-55199D01*
X82281Y-55433D01*
X82710Y-55861D01*
X82814Y-55791D01*
X82870Y-55642D01*
X82895Y-55485D01*
X82895Y-56043D01*
X82501Y-56043D01*
X82086Y-55627D01*
X82081Y-55633D01*
X81886Y-55438D01*
X81891Y-55433D01*
X81462Y-55004D01*
X81397Y-55048D01*
X81397Y-54163D01*
X81462Y-54208D01*
X81891Y-53779D01*
X81886Y-53773D01*
X82081Y-53579D01*
X82086Y-53584D01*
X82515Y-53155D01*
X82473Y-53094D01*
X82559Y-53061D01*
X82732Y-52952D01*
X82880Y-52811D01*
X82998Y-52643D01*
X83081Y-52456D01*
X83126Y-52257D01*
X83128Y-52149D01*
X83129Y-52133D01*
X83128Y-52119D01*
X83129Y-52023D01*
X83090Y-51822D01*
X83012Y-51633D01*
X82972Y-51573D01*
X82972Y-47401D01*
X83115Y-47401D01*
X84114Y-48400D01*
X84114Y-48548D01*
X84131Y-48636D01*
X84165Y-48718D01*
X84215Y-48792D01*
X84278Y-48855D01*
X84352Y-48905D01*
X84434Y-48939D01*
X84522Y-48956D01*
X84611Y-48956D01*
X85320Y-48956D01*
X85407Y-48939D01*
X85490Y-48905D01*
X85564Y-48855D01*
X85627Y-48792D01*
X85676Y-48718D01*
X85710Y-48636D01*
X85728Y-48548D01*
X85728Y-48459D01*
X85728Y-47750D01*
X85710Y-47663D01*
X85676Y-47580D01*
X85627Y-47506D01*
X85564Y-47443D01*
X85490Y-47394D01*
X85407Y-47359D01*
X85320Y-47342D01*
X85230Y-47342D01*
X85172Y-47342D01*
X83954Y-46124D01*
X83900Y-46080D01*
X83847Y-46036D01*
X83844Y-46034D01*
X83841Y-46031D01*
X83780Y-45999D01*
X83719Y-45966D01*
X83716Y-45964D01*
X83712Y-45962D01*
X83646Y-45942D01*
X83580Y-45921D01*
X83576Y-45921D01*
X83573Y-45920D01*
X83504Y-45913D01*
X83435Y-45905D01*
X83427Y-45905D01*
X83427Y-45905D01*
X83427Y-45905D01*
X83425Y-45905D01*
X82972Y-45905D01*
X82972Y-42665D01*
X83948Y-42665D01*
X84026Y-42657D01*
X84029Y-42657D01*
X84394Y-42657D01*
X84482Y-42640D01*
X84564Y-42605D01*
X84639Y-42556D01*
X84702Y-42493D01*
X84751Y-42419D01*
X84785Y-42336D01*
X84803Y-42249D01*
X84803Y-42160D01*
X84803Y-41372D01*
X84785Y-41285D01*
X84751Y-41202D01*
X84702Y-41128D01*
X84639Y-41065D01*
X84564Y-41016D01*
X84482Y-40981D01*
X84394Y-40964D01*
X84305Y-40964D01*
X83518Y-40964D01*
X83478Y-40972D01*
X82567Y-40972D01*
X82549Y-40959D01*
X82415Y-40897D01*
X82273Y-40859D01*
X82128Y-40846D01*
X81498Y-40846D01*
X81498Y-40301D01*
X81485Y-40197D01*
X81463Y-40123D01*
X81387Y-40087D01*
X81192Y-40282D01*
X81159Y-40314D01*
X81387Y-40542D01*
X81463Y-40506D01*
X81490Y-40405D01*
X81498Y-40301D01*
X81498Y-40846D01*
X80997Y-40846D01*
X81081Y-40835D01*
X81156Y-40813D01*
X81192Y-40737D01*
X80964Y-40509D01*
X80958Y-40515D01*
X80764Y-40320D01*
X80769Y-40314D01*
X80764Y-40309D01*
X80958Y-40114D01*
X80964Y-40120D01*
X81192Y-39892D01*
X81156Y-39816D01*
X81055Y-39788D01*
X80951Y-39781D01*
X80847Y-39793D01*
X80813Y-39804D01*
X80813Y-37343D01*
X80799Y-37243D01*
X80781Y-37182D01*
X80707Y-37149D01*
X80512Y-37343D01*
X80512Y-36954D01*
X80479Y-36880D01*
X80381Y-36854D01*
X80280Y-36848D01*
X80180Y-36861D01*
X80136Y-36874D01*
X80136Y-36422D01*
X80125Y-36303D01*
X80092Y-36187D01*
X80087Y-36177D01*
X80004Y-36131D01*
X79809Y-36326D01*
X79809Y-35936D01*
X79783Y-35890D01*
X79783Y-35318D01*
X79783Y-34940D01*
X79783Y-34665D01*
X79783Y-34287D01*
X79708Y-34259D01*
X79672Y-34282D01*
X79591Y-34338D01*
X79522Y-34410D01*
X79468Y-34494D01*
X79432Y-34587D01*
X79471Y-34665D01*
X79783Y-34665D01*
X79783Y-34940D01*
X79471Y-34940D01*
X79432Y-35019D01*
X79468Y-35111D01*
X79522Y-35195D01*
X79591Y-35267D01*
X79672Y-35324D01*
X79708Y-35347D01*
X79783Y-35318D01*
X79783Y-35890D01*
X79763Y-35853D01*
X79648Y-35817D01*
X79529Y-35804D01*
X79425Y-35813D01*
X79425Y-35019D01*
X79425Y-34587D01*
X79389Y-34494D01*
X79336Y-34410D01*
X79267Y-34338D01*
X79185Y-34282D01*
X79150Y-34259D01*
X79075Y-34287D01*
X79075Y-34665D01*
X79387Y-34665D01*
X79425Y-34587D01*
X79425Y-35019D01*
X79387Y-34940D01*
X79075Y-34940D01*
X79075Y-35318D01*
X79150Y-35347D01*
X79185Y-35324D01*
X79267Y-35267D01*
X79336Y-35195D01*
X79389Y-35111D01*
X79425Y-35019D01*
X79425Y-35813D01*
X79409Y-35815D01*
X79294Y-35848D01*
X79284Y-35853D01*
X79238Y-35936D01*
X79523Y-36222D01*
X79809Y-35936D01*
X79809Y-36326D01*
X79718Y-36417D01*
X80004Y-36702D01*
X80087Y-36656D01*
X80123Y-36542D01*
X80136Y-36422D01*
X80136Y-36874D01*
X80119Y-36880D01*
X80086Y-36954D01*
X80299Y-37167D01*
X80512Y-36954D01*
X80512Y-37343D01*
X80494Y-37362D01*
X80707Y-37575D01*
X80781Y-37542D01*
X80807Y-37444D01*
X80813Y-37343D01*
X80813Y-39804D01*
X80772Y-39816D01*
X80736Y-39892D01*
X80735Y-39890D01*
X80730Y-39867D01*
X80696Y-39785D01*
X80646Y-39711D01*
X80629Y-39694D01*
X80629Y-39303D01*
X80624Y-39243D01*
X80618Y-39183D01*
X80617Y-39180D01*
X80617Y-39176D01*
X80600Y-39119D01*
X80583Y-39061D01*
X80581Y-39058D01*
X80580Y-39055D01*
X80552Y-39002D01*
X80525Y-38949D01*
X80522Y-38946D01*
X80521Y-38943D01*
X80512Y-38932D01*
X80512Y-37770D01*
X80299Y-37557D01*
X80104Y-37751D01*
X80104Y-37362D01*
X79891Y-37149D01*
X79817Y-37182D01*
X79809Y-37212D01*
X79809Y-36897D01*
X79523Y-36612D01*
X79328Y-36807D01*
X79328Y-36417D01*
X79043Y-36131D01*
X78959Y-36177D01*
X78923Y-36292D01*
X78910Y-36411D01*
X78921Y-36531D01*
X78955Y-36646D01*
X78959Y-36656D01*
X79043Y-36702D01*
X79328Y-36417D01*
X79328Y-36807D01*
X79238Y-36897D01*
X79284Y-36981D01*
X79398Y-37017D01*
X79518Y-37030D01*
X79637Y-37019D01*
X79753Y-36985D01*
X79763Y-36981D01*
X79809Y-36897D01*
X79809Y-37212D01*
X79791Y-37279D01*
X79785Y-37380D01*
X79798Y-37480D01*
X79817Y-37542D01*
X79891Y-37575D01*
X80104Y-37362D01*
X80104Y-37751D01*
X80086Y-37770D01*
X80119Y-37844D01*
X80216Y-37870D01*
X80317Y-37876D01*
X80417Y-37862D01*
X80479Y-37844D01*
X80512Y-37770D01*
X80512Y-38932D01*
X80483Y-38897D01*
X80446Y-38850D01*
X80441Y-38845D01*
X80441Y-38845D01*
X80441Y-38845D01*
X80439Y-38843D01*
X79869Y-38273D01*
X79869Y-38263D01*
X79837Y-38100D01*
X79774Y-37947D01*
X79682Y-37809D01*
X79565Y-37691D01*
X79428Y-37598D01*
X79275Y-37534D01*
X79112Y-37500D01*
X79096Y-37500D01*
X78562Y-36967D01*
X78562Y-35221D01*
X78607Y-35267D01*
X78688Y-35324D01*
X78724Y-35347D01*
X78799Y-35318D01*
X78799Y-34940D01*
X78791Y-34940D01*
X78791Y-34665D01*
X78799Y-34665D01*
X78799Y-34287D01*
X78724Y-34259D01*
X78688Y-34282D01*
X78607Y-34338D01*
X78562Y-34385D01*
X78562Y-33985D01*
X78682Y-34037D01*
X78844Y-34072D01*
X79010Y-34076D01*
X79173Y-34047D01*
X79328Y-33987D01*
X79468Y-33898D01*
X79588Y-33783D01*
X79684Y-33648D01*
X79751Y-33496D01*
X79788Y-33334D01*
X79791Y-33145D01*
X79758Y-32982D01*
X79695Y-32829D01*
X79603Y-32690D01*
X79594Y-32681D01*
X79594Y-32673D01*
X79684Y-32546D01*
X79751Y-32394D01*
X79788Y-32232D01*
X79791Y-32043D01*
X79758Y-31880D01*
X79695Y-31726D01*
X79603Y-31588D01*
X79486Y-31470D01*
X79365Y-31388D01*
X79425Y-31359D01*
X79507Y-31297D01*
X79576Y-31220D01*
X79629Y-31132D01*
X79632Y-31125D01*
X79603Y-31047D01*
X79149Y-31047D01*
X79149Y-31055D01*
X78874Y-31055D01*
X78874Y-31047D01*
X78866Y-31047D01*
X78866Y-30771D01*
X78874Y-30771D01*
X78874Y-30763D01*
X79149Y-30763D01*
X79149Y-30771D01*
X79603Y-30771D01*
X79632Y-30693D01*
X79629Y-30686D01*
X79576Y-30598D01*
X79544Y-30562D01*
X79578Y-30544D01*
X79693Y-30450D01*
X79788Y-30335D01*
X79859Y-30205D01*
X79903Y-30062D01*
X79918Y-29914D01*
X79905Y-29766D01*
X79863Y-29623D01*
X79794Y-29491D01*
X79727Y-29409D01*
X79788Y-29335D01*
X79859Y-29205D01*
X79903Y-29062D01*
X79918Y-28914D01*
X79905Y-28766D01*
X79863Y-28623D01*
X79806Y-28514D01*
X79813Y-28508D01*
X79863Y-28433D01*
X79897Y-28351D01*
X79914Y-28264D01*
X79914Y-28174D01*
X79914Y-27554D01*
X79897Y-27467D01*
X79863Y-27384D01*
X79813Y-27310D01*
X79750Y-27247D01*
X79676Y-27198D01*
X79624Y-27176D01*
X79624Y-26580D01*
X79614Y-26460D01*
X79580Y-26345D01*
X79576Y-26335D01*
X79492Y-26289D01*
X79374Y-26407D01*
X79374Y-25877D01*
X79374Y-25452D01*
X78776Y-25452D01*
X78749Y-25544D01*
X78779Y-25626D01*
X78850Y-25725D01*
X78939Y-25807D01*
X79043Y-25871D01*
X79156Y-25914D01*
X79276Y-25933D01*
X79374Y-25877D01*
X79374Y-26407D01*
X79297Y-26484D01*
X79297Y-26094D01*
X79251Y-26010D01*
X79136Y-25974D01*
X79017Y-25961D01*
X78897Y-25972D01*
X78782Y-26006D01*
X78772Y-26010D01*
X78726Y-26094D01*
X79011Y-26379D01*
X79297Y-26094D01*
X79297Y-26484D01*
X79206Y-26574D01*
X79492Y-26860D01*
X79576Y-26814D01*
X79611Y-26699D01*
X79624Y-26580D01*
X79624Y-27176D01*
X79593Y-27164D01*
X79506Y-27146D01*
X79417Y-27146D01*
X79229Y-27146D01*
X79241Y-27143D01*
X79251Y-27139D01*
X79297Y-27055D01*
X79011Y-26769D01*
X78726Y-27055D01*
X78772Y-27139D01*
X78796Y-27146D01*
X78562Y-27146D01*
X78562Y-26828D01*
X78816Y-26574D01*
X78562Y-26320D01*
X78562Y-25682D01*
X78572Y-25566D01*
X78598Y-25455D01*
X78642Y-25349D01*
X78702Y-25252D01*
X78773Y-25168D01*
X78776Y-25177D01*
X79374Y-25177D01*
X79374Y-25169D01*
X79649Y-25169D01*
X79649Y-25177D01*
X79657Y-25177D01*
X79657Y-25452D01*
X79649Y-25452D01*
X79649Y-25877D01*
X79746Y-25933D01*
X79862Y-25914D01*
X79862Y-26299D01*
X79868Y-26358D01*
X79873Y-26418D01*
X79874Y-26421D01*
X79874Y-26425D01*
X79891Y-26482D01*
X79908Y-26540D01*
X79910Y-26543D01*
X79911Y-26546D01*
X79939Y-26599D01*
X79967Y-26653D01*
X79969Y-26655D01*
X79970Y-26658D01*
X80008Y-26705D01*
X80046Y-26752D01*
X80050Y-26756D01*
X80050Y-26756D01*
X80050Y-26757D01*
X80052Y-26758D01*
X80328Y-27034D01*
X80374Y-27072D01*
X80420Y-27110D01*
X80423Y-27112D01*
X80426Y-27114D01*
X80478Y-27142D01*
X80531Y-27171D01*
X80534Y-27172D01*
X80537Y-27174D01*
X80595Y-27192D01*
X80652Y-27210D01*
X80655Y-27210D01*
X80659Y-27211D01*
X80718Y-27217D01*
X80778Y-27224D01*
X80785Y-27224D01*
X80785Y-27224D01*
X80785Y-27224D01*
X80787Y-27224D01*
X81463Y-27224D01*
X81496Y-27247D01*
X81445Y-27274D01*
X81329Y-27368D01*
X81235Y-27482D01*
X81164Y-27613D01*
X81120Y-27756D01*
X81104Y-27904D01*
X81118Y-28052D01*
X81160Y-28195D01*
X81229Y-28327D01*
X81295Y-28409D01*
X81235Y-28482D01*
X81164Y-28613D01*
X81120Y-28756D01*
X81104Y-28904D01*
X81118Y-29052D01*
X81160Y-29195D01*
X81229Y-29327D01*
X81295Y-29409D01*
X81235Y-29482D01*
X81164Y-29613D01*
X81120Y-29756D01*
X81104Y-29904D01*
X81118Y-30052D01*
X81160Y-30195D01*
X81229Y-30327D01*
X81295Y-30409D01*
X81235Y-30482D01*
X81164Y-30613D01*
X81120Y-30756D01*
X81104Y-30904D01*
X81118Y-31052D01*
X81160Y-31195D01*
X81229Y-31327D01*
X81322Y-31443D01*
X81436Y-31538D01*
X81566Y-31610D01*
X81708Y-31655D01*
X81856Y-31672D01*
X81867Y-31672D01*
X81948Y-31672D01*
X81948Y-34153D01*
X81388Y-34153D01*
X81323Y-34100D01*
X81195Y-34030D01*
X81055Y-33987D01*
X80910Y-33972D01*
X80765Y-33985D01*
X80624Y-34026D01*
X80495Y-34094D01*
X80381Y-34186D01*
X80287Y-34297D01*
X80260Y-34348D01*
X80251Y-34338D01*
X80169Y-34282D01*
X80134Y-34259D01*
X80059Y-34287D01*
X80059Y-34665D01*
X80066Y-34665D01*
X80066Y-34940D01*
X80059Y-34940D01*
X80059Y-35318D01*
X80134Y-35347D01*
X80169Y-35324D01*
X80251Y-35267D01*
X80259Y-35258D01*
X80282Y-35299D01*
X80374Y-35412D01*
X80486Y-35505D01*
X80615Y-35575D01*
X80754Y-35618D01*
X80900Y-35633D01*
X81045Y-35620D01*
X81185Y-35579D01*
X81314Y-35511D01*
X81388Y-35452D01*
X81948Y-35452D01*
X81948Y-35795D01*
X81872Y-35870D01*
X81778Y-36007D01*
X81713Y-36160D01*
X81678Y-36322D01*
X81676Y-36488D01*
X81706Y-36651D01*
X81767Y-36806D01*
X81779Y-36824D01*
X81723Y-36878D01*
X81640Y-36999D01*
X81582Y-37134D01*
X81552Y-37278D01*
X81549Y-37425D01*
X81576Y-37569D01*
X81630Y-37705D01*
X81709Y-37829D01*
X81811Y-37934D01*
X81932Y-38018D01*
X81978Y-38038D01*
X81990Y-38085D01*
X82040Y-38207D01*
X82110Y-38321D01*
X82176Y-38398D01*
X82176Y-38417D01*
X82206Y-38580D01*
X82267Y-38735D01*
X82357Y-38874D01*
X82472Y-38994D01*
X82608Y-39088D01*
X82760Y-39155D01*
X82922Y-39190D01*
X83088Y-39194D01*
X83252Y-39165D01*
X83407Y-39105D01*
X83547Y-39016D01*
X83609Y-38956D01*
X86636Y-38956D01*
X86753Y-38966D01*
X86866Y-38993D01*
X86972Y-39037D01*
X87070Y-39098D01*
X87159Y-39175D01*
X89414Y-41463D01*
X89505Y-41575D01*
X89571Y-41700D01*
X89611Y-41835D01*
X89625Y-41979D01*
X89625Y-60469D01*
G54D10*
G36*
X28964Y-19901D02*
X28956Y-19901D01*
X28956Y-19909D01*
X28681Y-19909D01*
X28681Y-19901D01*
X28673Y-19901D01*
X28673Y-19625D01*
X28681Y-19625D01*
X28681Y-19618D01*
X28956Y-19618D01*
X28956Y-19625D01*
X28964Y-19625D01*
X28964Y-19901D01*
X28964Y-19901D01*
G37*
G54D41*
X28964Y-19901D02*
X28956Y-19901D01*
X28956Y-19909D01*
X28681Y-19909D01*
X28681Y-19901D01*
X28673Y-19901D01*
X28673Y-19625D01*
X28681Y-19625D01*
X28681Y-19618D01*
X28956Y-19618D01*
X28956Y-19625D01*
X28964Y-19625D01*
X28964Y-19901D01*
G54D10*
G36*
X41631Y-53207D02*
X41545Y-53268D01*
X41430Y-53322D01*
X41307Y-53354D01*
X41178Y-53366D01*
X41092Y-53366D01*
X40859Y-53366D01*
X40954Y-53271D01*
X40907Y-53224D01*
X41011Y-53153D01*
X41066Y-53004D01*
X41092Y-52847D01*
X41092Y-48005D01*
X41087Y-47846D01*
X41051Y-47691D01*
X41011Y-47594D01*
X40907Y-47523D01*
X40712Y-47718D01*
X40712Y-47329D01*
X40641Y-47225D01*
X40492Y-47169D01*
X40336Y-47143D01*
X40177Y-47148D01*
X40022Y-47184D01*
X39925Y-47225D01*
X39854Y-47329D01*
X40283Y-47757D01*
X40712Y-47329D01*
X40712Y-47718D01*
X40478Y-47952D01*
X40907Y-48381D01*
X41011Y-48311D01*
X41066Y-48162D01*
X41092Y-48005D01*
X41092Y-52847D01*
X41087Y-52688D01*
X41051Y-52534D01*
X41011Y-52436D01*
X40907Y-52366D01*
X40712Y-52561D01*
X40712Y-52171D01*
X40712Y-48576D01*
X40283Y-48147D01*
X40088Y-48342D01*
X40088Y-47952D01*
X39659Y-47523D01*
X39568Y-47586D01*
X39568Y-39052D01*
X39565Y-38873D01*
X39528Y-38699D01*
X39470Y-38559D01*
X39356Y-38476D01*
X39161Y-38671D01*
X39161Y-38281D01*
X39078Y-38167D01*
X38912Y-38101D01*
X38737Y-38069D01*
X38559Y-38072D01*
X38384Y-38109D01*
X38244Y-38167D01*
X38161Y-38281D01*
X38661Y-38781D01*
X39161Y-38281D01*
X39161Y-38671D01*
X38856Y-38976D01*
X39356Y-39476D01*
X39470Y-39393D01*
X39535Y-39227D01*
X39568Y-39052D01*
X39568Y-47586D01*
X39555Y-47594D01*
X39499Y-47743D01*
X39474Y-47900D01*
X39479Y-48059D01*
X39515Y-48213D01*
X39555Y-48311D01*
X39659Y-48381D01*
X40088Y-47952D01*
X40088Y-48342D01*
X39854Y-48576D01*
X39925Y-48680D01*
X40074Y-48736D01*
X40230Y-48762D01*
X40389Y-48756D01*
X40544Y-48720D01*
X40641Y-48680D01*
X40712Y-48576D01*
X40712Y-52171D01*
X40641Y-52067D01*
X40492Y-52011D01*
X40336Y-51985D01*
X40177Y-51991D01*
X40022Y-52027D01*
X39925Y-52067D01*
X39854Y-52171D01*
X40283Y-52600D01*
X40712Y-52171D01*
X40712Y-52561D01*
X40478Y-52795D01*
X40483Y-52800D01*
X40289Y-52995D01*
X40283Y-52990D01*
X40277Y-52995D01*
X40088Y-52806D01*
X40083Y-52800D01*
X40088Y-52795D01*
X39659Y-52366D01*
X39555Y-52436D01*
X39499Y-52585D01*
X39474Y-52742D01*
X39479Y-52901D01*
X39515Y-53056D01*
X39555Y-53153D01*
X39659Y-53224D01*
X39612Y-53271D01*
X39707Y-53366D01*
X39161Y-53366D01*
X39161Y-39671D01*
X38661Y-39171D01*
X38466Y-39366D01*
X38466Y-38976D01*
X37966Y-38476D01*
X37852Y-38559D01*
X37786Y-38724D01*
X37754Y-38900D01*
X37757Y-39078D01*
X37794Y-39253D01*
X37852Y-39393D01*
X37966Y-39476D01*
X38466Y-38976D01*
X38466Y-39366D01*
X38161Y-39671D01*
X38244Y-39785D01*
X38410Y-39850D01*
X38585Y-39883D01*
X38763Y-39880D01*
X38938Y-39843D01*
X39078Y-39785D01*
X39161Y-39671D01*
X39161Y-53366D01*
X39148Y-53366D01*
X39148Y-45772D01*
X39140Y-45636D01*
X39105Y-45505D01*
X39086Y-45460D01*
X38994Y-45404D01*
X38799Y-45599D01*
X38799Y-45209D01*
X38744Y-45118D01*
X38615Y-45074D01*
X38481Y-45056D01*
X38345Y-45064D01*
X38214Y-45099D01*
X38169Y-45118D01*
X38113Y-45209D01*
X38456Y-45553D01*
X38799Y-45209D01*
X38799Y-45599D01*
X38651Y-45748D01*
X38994Y-46091D01*
X39086Y-46035D01*
X39130Y-45906D01*
X39148Y-45772D01*
X39148Y-53366D01*
X38799Y-53366D01*
X38799Y-46286D01*
X38456Y-45942D01*
X38261Y-46137D01*
X38261Y-45748D01*
X37918Y-45404D01*
X37826Y-45460D01*
X37782Y-45589D01*
X37764Y-45723D01*
X37773Y-45859D01*
X37808Y-45990D01*
X37826Y-46035D01*
X37918Y-46091D01*
X38261Y-45748D01*
X38261Y-46137D01*
X38113Y-46286D01*
X38169Y-46377D01*
X38297Y-46421D01*
X38432Y-46439D01*
X38567Y-46431D01*
X38698Y-46396D01*
X38744Y-46377D01*
X38799Y-46286D01*
X38799Y-53366D01*
X38034Y-53366D01*
X37905Y-53354D01*
X37782Y-53322D01*
X37667Y-53268D01*
X37657Y-53261D01*
X37657Y-38542D01*
X38021Y-38178D01*
X38082Y-38104D01*
X38144Y-38030D01*
X38146Y-38025D01*
X38150Y-38021D01*
X38195Y-37936D01*
X38242Y-37851D01*
X38244Y-37846D01*
X38246Y-37841D01*
X38274Y-37749D01*
X38303Y-37657D01*
X38304Y-37652D01*
X38306Y-37647D01*
X38315Y-37551D01*
X38326Y-37455D01*
X38326Y-37444D01*
X38326Y-37444D01*
X38326Y-37444D01*
X38326Y-37440D01*
X38326Y-33291D01*
X38326Y-32090D01*
X38306Y-31888D01*
X38248Y-31693D01*
X38152Y-31513D01*
X38023Y-31355D01*
X37866Y-31225D01*
X37687Y-31129D01*
X37493Y-31068D01*
X37290Y-31047D01*
X37087Y-31066D01*
X36892Y-31123D01*
X36712Y-31217D01*
X36553Y-31345D01*
X36422Y-31501D01*
X36324Y-31679D01*
X36262Y-31873D01*
X36240Y-32076D01*
X36240Y-32090D01*
X36240Y-32376D01*
X36115Y-32309D01*
X36053Y-32290D01*
X36053Y-27761D01*
X36043Y-27641D01*
X36009Y-27526D01*
X36005Y-27516D01*
X35921Y-27470D01*
X35635Y-27755D01*
X35921Y-28041D01*
X36005Y-27995D01*
X36041Y-27880D01*
X36053Y-27761D01*
X36053Y-32290D01*
X35957Y-32260D01*
X35793Y-32243D01*
X35726Y-32249D01*
X35726Y-28236D01*
X35440Y-27950D01*
X35246Y-28145D01*
X35246Y-27755D01*
X34960Y-27470D01*
X34876Y-27516D01*
X34840Y-27630D01*
X34827Y-27750D01*
X34838Y-27870D01*
X34872Y-27985D01*
X34876Y-27995D01*
X34960Y-28041D01*
X35246Y-27755D01*
X35246Y-28145D01*
X35155Y-28236D01*
X35201Y-28320D01*
X35316Y-28356D01*
X35435Y-28368D01*
X35555Y-28358D01*
X35670Y-28324D01*
X35680Y-28320D01*
X35726Y-28236D01*
X35726Y-32249D01*
X35628Y-32258D01*
X35610Y-32263D01*
X35610Y-31343D01*
X35597Y-31198D01*
X35555Y-31058D01*
X35488Y-30928D01*
X35396Y-30814D01*
X35284Y-30720D01*
X35234Y-30693D01*
X35243Y-30684D01*
X35300Y-30602D01*
X35323Y-30567D01*
X35323Y-30141D01*
X35323Y-29583D01*
X35323Y-29157D01*
X35300Y-29122D01*
X35243Y-29040D01*
X35171Y-28971D01*
X35088Y-28918D01*
X34995Y-28881D01*
X34917Y-28920D01*
X34917Y-29232D01*
X35294Y-29232D01*
X35323Y-29157D01*
X35323Y-29583D01*
X35294Y-29508D01*
X34917Y-29508D01*
X34917Y-29820D01*
X34995Y-29858D01*
X35088Y-29822D01*
X35171Y-29769D01*
X35243Y-29700D01*
X35300Y-29618D01*
X35323Y-29583D01*
X35323Y-30141D01*
X35300Y-30106D01*
X35243Y-30024D01*
X35171Y-29955D01*
X35088Y-29902D01*
X34995Y-29865D01*
X34917Y-29904D01*
X34917Y-30216D01*
X35294Y-30216D01*
X35323Y-30141D01*
X35323Y-30567D01*
X35294Y-30492D01*
X34917Y-30492D01*
X34917Y-30500D01*
X34641Y-30500D01*
X34641Y-30492D01*
X34641Y-30216D01*
X34641Y-29904D01*
X34641Y-29820D01*
X34641Y-29508D01*
X34641Y-29232D01*
X34641Y-28920D01*
X34563Y-28881D01*
X34470Y-28918D01*
X34387Y-28971D01*
X34315Y-29040D01*
X34258Y-29122D01*
X34235Y-29157D01*
X34264Y-29232D01*
X34641Y-29232D01*
X34641Y-29508D01*
X34264Y-29508D01*
X34235Y-29583D01*
X34258Y-29618D01*
X34315Y-29700D01*
X34387Y-29769D01*
X34470Y-29822D01*
X34563Y-29858D01*
X34641Y-29820D01*
X34641Y-29904D01*
X34563Y-29865D01*
X34470Y-29902D01*
X34387Y-29955D01*
X34315Y-30024D01*
X34258Y-30106D01*
X34235Y-30141D01*
X34264Y-30216D01*
X34641Y-30216D01*
X34641Y-30492D01*
X34264Y-30492D01*
X34235Y-30567D01*
X34258Y-30602D01*
X34315Y-30684D01*
X34324Y-30692D01*
X34282Y-30715D01*
X34169Y-30807D01*
X34076Y-30919D01*
X34007Y-31048D01*
X33964Y-31187D01*
X33948Y-31333D01*
X33962Y-31478D01*
X34003Y-31618D01*
X34070Y-31748D01*
X34162Y-31861D01*
X34274Y-31955D01*
X34402Y-32026D01*
X34541Y-32070D01*
X34686Y-32086D01*
X34697Y-32086D01*
X34862Y-32086D01*
X35007Y-32072D01*
X35147Y-32030D01*
X35276Y-31961D01*
X35389Y-31869D01*
X35482Y-31756D01*
X35551Y-31628D01*
X35595Y-31488D01*
X35610Y-31343D01*
X35610Y-32263D01*
X35470Y-32304D01*
X35324Y-32381D01*
X35195Y-32484D01*
X35089Y-32611D01*
X35085Y-32618D01*
X34555Y-32618D01*
X34549Y-32612D01*
X34412Y-32519D01*
X34259Y-32455D01*
X34096Y-32422D01*
X33930Y-32420D01*
X33767Y-32451D01*
X33664Y-32493D01*
X33220Y-32049D01*
X33215Y-32026D01*
X33159Y-31891D01*
X33078Y-31768D01*
X32975Y-31664D01*
X32853Y-31582D01*
X32718Y-31525D01*
X32626Y-31506D01*
X32626Y-30290D01*
X32570Y-30192D01*
X32145Y-30192D01*
X32145Y-30790D01*
X32236Y-30817D01*
X32319Y-30787D01*
X32418Y-30716D01*
X32500Y-30627D01*
X32564Y-30523D01*
X32606Y-30410D01*
X32626Y-30290D01*
X32626Y-31506D01*
X32574Y-31496D01*
X32427Y-31495D01*
X32283Y-31522D01*
X32147Y-31577D01*
X32024Y-31658D01*
X31920Y-31760D01*
X31870Y-31833D01*
X31870Y-30790D01*
X31870Y-30192D01*
X31445Y-30192D01*
X31389Y-30290D01*
X31408Y-30410D01*
X31451Y-30523D01*
X31514Y-30627D01*
X31597Y-30716D01*
X31695Y-30787D01*
X31778Y-30817D01*
X31870Y-30790D01*
X31870Y-31833D01*
X31837Y-31881D01*
X31779Y-32016D01*
X31748Y-32160D01*
X31748Y-32185D01*
X31262Y-32185D01*
X31244Y-32183D01*
X31244Y-32170D01*
X31215Y-32026D01*
X31159Y-31891D01*
X31078Y-31768D01*
X30975Y-31664D01*
X30853Y-31582D01*
X30718Y-31525D01*
X30574Y-31496D01*
X30535Y-31496D01*
X30531Y-31454D01*
X30531Y-29851D01*
X30629Y-29882D01*
X30794Y-29901D01*
X30805Y-29901D01*
X31209Y-29901D01*
X31374Y-29885D01*
X31419Y-29871D01*
X31445Y-29917D01*
X31870Y-29917D01*
X31870Y-29909D01*
X32145Y-29909D01*
X32145Y-29917D01*
X32570Y-29917D01*
X32596Y-29872D01*
X32629Y-29882D01*
X32794Y-29901D01*
X32805Y-29901D01*
X33209Y-29901D01*
X33374Y-29885D01*
X33532Y-29837D01*
X33678Y-29759D01*
X33806Y-29655D01*
X33911Y-29528D01*
X33990Y-29383D01*
X34038Y-29225D01*
X34056Y-29061D01*
X34041Y-28896D01*
X33994Y-28738D01*
X33918Y-28591D01*
X33814Y-28463D01*
X33688Y-28356D01*
X33543Y-28277D01*
X33385Y-28227D01*
X33221Y-28208D01*
X33209Y-28208D01*
X33080Y-28208D01*
X32168Y-27296D01*
X32132Y-27267D01*
X32099Y-27218D01*
X32090Y-27209D01*
X32090Y-27122D01*
X32180Y-26994D01*
X32247Y-26843D01*
X32284Y-26681D01*
X32287Y-26491D01*
X32255Y-26329D01*
X32191Y-26175D01*
X32099Y-26037D01*
X32047Y-25984D01*
X32084Y-25949D01*
X32180Y-25813D01*
X32247Y-25662D01*
X32284Y-25500D01*
X32287Y-25310D01*
X32255Y-25147D01*
X32191Y-24994D01*
X32106Y-24865D01*
X32106Y-24759D01*
X32196Y-24632D01*
X32263Y-24481D01*
X32300Y-24319D01*
X32302Y-24129D01*
X32270Y-23966D01*
X32207Y-23813D01*
X32115Y-23675D01*
X31998Y-23557D01*
X31861Y-23464D01*
X31708Y-23400D01*
X31545Y-23366D01*
X31529Y-23366D01*
X31057Y-22894D01*
X31011Y-22856D01*
X30965Y-22818D01*
X30962Y-22816D01*
X30959Y-22814D01*
X30906Y-22786D01*
X30854Y-22757D01*
X30851Y-22756D01*
X30848Y-22754D01*
X30790Y-22737D01*
X30770Y-22730D01*
X30738Y-22699D01*
X30601Y-22606D01*
X30531Y-22576D01*
X30531Y-21623D01*
X30521Y-21492D01*
X30511Y-21451D01*
X30517Y-21443D01*
X30596Y-21299D01*
X30646Y-21141D01*
X30665Y-20977D01*
X30665Y-20965D01*
X30665Y-20561D01*
X30649Y-20397D01*
X30601Y-20239D01*
X30523Y-20093D01*
X30419Y-19965D01*
X30292Y-19860D01*
X30146Y-19781D01*
X30089Y-19763D01*
X30135Y-19750D01*
X30282Y-19673D01*
X30410Y-19570D01*
X30517Y-19443D01*
X30533Y-19413D01*
X31384Y-19413D01*
X31463Y-19492D01*
X31536Y-19596D01*
X31589Y-19711D01*
X31622Y-19834D01*
X31633Y-19963D01*
X31633Y-20115D01*
X31529Y-20217D01*
X31435Y-20354D01*
X31370Y-20506D01*
X31336Y-20668D01*
X31333Y-20834D01*
X31363Y-20998D01*
X31424Y-21152D01*
X31514Y-21291D01*
X31531Y-21309D01*
X31531Y-21661D01*
X31537Y-21721D01*
X31542Y-21780D01*
X31543Y-21784D01*
X31543Y-21787D01*
X31561Y-21845D01*
X31577Y-21902D01*
X31579Y-21905D01*
X31580Y-21908D01*
X31608Y-21961D01*
X31636Y-22015D01*
X31638Y-22017D01*
X31640Y-22020D01*
X31677Y-22067D01*
X31715Y-22114D01*
X31720Y-22119D01*
X31720Y-22119D01*
X31720Y-22119D01*
X31721Y-22120D01*
X31837Y-22236D01*
X31867Y-22399D01*
X31928Y-22554D01*
X32018Y-22693D01*
X32133Y-22812D01*
X32270Y-22907D01*
X32422Y-22974D01*
X32584Y-23009D01*
X32750Y-23013D01*
X32913Y-22984D01*
X32933Y-22976D01*
X32933Y-23543D01*
X32923Y-23549D01*
X32805Y-23666D01*
X32711Y-23802D01*
X32646Y-23955D01*
X32611Y-24117D01*
X32609Y-24283D01*
X32639Y-24446D01*
X32700Y-24601D01*
X32790Y-24740D01*
X32905Y-24860D01*
X33041Y-24954D01*
X33193Y-25021D01*
X33356Y-25056D01*
X33521Y-25060D01*
X33685Y-25031D01*
X33840Y-24971D01*
X33980Y-24882D01*
X34001Y-24862D01*
X34029Y-24862D01*
X34031Y-24864D01*
X34167Y-24958D01*
X34319Y-25025D01*
X34481Y-25060D01*
X34508Y-25061D01*
X34622Y-25174D01*
X34595Y-25298D01*
X34593Y-25464D01*
X34623Y-25628D01*
X34684Y-25782D01*
X34774Y-25921D01*
X34791Y-25939D01*
X34791Y-26026D01*
X34789Y-26028D01*
X34695Y-26165D01*
X34630Y-26317D01*
X34595Y-26480D01*
X34593Y-26645D01*
X34623Y-26809D01*
X34684Y-26963D01*
X34774Y-27102D01*
X34889Y-27222D01*
X35026Y-27317D01*
X35178Y-27383D01*
X35287Y-27407D01*
X35440Y-27561D01*
X35594Y-27406D01*
X35669Y-27393D01*
X35824Y-27333D01*
X35964Y-27244D01*
X36084Y-27130D01*
X36180Y-26994D01*
X36247Y-26843D01*
X36284Y-26681D01*
X36287Y-26491D01*
X36255Y-26329D01*
X36191Y-26175D01*
X36099Y-26037D01*
X36090Y-26027D01*
X36090Y-25940D01*
X36180Y-25813D01*
X36247Y-25662D01*
X36284Y-25500D01*
X36287Y-25310D01*
X36255Y-25147D01*
X36202Y-25019D01*
X39249Y-25019D01*
X39378Y-25030D01*
X39501Y-25063D01*
X39616Y-25117D01*
X39719Y-25190D01*
X39809Y-25280D01*
X39882Y-25383D01*
X39936Y-25498D01*
X39969Y-25621D01*
X39980Y-25750D01*
X39980Y-33967D01*
X39990Y-34097D01*
X40021Y-34226D01*
X40072Y-34349D01*
X40141Y-34462D01*
X40226Y-34562D01*
X41555Y-35890D01*
X41555Y-38002D01*
X41508Y-38072D01*
X41474Y-38155D01*
X41456Y-38242D01*
X41456Y-38331D01*
X41456Y-39709D01*
X41474Y-39797D01*
X41508Y-39879D01*
X41555Y-39949D01*
X41555Y-45664D01*
X41547Y-45733D01*
X41547Y-45748D01*
X41547Y-47942D01*
X41545Y-48040D01*
X41547Y-48047D01*
X41547Y-52784D01*
X41545Y-52882D01*
X41582Y-53084D01*
X41631Y-53207D01*
X41631Y-53207D01*
G37*
G54D41*
X41631Y-53207D02*
X41545Y-53268D01*
X41430Y-53322D01*
X41307Y-53354D01*
X41178Y-53366D01*
X41092Y-53366D01*
X40859Y-53366D01*
X40954Y-53271D01*
X40907Y-53224D01*
X41011Y-53153D01*
X41066Y-53004D01*
X41092Y-52847D01*
X41092Y-48005D01*
X41087Y-47846D01*
X41051Y-47691D01*
X41011Y-47594D01*
X40907Y-47523D01*
X40712Y-47718D01*
X40712Y-47329D01*
X40641Y-47225D01*
X40492Y-47169D01*
X40336Y-47143D01*
X40177Y-47148D01*
X40022Y-47184D01*
X39925Y-47225D01*
X39854Y-47329D01*
X40283Y-47757D01*
X40712Y-47329D01*
X40712Y-47718D01*
X40478Y-47952D01*
X40907Y-48381D01*
X41011Y-48311D01*
X41066Y-48162D01*
X41092Y-48005D01*
X41092Y-52847D01*
X41087Y-52688D01*
X41051Y-52534D01*
X41011Y-52436D01*
X40907Y-52366D01*
X40712Y-52561D01*
X40712Y-52171D01*
X40712Y-48576D01*
X40283Y-48147D01*
X40088Y-48342D01*
X40088Y-47952D01*
X39659Y-47523D01*
X39568Y-47586D01*
X39568Y-39052D01*
X39565Y-38873D01*
X39528Y-38699D01*
X39470Y-38559D01*
X39356Y-38476D01*
X39161Y-38671D01*
X39161Y-38281D01*
X39078Y-38167D01*
X38912Y-38101D01*
X38737Y-38069D01*
X38559Y-38072D01*
X38384Y-38109D01*
X38244Y-38167D01*
X38161Y-38281D01*
X38661Y-38781D01*
X39161Y-38281D01*
X39161Y-38671D01*
X38856Y-38976D01*
X39356Y-39476D01*
X39470Y-39393D01*
X39535Y-39227D01*
X39568Y-39052D01*
X39568Y-47586D01*
X39555Y-47594D01*
X39499Y-47743D01*
X39474Y-47900D01*
X39479Y-48059D01*
X39515Y-48213D01*
X39555Y-48311D01*
X39659Y-48381D01*
X40088Y-47952D01*
X40088Y-48342D01*
X39854Y-48576D01*
X39925Y-48680D01*
X40074Y-48736D01*
X40230Y-48762D01*
X40389Y-48756D01*
X40544Y-48720D01*
X40641Y-48680D01*
X40712Y-48576D01*
X40712Y-52171D01*
X40641Y-52067D01*
X40492Y-52011D01*
X40336Y-51985D01*
X40177Y-51991D01*
X40022Y-52027D01*
X39925Y-52067D01*
X39854Y-52171D01*
X40283Y-52600D01*
X40712Y-52171D01*
X40712Y-52561D01*
X40478Y-52795D01*
X40483Y-52800D01*
X40289Y-52995D01*
X40283Y-52990D01*
X40277Y-52995D01*
X40088Y-52806D01*
X40083Y-52800D01*
X40088Y-52795D01*
X39659Y-52366D01*
X39555Y-52436D01*
X39499Y-52585D01*
X39474Y-52742D01*
X39479Y-52901D01*
X39515Y-53056D01*
X39555Y-53153D01*
X39659Y-53224D01*
X39612Y-53271D01*
X39707Y-53366D01*
X39161Y-53366D01*
X39161Y-39671D01*
X38661Y-39171D01*
X38466Y-39366D01*
X38466Y-38976D01*
X37966Y-38476D01*
X37852Y-38559D01*
X37786Y-38724D01*
X37754Y-38900D01*
X37757Y-39078D01*
X37794Y-39253D01*
X37852Y-39393D01*
X37966Y-39476D01*
X38466Y-38976D01*
X38466Y-39366D01*
X38161Y-39671D01*
X38244Y-39785D01*
X38410Y-39850D01*
X38585Y-39883D01*
X38763Y-39880D01*
X38938Y-39843D01*
X39078Y-39785D01*
X39161Y-39671D01*
X39161Y-53366D01*
X39148Y-53366D01*
X39148Y-45772D01*
X39140Y-45636D01*
X39105Y-45505D01*
X39086Y-45460D01*
X38994Y-45404D01*
X38799Y-45599D01*
X38799Y-45209D01*
X38744Y-45118D01*
X38615Y-45074D01*
X38481Y-45056D01*
X38345Y-45064D01*
X38214Y-45099D01*
X38169Y-45118D01*
X38113Y-45209D01*
X38456Y-45553D01*
X38799Y-45209D01*
X38799Y-45599D01*
X38651Y-45748D01*
X38994Y-46091D01*
X39086Y-46035D01*
X39130Y-45906D01*
X39148Y-45772D01*
X39148Y-53366D01*
X38799Y-53366D01*
X38799Y-46286D01*
X38456Y-45942D01*
X38261Y-46137D01*
X38261Y-45748D01*
X37918Y-45404D01*
X37826Y-45460D01*
X37782Y-45589D01*
X37764Y-45723D01*
X37773Y-45859D01*
X37808Y-45990D01*
X37826Y-46035D01*
X37918Y-46091D01*
X38261Y-45748D01*
X38261Y-46137D01*
X38113Y-46286D01*
X38169Y-46377D01*
X38297Y-46421D01*
X38432Y-46439D01*
X38567Y-46431D01*
X38698Y-46396D01*
X38744Y-46377D01*
X38799Y-46286D01*
X38799Y-53366D01*
X38034Y-53366D01*
X37905Y-53354D01*
X37782Y-53322D01*
X37667Y-53268D01*
X37657Y-53261D01*
X37657Y-38542D01*
X38021Y-38178D01*
X38082Y-38104D01*
X38144Y-38030D01*
X38146Y-38025D01*
X38150Y-38021D01*
X38195Y-37936D01*
X38242Y-37851D01*
X38244Y-37846D01*
X38246Y-37841D01*
X38274Y-37749D01*
X38303Y-37657D01*
X38304Y-37652D01*
X38306Y-37647D01*
X38315Y-37551D01*
X38326Y-37455D01*
X38326Y-37444D01*
X38326Y-37444D01*
X38326Y-37444D01*
X38326Y-37440D01*
X38326Y-33291D01*
X38326Y-32090D01*
X38306Y-31888D01*
X38248Y-31693D01*
X38152Y-31513D01*
X38023Y-31355D01*
X37866Y-31225D01*
X37687Y-31129D01*
X37493Y-31068D01*
X37290Y-31047D01*
X37087Y-31066D01*
X36892Y-31123D01*
X36712Y-31217D01*
X36553Y-31345D01*
X36422Y-31501D01*
X36324Y-31679D01*
X36262Y-31873D01*
X36240Y-32076D01*
X36240Y-32090D01*
X36240Y-32376D01*
X36115Y-32309D01*
X36053Y-32290D01*
X36053Y-27761D01*
X36043Y-27641D01*
X36009Y-27526D01*
X36005Y-27516D01*
X35921Y-27470D01*
X35635Y-27755D01*
X35921Y-28041D01*
X36005Y-27995D01*
X36041Y-27880D01*
X36053Y-27761D01*
X36053Y-32290D01*
X35957Y-32260D01*
X35793Y-32243D01*
X35726Y-32249D01*
X35726Y-28236D01*
X35440Y-27950D01*
X35246Y-28145D01*
X35246Y-27755D01*
X34960Y-27470D01*
X34876Y-27516D01*
X34840Y-27630D01*
X34827Y-27750D01*
X34838Y-27870D01*
X34872Y-27985D01*
X34876Y-27995D01*
X34960Y-28041D01*
X35246Y-27755D01*
X35246Y-28145D01*
X35155Y-28236D01*
X35201Y-28320D01*
X35316Y-28356D01*
X35435Y-28368D01*
X35555Y-28358D01*
X35670Y-28324D01*
X35680Y-28320D01*
X35726Y-28236D01*
X35726Y-32249D01*
X35628Y-32258D01*
X35610Y-32263D01*
X35610Y-31343D01*
X35597Y-31198D01*
X35555Y-31058D01*
X35488Y-30928D01*
X35396Y-30814D01*
X35284Y-30720D01*
X35234Y-30693D01*
X35243Y-30684D01*
X35300Y-30602D01*
X35323Y-30567D01*
X35323Y-30141D01*
X35323Y-29583D01*
X35323Y-29157D01*
X35300Y-29122D01*
X35243Y-29040D01*
X35171Y-28971D01*
X35088Y-28918D01*
X34995Y-28881D01*
X34917Y-28920D01*
X34917Y-29232D01*
X35294Y-29232D01*
X35323Y-29157D01*
X35323Y-29583D01*
X35294Y-29508D01*
X34917Y-29508D01*
X34917Y-29820D01*
X34995Y-29858D01*
X35088Y-29822D01*
X35171Y-29769D01*
X35243Y-29700D01*
X35300Y-29618D01*
X35323Y-29583D01*
X35323Y-30141D01*
X35300Y-30106D01*
X35243Y-30024D01*
X35171Y-29955D01*
X35088Y-29902D01*
X34995Y-29865D01*
X34917Y-29904D01*
X34917Y-30216D01*
X35294Y-30216D01*
X35323Y-30141D01*
X35323Y-30567D01*
X35294Y-30492D01*
X34917Y-30492D01*
X34917Y-30500D01*
X34641Y-30500D01*
X34641Y-30492D01*
X34641Y-30216D01*
X34641Y-29904D01*
X34641Y-29820D01*
X34641Y-29508D01*
X34641Y-29232D01*
X34641Y-28920D01*
X34563Y-28881D01*
X34470Y-28918D01*
X34387Y-28971D01*
X34315Y-29040D01*
X34258Y-29122D01*
X34235Y-29157D01*
X34264Y-29232D01*
X34641Y-29232D01*
X34641Y-29508D01*
X34264Y-29508D01*
X34235Y-29583D01*
X34258Y-29618D01*
X34315Y-29700D01*
X34387Y-29769D01*
X34470Y-29822D01*
X34563Y-29858D01*
X34641Y-29820D01*
X34641Y-29904D01*
X34563Y-29865D01*
X34470Y-29902D01*
X34387Y-29955D01*
X34315Y-30024D01*
X34258Y-30106D01*
X34235Y-30141D01*
X34264Y-30216D01*
X34641Y-30216D01*
X34641Y-30492D01*
X34264Y-30492D01*
X34235Y-30567D01*
X34258Y-30602D01*
X34315Y-30684D01*
X34324Y-30692D01*
X34282Y-30715D01*
X34169Y-30807D01*
X34076Y-30919D01*
X34007Y-31048D01*
X33964Y-31187D01*
X33948Y-31333D01*
X33962Y-31478D01*
X34003Y-31618D01*
X34070Y-31748D01*
X34162Y-31861D01*
X34274Y-31955D01*
X34402Y-32026D01*
X34541Y-32070D01*
X34686Y-32086D01*
X34697Y-32086D01*
X34862Y-32086D01*
X35007Y-32072D01*
X35147Y-32030D01*
X35276Y-31961D01*
X35389Y-31869D01*
X35482Y-31756D01*
X35551Y-31628D01*
X35595Y-31488D01*
X35610Y-31343D01*
X35610Y-32263D01*
X35470Y-32304D01*
X35324Y-32381D01*
X35195Y-32484D01*
X35089Y-32611D01*
X35085Y-32618D01*
X34555Y-32618D01*
X34549Y-32612D01*
X34412Y-32519D01*
X34259Y-32455D01*
X34096Y-32422D01*
X33930Y-32420D01*
X33767Y-32451D01*
X33664Y-32493D01*
X33220Y-32049D01*
X33215Y-32026D01*
X33159Y-31891D01*
X33078Y-31768D01*
X32975Y-31664D01*
X32853Y-31582D01*
X32718Y-31525D01*
X32626Y-31506D01*
X32626Y-30290D01*
X32570Y-30192D01*
X32145Y-30192D01*
X32145Y-30790D01*
X32236Y-30817D01*
X32319Y-30787D01*
X32418Y-30716D01*
X32500Y-30627D01*
X32564Y-30523D01*
X32606Y-30410D01*
X32626Y-30290D01*
X32626Y-31506D01*
X32574Y-31496D01*
X32427Y-31495D01*
X32283Y-31522D01*
X32147Y-31577D01*
X32024Y-31658D01*
X31920Y-31760D01*
X31870Y-31833D01*
X31870Y-30790D01*
X31870Y-30192D01*
X31445Y-30192D01*
X31389Y-30290D01*
X31408Y-30410D01*
X31451Y-30523D01*
X31514Y-30627D01*
X31597Y-30716D01*
X31695Y-30787D01*
X31778Y-30817D01*
X31870Y-30790D01*
X31870Y-31833D01*
X31837Y-31881D01*
X31779Y-32016D01*
X31748Y-32160D01*
X31748Y-32185D01*
X31262Y-32185D01*
X31244Y-32183D01*
X31244Y-32170D01*
X31215Y-32026D01*
X31159Y-31891D01*
X31078Y-31768D01*
X30975Y-31664D01*
X30853Y-31582D01*
X30718Y-31525D01*
X30574Y-31496D01*
X30535Y-31496D01*
X30531Y-31454D01*
X30531Y-29851D01*
X30629Y-29882D01*
X30794Y-29901D01*
X30805Y-29901D01*
X31209Y-29901D01*
X31374Y-29885D01*
X31419Y-29871D01*
X31445Y-29917D01*
X31870Y-29917D01*
X31870Y-29909D01*
X32145Y-29909D01*
X32145Y-29917D01*
X32570Y-29917D01*
X32596Y-29872D01*
X32629Y-29882D01*
X32794Y-29901D01*
X32805Y-29901D01*
X33209Y-29901D01*
X33374Y-29885D01*
X33532Y-29837D01*
X33678Y-29759D01*
X33806Y-29655D01*
X33911Y-29528D01*
X33990Y-29383D01*
X34038Y-29225D01*
X34056Y-29061D01*
X34041Y-28896D01*
X33994Y-28738D01*
X33918Y-28591D01*
X33814Y-28463D01*
X33688Y-28356D01*
X33543Y-28277D01*
X33385Y-28227D01*
X33221Y-28208D01*
X33209Y-28208D01*
X33080Y-28208D01*
X32168Y-27296D01*
X32132Y-27267D01*
X32099Y-27218D01*
X32090Y-27209D01*
X32090Y-27122D01*
X32180Y-26994D01*
X32247Y-26843D01*
X32284Y-26681D01*
X32287Y-26491D01*
X32255Y-26329D01*
X32191Y-26175D01*
X32099Y-26037D01*
X32047Y-25984D01*
X32084Y-25949D01*
X32180Y-25813D01*
X32247Y-25662D01*
X32284Y-25500D01*
X32287Y-25310D01*
X32255Y-25147D01*
X32191Y-24994D01*
X32106Y-24865D01*
X32106Y-24759D01*
X32196Y-24632D01*
X32263Y-24481D01*
X32300Y-24319D01*
X32302Y-24129D01*
X32270Y-23966D01*
X32207Y-23813D01*
X32115Y-23675D01*
X31998Y-23557D01*
X31861Y-23464D01*
X31708Y-23400D01*
X31545Y-23366D01*
X31529Y-23366D01*
X31057Y-22894D01*
X31011Y-22856D01*
X30965Y-22818D01*
X30962Y-22816D01*
X30959Y-22814D01*
X30906Y-22786D01*
X30854Y-22757D01*
X30851Y-22756D01*
X30848Y-22754D01*
X30790Y-22737D01*
X30770Y-22730D01*
X30738Y-22699D01*
X30601Y-22606D01*
X30531Y-22576D01*
X30531Y-21623D01*
X30521Y-21492D01*
X30511Y-21451D01*
X30517Y-21443D01*
X30596Y-21299D01*
X30646Y-21141D01*
X30665Y-20977D01*
X30665Y-20965D01*
X30665Y-20561D01*
X30649Y-20397D01*
X30601Y-20239D01*
X30523Y-20093D01*
X30419Y-19965D01*
X30292Y-19860D01*
X30146Y-19781D01*
X30089Y-19763D01*
X30135Y-19750D01*
X30282Y-19673D01*
X30410Y-19570D01*
X30517Y-19443D01*
X30533Y-19413D01*
X31384Y-19413D01*
X31463Y-19492D01*
X31536Y-19596D01*
X31589Y-19711D01*
X31622Y-19834D01*
X31633Y-19963D01*
X31633Y-20115D01*
X31529Y-20217D01*
X31435Y-20354D01*
X31370Y-20506D01*
X31336Y-20668D01*
X31333Y-20834D01*
X31363Y-20998D01*
X31424Y-21152D01*
X31514Y-21291D01*
X31531Y-21309D01*
X31531Y-21661D01*
X31537Y-21721D01*
X31542Y-21780D01*
X31543Y-21784D01*
X31543Y-21787D01*
X31561Y-21845D01*
X31577Y-21902D01*
X31579Y-21905D01*
X31580Y-21908D01*
X31608Y-21961D01*
X31636Y-22015D01*
X31638Y-22017D01*
X31640Y-22020D01*
X31677Y-22067D01*
X31715Y-22114D01*
X31720Y-22119D01*
X31720Y-22119D01*
X31720Y-22119D01*
X31721Y-22120D01*
X31837Y-22236D01*
X31867Y-22399D01*
X31928Y-22554D01*
X32018Y-22693D01*
X32133Y-22812D01*
X32270Y-22907D01*
X32422Y-22974D01*
X32584Y-23009D01*
X32750Y-23013D01*
X32913Y-22984D01*
X32933Y-22976D01*
X32933Y-23543D01*
X32923Y-23549D01*
X32805Y-23666D01*
X32711Y-23802D01*
X32646Y-23955D01*
X32611Y-24117D01*
X32609Y-24283D01*
X32639Y-24446D01*
X32700Y-24601D01*
X32790Y-24740D01*
X32905Y-24860D01*
X33041Y-24954D01*
X33193Y-25021D01*
X33356Y-25056D01*
X33521Y-25060D01*
X33685Y-25031D01*
X33840Y-24971D01*
X33980Y-24882D01*
X34001Y-24862D01*
X34029Y-24862D01*
X34031Y-24864D01*
X34167Y-24958D01*
X34319Y-25025D01*
X34481Y-25060D01*
X34508Y-25061D01*
X34622Y-25174D01*
X34595Y-25298D01*
X34593Y-25464D01*
X34623Y-25628D01*
X34684Y-25782D01*
X34774Y-25921D01*
X34791Y-25939D01*
X34791Y-26026D01*
X34789Y-26028D01*
X34695Y-26165D01*
X34630Y-26317D01*
X34595Y-26480D01*
X34593Y-26645D01*
X34623Y-26809D01*
X34684Y-26963D01*
X34774Y-27102D01*
X34889Y-27222D01*
X35026Y-27317D01*
X35178Y-27383D01*
X35287Y-27407D01*
X35440Y-27561D01*
X35594Y-27406D01*
X35669Y-27393D01*
X35824Y-27333D01*
X35964Y-27244D01*
X36084Y-27130D01*
X36180Y-26994D01*
X36247Y-26843D01*
X36284Y-26681D01*
X36287Y-26491D01*
X36255Y-26329D01*
X36191Y-26175D01*
X36099Y-26037D01*
X36090Y-26027D01*
X36090Y-25940D01*
X36180Y-25813D01*
X36247Y-25662D01*
X36284Y-25500D01*
X36287Y-25310D01*
X36255Y-25147D01*
X36202Y-25019D01*
X39249Y-25019D01*
X39378Y-25030D01*
X39501Y-25063D01*
X39616Y-25117D01*
X39719Y-25190D01*
X39809Y-25280D01*
X39882Y-25383D01*
X39936Y-25498D01*
X39969Y-25621D01*
X39980Y-25750D01*
X39980Y-33967D01*
X39990Y-34097D01*
X40021Y-34226D01*
X40072Y-34349D01*
X40141Y-34462D01*
X40226Y-34562D01*
X41555Y-35890D01*
X41555Y-38002D01*
X41508Y-38072D01*
X41474Y-38155D01*
X41456Y-38242D01*
X41456Y-38331D01*
X41456Y-39709D01*
X41474Y-39797D01*
X41508Y-39879D01*
X41555Y-39949D01*
X41555Y-45664D01*
X41547Y-45733D01*
X41547Y-45748D01*
X41547Y-47942D01*
X41545Y-48040D01*
X41547Y-48047D01*
X41547Y-52784D01*
X41545Y-52882D01*
X41582Y-53084D01*
X41631Y-53207D01*
M02*
