M48
;DRILL file {Pcbnew (2014-02-24 BZR 4719)-product} date Чт. 20 марта 2014 02:52:13
;FORMAT={-:-/ absolute / metric / decimal}
FMAT,2
METRIC,TZ
T1C0.600
T2C0.800
T3C1.000
T4C1.500
T5C1.700
T6C2.000
T7C3.500
%
G90
G05
M71
T1
X72.9Y-35.2
X72.9Y-38.
X72.9Y-124.6
X72.9Y-127.4
X75.3Y-33.8
X75.3Y-39.4
X75.3Y-123.2
X75.3Y-128.8
X77.7Y-35.2
X77.7Y-38.
X77.7Y-124.6
X77.7Y-127.4
X217.9Y-35.2
X217.9Y-38.
X217.9Y-146.7
X217.9Y-149.5
X220.3Y-33.8
X220.3Y-39.4
X220.3Y-145.3
X220.3Y-150.9
X222.7Y-35.2
X222.7Y-38.
X222.7Y-146.7
X222.7Y-149.5
T2
X69.9Y-44.22
X69.9Y-54.38
X71.3Y-110.95
X71.3Y-113.45
X72.86Y-56.3
X73.02Y-44.2
X73.1Y-59.32
X73.1Y-69.48
X73.1Y-73.82
X73.1Y-83.98
X73.82Y-91.8
X76.22Y-84.5
X76.7Y-59.32
X76.7Y-69.48
X77.46Y-81.9
X79.3Y-110.95
X79.3Y-113.45
X79.86Y-64.5
X79.86Y-67.5
X79.86Y-70.5
X79.9Y-61.5
X81.74Y-47.66
X81.74Y-52.74
X82.54Y-81.9
X83.02Y-56.3
X83.18Y-44.2
X83.95Y-101.4
X83.98Y-91.8
X84.2Y-125.46
X84.2Y-130.54
X84.98Y-61.5
X85.29Y-42.3
X86.38Y-84.5
X87.45Y-101.4
X87.84Y-53.89
X87.84Y-61.51
X88.34Y-74.601
X88.34Y-77.1
X88.34Y-79.599
X90.02Y-64.5
X90.02Y-67.5
X90.02Y-70.5
X91.2Y-45.72
X91.2Y-55.88
X92.91Y-42.3
X100.72Y-42.3
X109.5Y-45.32
X109.5Y-55.48
X110.88Y-42.3
X117.42Y-45.2
X117.42Y-48.2
X117.42Y-51.2
X118.69Y-42.3
X118.69Y-54.
X120.5Y-101.4
X125.5Y-101.4
X126.3Y-57.32
X126.3Y-67.48
X126.31Y-42.3
X126.31Y-54.
X127.58Y-45.2
X127.58Y-48.2
X127.58Y-51.2
X129.42Y-62.4
X129.42Y-65.3
X130.3Y-54.36
X130.3Y-59.44
X138.6Y-45.22
X138.6Y-55.38
X139.58Y-62.4
X139.58Y-65.3
X140.55Y-112.2
X141.4Y-45.22
X141.4Y-55.38
X141.9Y-37.16
X141.9Y-42.24
X141.901Y-70.9
X142.3Y-101.45
X142.3Y-104.95
X143.12Y-31.1
X143.12Y-33.9
X144.05Y-112.2
X144.39Y-49.6
X144.4Y-70.9
X146.899Y-70.9
X148.1Y-145.85
X148.1Y-148.35
X149.49Y-54.09
X149.49Y-56.63
X149.49Y-59.17
X149.49Y-61.71
X152.01Y-49.6
X153.28Y-31.1
X153.28Y-33.9
X153.3Y-112.86
X153.3Y-117.94
X154.69Y-49.6
X155.4Y-145.85
X155.4Y-148.35
X155.8Y-65.75
X155.8Y-68.25
X156.12Y-36.9
X156.12Y-39.7
X157.11Y-54.09
X157.11Y-56.63
X157.11Y-59.17
X157.11Y-61.71
X159.2Y-112.26
X159.2Y-117.34
X159.501Y-70.9
X160.19Y-64.7
X160.22Y-61.7
X162.Y-70.9
X162.31Y-49.6
X162.36Y-43.2
X162.76Y-67.3
X164.499Y-70.9
X164.6Y-97.05
X164.6Y-100.55
X164.6Y-105.95
X164.6Y-109.45
X165.2Y-46.42
X165.2Y-56.58
X166.28Y-36.9
X166.28Y-39.7
X167.44Y-43.2
X167.81Y-64.7
X167.84Y-67.3
X168.1Y-46.42
X168.1Y-56.58
X169.7Y-30.22
X169.7Y-40.38
X170.38Y-61.7
X171.1Y-112.66
X171.1Y-117.74
X173.1Y-56.02
X173.1Y-66.18
X175.82Y-45.2
X175.82Y-48.1
X175.82Y-62.4
X176.72Y-65.3
X177.09Y-42.3
X177.09Y-51.
X177.22Y-149.2
X183.22Y-145.
X184.7Y-54.36
X184.7Y-59.44
X184.71Y-42.3
X184.71Y-51.
X185.98Y-45.2
X185.98Y-48.1
X185.98Y-62.4
X186.88Y-65.3
X187.38Y-149.2
X188.6Y-51.02
X188.6Y-61.18
X191.1Y-96.3
X191.1Y-101.3
X192.7Y-133.5
X192.7Y-135.5
X193.38Y-145.
X196.75Y-124.
X199.25Y-124.
X200.32Y-55.6
X200.32Y-58.5
X200.501Y-88.4
X200.52Y-81.6
X200.52Y-84.4
X200.69Y-67.5
X200.69Y-70.89
X200.69Y-73.43
X200.69Y-75.97
X200.69Y-78.51
X200.72Y-97.4
X200.99Y-42.3
X201.99Y-92.5
X203.Y-88.4
X203.15Y-102.4
X203.96Y-94.9
X205.2Y-122.75
X205.2Y-125.25
X205.42Y-45.9
X205.499Y-88.4
X205.65Y-102.4
X208.31Y-67.5
X208.31Y-70.89
X208.31Y-73.43
X208.31Y-75.97
X208.31Y-78.51
X208.61Y-42.3
X209.04Y-94.9
X209.61Y-92.5
X210.48Y-55.6
X210.48Y-58.5
X210.52Y-61.5
X210.52Y-64.3
X210.68Y-81.6
X210.68Y-84.4
X210.88Y-97.4
X211.59Y-49.6
X212.Y-68.32
X212.Y-78.48
X212.42Y-92.5
X215.Y-68.26
X215.Y-73.34
X215.58Y-45.9
X215.7Y-122.3
X216.963Y-133.063
X218.3Y-68.26
X218.3Y-73.34
X218.3Y-76.42
X218.3Y-86.58
X219.21Y-49.6
X219.437Y-135.537
X220.68Y-61.5
X220.68Y-64.3
X220.7Y-122.3
X221.3Y-68.22
X221.3Y-78.38
X222.58Y-92.5
X225.2Y-129.72
X225.2Y-139.88
T3
X70.9Y-96.32
X70.9Y-106.48
X73.2Y-50.2
X73.8Y-96.32
X73.8Y-106.48
X75.74Y-47.66
X75.74Y-52.74
X76.8Y-96.32
X76.8Y-106.48
X78.76Y-73.8
X79.8Y-96.32
X79.8Y-106.48
X81.3Y-76.34
X83.84Y-73.8
X85.3Y-46.56
X85.3Y-51.64
X87.84Y-49.1
X88.36Y-87.1
X90.9Y-84.56
X90.9Y-89.64
X94.7Y-59.487
X94.7Y-81.511
X95.3Y-145.
X97.68Y-116.2
X98.8Y-145.
X102.3Y-145.
X105.8Y-145.
X109.3Y-145.
X112.92Y-116.2
X115.6Y-58.16
X115.6Y-63.24
X118.14Y-60.7
X124.42Y-109.2
X124.42Y-112.2
X124.42Y-115.2
X124.42Y-118.2
X134.5Y-36.58
X134.5Y-51.82
X134.58Y-109.2
X134.58Y-112.2
X134.58Y-115.2
X134.58Y-118.2
X145.66Y-37.2
X145.66Y-44.
X148.2Y-39.74
X148.2Y-46.54
X150.74Y-37.2
X150.74Y-44.
X154.66Y-46.4
X157.2Y-43.86
X158.66Y-33.3
X159.24Y-120.6
X159.24Y-123.2
X159.74Y-46.4
X161.2Y-30.76
X163.74Y-33.3
X171.3Y-48.16
X171.3Y-53.24
X171.62Y-96.4
X171.62Y-99.2
X171.62Y-102.
X171.62Y-104.8
X173.84Y-50.7
X181.78Y-96.4
X181.78Y-99.2
X181.78Y-102.
X181.78Y-104.8
X192.Y-36.58
X192.Y-51.82
X196.02Y-110.1
X196.02Y-112.9
X196.02Y-115.7
X196.02Y-118.5
X201.96Y-64.3
X202.86Y-52.1
X204.5Y-61.76
X205.4Y-49.56
X206.18Y-110.1
X206.18Y-112.9
X206.18Y-115.7
X206.18Y-118.5
X207.04Y-64.3
X207.94Y-52.1
X213.25Y-106.2
X214.46Y-55.6
X217.Y-58.14
X219.54Y-55.6
X220.75Y-106.2
X225.2Y-44.08
X225.2Y-59.32
T4
X87.08Y-121.8
X87.08Y-134.1
X102.32Y-121.8
X102.32Y-134.1
X107.3Y-62.9
X107.3Y-68.1
X107.3Y-78.9
X107.3Y-84.1
X108.18Y-121.8
X108.18Y-134.1
X123.42Y-121.8
X123.42Y-134.1
X142.Y-76.48
X142.Y-91.72
X148.6Y-76.48
X148.6Y-91.72
X158.Y-76.48
X158.Y-91.72
X164.6Y-76.48
X164.6Y-91.72
X176.48Y-110.1
X176.48Y-115.5
X176.48Y-120.9
X176.48Y-126.3
X191.72Y-110.1
X191.72Y-115.5
X191.72Y-120.9
X191.72Y-126.3
T5
X72.2Y-136.6
X72.2Y-140.8
X72.2Y-145.
X72.2Y-149.2
X76.4Y-136.6
X76.4Y-140.8
X76.4Y-145.
X76.4Y-149.2
X83.512Y-36.6
X89.1Y-36.6
X94.688Y-36.6
X100.212Y-36.6
X105.8Y-36.6
X111.388Y-36.6
X116.912Y-36.6
X122.5Y-36.6
X128.088Y-36.6
X135.48Y-127.6
X137.3Y-136.6
X137.3Y-140.8
X137.3Y-145.
X137.3Y-149.2
X139.44Y-127.6
X141.5Y-136.6
X141.5Y-140.8
X141.5Y-145.
X141.5Y-149.2
X143.4Y-127.6
X147.36Y-127.6
X151.32Y-127.6
X155.28Y-127.6
X159.24Y-127.6
X163.2Y-127.6
X165.Y-136.6
X165.Y-140.8
X165.Y-145.
X165.Y-149.2
X167.16Y-127.6
X169.2Y-136.6
X169.2Y-140.8
X169.2Y-145.
X169.2Y-149.2
X171.12Y-127.6
X175.312Y-36.6
X180.9Y-36.6
X186.488Y-36.6
X201.012Y-36.6
X204.3Y-132.4
X204.3Y-136.6
X204.3Y-140.8
X204.3Y-145.
X204.3Y-149.2
X206.6Y-36.6
X208.5Y-132.4
X208.5Y-136.6
X208.5Y-140.8
X208.5Y-145.
X208.5Y-149.2
X212.188Y-36.6
T6
X98.2Y-99.
X108.2Y-99.
X122.9Y-76.5
X122.9Y-86.5
X181.8Y-75.
X181.8Y-85.
T7
X75.3Y-36.6
X75.3Y-126.
X220.3Y-36.6
X220.3Y-148.1
T0
M30
